<svg width="82" height="24" viewBox="0 0 82 24" fill="none" xmlns="http://www.w3.org/2000/svg">
<rect width="24" height="24" rx="4" fill="#303B41"/>
<rect x="4.66666" y="4.66667" width="14.6667" height="2.66667" rx="1" fill="white"/>
<rect x="4.66666" y="10.6667" width="14.6667" height="2.66667" rx="1" fill="#F17C46"/>
<path d="M29.6321 16V8.72727H32.5014C33.0507 8.72727 33.5194 8.82552 33.9077 9.02202C34.2983 9.21615 34.5954 9.49195 34.799 9.84943C35.005 10.2045 35.108 10.6224 35.108 11.103C35.108 11.5859 35.0038 12.0014 34.7955 12.3494C34.5871 12.6951 34.2853 12.9602 33.8899 13.1449C33.4969 13.3295 33.0211 13.4219 32.4624 13.4219H30.5412V12.1861H32.2138C32.5073 12.1861 32.7512 12.1458 32.9453 12.0653C33.1394 11.9848 33.2839 11.8641 33.3786 11.7031C33.4756 11.5421 33.5241 11.3421 33.5241 11.103C33.5241 10.8615 33.4756 10.6579 33.3786 10.4922C33.2839 10.3265 33.1383 10.201 32.9418 10.1158C32.7476 10.0282 32.5026 9.98438 32.2067 9.98438H31.1697V16H29.6321ZM33.5597 12.6903L35.3672 16H33.6697L31.9013 12.6903H33.5597ZM36.1662 16V10.5455H37.679V16H36.1662ZM36.9261 9.84233C36.7012 9.84233 36.5083 9.76776 36.3473 9.61861C36.1887 9.46709 36.1094 9.28598 36.1094 9.07528C36.1094 8.86695 36.1887 8.68821 36.3473 8.53906C36.5083 8.38755 36.7012 8.31179 36.9261 8.31179C37.151 8.31179 37.3428 8.38755 37.5014 8.53906C37.6624 8.68821 37.7429 8.86695 37.7429 9.07528C37.7429 9.28598 37.6624 9.46709 37.5014 9.61861C37.3428 9.76776 37.151 9.84233 36.9261 9.84233ZM41.3482 18.1591C40.8581 18.1591 40.4379 18.0916 40.0875 17.9567C39.7395 17.8241 39.4625 17.643 39.2566 17.4134C39.0506 17.1837 38.9168 16.9257 38.8553 16.6392L40.2544 16.451C40.2971 16.5599 40.3645 16.6617 40.4569 16.7564C40.5492 16.8511 40.6711 16.9268 40.8226 16.9837C40.9765 17.0429 41.1635 17.0724 41.3837 17.0724C41.7128 17.0724 41.9838 16.992 42.1969 16.831C42.4123 16.6723 42.5201 16.406 42.5201 16.032V15.0341H42.4561C42.3899 15.1856 42.2904 15.3288 42.1578 15.4638C42.0253 15.5987 41.8548 15.7088 41.6465 15.794C41.4382 15.8793 41.1896 15.9219 40.9007 15.9219C40.4912 15.9219 40.1183 15.8272 39.7821 15.6378C39.4483 15.446 39.182 15.1536 38.9831 14.7607C38.7866 14.3653 38.6884 13.8658 38.6884 13.2621C38.6884 12.6442 38.789 12.1281 38.9902 11.7138C39.1915 11.2995 39.459 10.9893 39.7928 10.7834C40.129 10.5774 40.4971 10.4744 40.8972 10.4744C41.2026 10.4744 41.4583 10.5265 41.6642 10.6307C41.8702 10.7325 42.0359 10.8603 42.1614 11.0142C42.2892 11.1657 42.3875 11.3149 42.4561 11.4616H42.513V10.5455H44.0151V16.0533C44.0151 16.5173 43.9015 16.9055 43.6742 17.218C43.4469 17.5305 43.132 17.7649 42.7296 17.9212C42.3295 18.0798 41.869 18.1591 41.3482 18.1591ZM41.3801 14.7855C41.624 14.7855 41.83 14.7251 41.998 14.6044C42.1685 14.4813 42.2987 14.3061 42.3887 14.0788C42.481 13.8492 42.5272 13.5746 42.5272 13.255C42.5272 12.9354 42.4822 12.6584 42.3922 12.424C42.3023 12.1873 42.1721 12.0038 42.0016 11.8736C41.8311 11.7434 41.624 11.6783 41.3801 11.6783C41.1316 11.6783 40.9221 11.7457 40.7516 11.8807C40.5811 12.0133 40.4521 12.1979 40.3645 12.4347C40.2769 12.6714 40.2331 12.9448 40.2331 13.255C40.2331 13.5698 40.2769 13.8421 40.3645 14.0717C40.4545 14.299 40.5835 14.4754 40.7516 14.6009C40.9221 14.724 41.1316 14.7855 41.3801 14.7855ZM46.7317 12.8466V16H45.2189V8.72727H46.6891V11.5078H46.753C46.8761 11.1858 47.075 10.9337 47.3496 10.7514C47.6242 10.5668 47.9687 10.4744 48.383 10.4744C48.7618 10.4744 49.092 10.5573 49.3738 10.723C49.6578 10.8864 49.878 11.1219 50.0343 11.4297C50.1929 11.7351 50.271 12.1009 50.2686 12.527V16H48.7559V12.7969C48.7582 12.4607 48.673 12.1991 48.5002 12.0121C48.3297 11.825 48.0906 11.7315 47.7828 11.7315C47.5769 11.7315 47.3946 11.7753 47.236 11.8629C47.0797 11.9505 46.9566 12.0784 46.8667 12.2464C46.7791 12.4122 46.7341 12.6122 46.7317 12.8466ZM54.3604 10.5455V11.6818H51.0756V10.5455H54.3604ZM51.8214 9.23864H53.3342V14.3239C53.3342 14.4635 53.3555 14.5724 53.3981 14.6506C53.4407 14.7263 53.4999 14.7796 53.5756 14.8104C53.6538 14.8411 53.7437 14.8565 53.8455 14.8565C53.9165 14.8565 53.9876 14.8506 54.0586 14.8388C54.1296 14.8246 54.1841 14.8139 54.2219 14.8068L54.4599 15.9325C54.3841 15.9562 54.2776 15.9834 54.1403 16.0142C54.003 16.0473 53.8361 16.0675 53.6396 16.0746C53.275 16.0888 52.9554 16.0402 52.6808 15.929C52.4085 15.8177 52.1966 15.6449 52.0451 15.4105C51.8936 15.1761 51.819 14.8802 51.8214 14.5227V9.23864ZM59.8159 12.1009L58.4309 12.1861C58.4073 12.0677 58.3564 11.9612 58.2782 11.8665C58.2001 11.7694 58.0971 11.6925 57.9693 11.6357C57.8438 11.5765 57.6935 11.5469 57.5183 11.5469C57.2839 11.5469 57.0862 11.5966 56.9252 11.696C56.7643 11.7931 56.6838 11.9233 56.6838 12.0866C56.6838 12.2169 56.7359 12.3269 56.84 12.4169C56.9442 12.5069 57.1229 12.5791 57.3762 12.6335L58.3635 12.8324C58.8938 12.9413 59.2891 13.1165 59.5495 13.358C59.81 13.5994 59.9402 13.9167 59.9402 14.3097C59.9402 14.6671 59.8348 14.9808 59.6241 15.2507C59.4158 15.5206 59.1293 15.7313 58.7647 15.8828C58.4025 16.032 57.9847 16.1065 57.5112 16.1065C56.7891 16.1065 56.2138 15.9562 55.7853 15.6555C55.3592 15.3525 55.1094 14.9406 55.036 14.4197L56.524 14.3416C56.569 14.5618 56.6779 14.7299 56.8507 14.8459C57.0235 14.9595 57.2449 15.0163 57.5147 15.0163C57.7799 15.0163 57.993 14.9654 58.1539 14.8636C58.3173 14.7595 58.4002 14.6257 58.4025 14.4624C58.4002 14.325 58.3422 14.2126 58.2285 14.125C58.1149 14.035 57.9397 13.9664 57.7029 13.919L56.7583 13.7308C56.2257 13.6243 55.8291 13.4396 55.5687 13.1768C55.3107 12.9141 55.1816 12.5791 55.1816 12.1719C55.1816 11.8215 55.2763 11.5196 55.4657 11.2663C55.6575 11.013 55.9262 10.8177 56.2718 10.6804C56.6199 10.5431 57.027 10.4744 57.4934 10.4744C58.1824 10.4744 58.7245 10.62 59.1199 10.9112C59.5176 11.2024 59.7496 11.599 59.8159 12.1009ZM60.9212 16V8.72727H63.7905C64.3421 8.72727 64.812 8.83262 65.2003 9.04332C65.5885 9.25166 65.8845 9.54167 66.0881 9.91335C66.294 10.2827 66.397 10.7088 66.397 11.1918C66.397 11.6747 66.2929 12.1009 66.0845 12.4702C65.8762 12.8395 65.5743 13.1271 65.179 13.3331C64.786 13.5391 64.3101 13.642 63.7514 13.642H61.9226V12.4098H63.5028C63.7988 12.4098 64.0426 12.3589 64.2344 12.2571C64.4285 12.1529 64.5729 12.0097 64.6676 11.8274C64.7647 11.6428 64.8132 11.4309 64.8132 11.1918C64.8132 10.9503 64.7647 10.7396 64.6676 10.5597C64.5729 10.3774 64.4285 10.2365 64.2344 10.1371C64.0402 10.0353 63.794 9.98438 63.4957 9.98438H62.4588V16H60.9212ZM68.8801 8.72727V16H67.3674V8.72727H68.8801ZM73.5898 13.6776V10.5455H75.1026V16H73.6502V15.0092H73.5934C73.4703 15.3288 73.2655 15.5857 72.979 15.7798C72.695 15.974 72.3481 16.071 71.9386 16.071C71.574 16.071 71.2532 15.9882 70.9762 15.8224C70.6992 15.6567 70.4826 15.4212 70.3263 15.1158C70.1725 14.8104 70.0943 14.4446 70.092 14.0185V10.5455H71.6048V13.7486C71.6071 14.0705 71.6935 14.325 71.864 14.5121C72.0344 14.6991 72.2629 14.7926 72.5494 14.7926C72.7317 14.7926 72.9021 14.7512 73.0607 14.6683C73.2193 14.5831 73.3472 14.4576 73.4442 14.2919C73.5437 14.1262 73.5922 13.9214 73.5898 13.6776ZM80.851 12.1009L79.4661 12.1861C79.4424 12.0677 79.3915 11.9612 79.3134 11.8665C79.2353 11.7694 79.1323 11.6925 79.0044 11.6357C78.879 11.5765 78.7286 11.5469 78.5534 11.5469C78.3191 11.5469 78.1214 11.5966 77.9604 11.696C77.7994 11.7931 77.7189 11.9233 77.7189 12.0866C77.7189 12.2169 77.771 12.3269 77.8752 12.4169C77.9793 12.5069 78.1581 12.5791 78.4114 12.6335L79.3986 12.8324C79.9289 12.9413 80.3243 13.1165 80.5847 13.358C80.8451 13.5994 80.9753 13.9167 80.9753 14.3097C80.9753 14.6671 80.87 14.9808 80.6593 15.2507C80.4509 15.5206 80.1645 15.7313 79.7999 15.8828C79.4377 16.032 79.0198 16.1065 78.5463 16.1065C77.8243 16.1065 77.249 15.9562 76.8205 15.6555C76.3944 15.3525 76.1446 14.9406 76.0712 14.4197L77.5591 14.3416C77.6041 14.5618 77.713 14.7299 77.8858 14.8459C78.0587 14.9595 78.28 15.0163 78.5499 15.0163C78.815 15.0163 79.0281 14.9654 79.1891 14.8636C79.3525 14.7595 79.4353 14.6257 79.4377 14.4624C79.4353 14.325 79.3773 14.2126 79.2637 14.125C79.15 14.035 78.9748 13.9664 78.7381 13.919L77.7935 13.7308C77.2608 13.6243 76.8643 13.4396 76.6039 13.1768C76.3458 12.9141 76.2168 12.5791 76.2168 12.1719C76.2168 11.8215 76.3115 11.5196 76.5009 11.2663C76.6926 11.013 76.9614 10.8177 77.307 10.6804C77.655 10.5431 78.0622 10.4744 78.5286 10.4744C79.2175 10.4744 79.7596 10.62 80.155 10.9112C80.5527 11.2024 80.7847 11.599 80.851 12.1009Z" fill="#303B41"/>
</svg>
