<svg width="20" height="20" viewBox="0 0 20 20" fill="none" xmlns="http://www.w3.org/2000/svg">
<g clip-path="url(#clip0_1_15279)">
<path d="M17.9999 17.9999L1.99994 17.9999L1.99994 1.99992L17.9999 1.99992L17.9999 17.9999Z" fill="#EA580C"/>
<path d="M2.3 18C2.13431 18 2 17.8657 2 17.7L2 2.29998C2 2.1343 2.13431 1.99998 2.3 1.99998L4.92918 1.99998C4.97575 1.99998 5.02169 2.01083 5.06334 2.03166L8.53763 3.76882C8.74365 3.87184 8.76153 4.15899 8.56987 4.28677L6.37442 5.75039C6.1963 5.86913 6.1963 6.13087 6.37442 6.24962L8.62558 7.75038C8.8037 7.86913 8.8037 8.13087 8.62558 8.24961L6.37442 9.75039C6.1963 9.86913 6.1963 10.1309 6.37442 10.2496L8.62558 11.7504C8.8037 11.8691 8.8037 12.1309 8.62558 12.2496L6.37442 13.7504C6.1963 13.8691 6.1963 14.1309 6.37442 14.2496L8.56987 15.7132C8.76153 15.841 8.74365 16.1282 8.53762 16.2312L5.06334 17.9683C5.02169 17.9891 4.97575 18 4.92918 18L2.3 18Z" fill="#F5F5F5"/>
</g>
<defs>
<clipPath id="clip0_1_15279">
<rect x="2.00488" y="1.995" width="16" height="16" rx="8" fill="white"/>
</clipPath>
</defs>
</svg>
