<svg width="20" height="20" viewBox="0 0 20 20" fill="none" xmlns="http://www.w3.org/2000/svg">
<g clip-path="url(#clip0_1_15198)">
<rect x="18" y="18" width="16" height="16" transform="rotate(-180 18 18)" fill="#F5F5F5"/>
<rect x="2" y="18" width="16" height="8" transform="rotate(-90 2 18)" fill="#15803D"/>
<path fill-rule="evenodd" clip-rule="evenodd" d="M7.87226 10C7.87226 11.6993 9.24985 13.0769 10.9492 13.0769C11.2567 13.0769 11.5583 13.566 11.2751 13.6858C10.7967 13.8881 10.2706 14 9.71844 14C7.5093 14 5.71844 12.2091 5.71844 10C5.71844 7.79086 7.5093 6 9.71844 6C10.2706 6 10.7967 6.11188 11.2751 6.31422C11.5583 6.43398 11.2567 6.92308 10.9492 6.92308C9.24985 6.92308 7.87226 8.30066 7.87226 10Z" fill="#EA580C"/>
<path d="M11.7196 8.87311C11.8094 8.59672 12.2004 8.59672 12.2902 8.87311L12.3866 9.16967C12.4267 9.29327 12.5419 9.37696 12.6719 9.37696H12.9837C13.2743 9.37696 13.3951 9.74885 13.16 9.91967L12.9078 10.1029C12.8026 10.1793 12.7586 10.3148 12.7988 10.4384L12.8951 10.7349C12.9849 11.0113 12.6686 11.2411 12.4335 11.0703L12.1812 10.887C12.0761 10.8106 11.9337 10.8106 11.8285 10.887L11.5763 11.0703C11.3412 11.2411 11.0248 11.0113 11.1146 10.7349L11.211 10.4384C11.2511 10.3148 11.2072 10.1793 11.102 10.1029L10.8497 9.91967C10.6146 9.74885 10.7355 9.37696 11.0261 9.37696H11.3379C11.4679 9.37696 11.583 9.29327 11.6232 9.16967L11.7196 8.87311Z" fill="#EA580C"/>
</g>
<defs>
<clipPath id="clip0_1_15198">
<rect x="2.00488" y="1.995" width="16" height="16" rx="8" fill="white"/>
</clipPath>
</defs>
</svg>
