<svg width="20" height="20" viewBox="0 0 20 20" fill="none" xmlns="http://www.w3.org/2000/svg">
<g clip-path="url(#clip0_1_15297)">
<path d="M17.9999 17.9999L1.99994 17.9999L1.99994 1.99992L17.9999 1.99992L17.9999 17.9999Z" fill="#262626"/>
<rect x="18" y="18" width="16" height="5.33333" transform="rotate(-180 18 18)" fill="#16A34A"/>
<rect x="18" y="12.665" width="16" height="5.33333" transform="rotate(-180 18 12.665)" fill="#F5F5F5"/>
<rect x="3.65686" y="15.6568" width="8" height="8" rx="1" transform="rotate(-135 3.65686 15.6568)" fill="#EA580C"/>
</g>
<path fill-rule="evenodd" clip-rule="evenodd" d="M11.3421 9.99192C11.3421 10.6563 11.8807 11.1949 12.5451 11.1949C12.6653 11.1949 12.7833 11.3862 12.6725 11.433C12.4855 11.5121 12.2798 11.5559 12.0639 11.5559C11.2002 11.5559 10.5 10.8557 10.5 9.99193C10.5 9.1282 11.2002 8.42801 12.0639 8.42801C12.2798 8.42801 12.4854 8.47175 12.6725 8.55086C12.7832 8.59768 12.6653 8.7889 12.5451 8.7889C11.8807 8.7889 11.3421 9.32751 11.3421 9.99192Z" fill="#EA580C"/>
<path d="M13.4443 9.33853C13.53 9.07459 13.9034 9.07459 13.9892 9.33853C14.0275 9.45656 14.1375 9.53647 14.2616 9.53647C14.5392 9.53647 14.6545 9.89159 14.43 10.0547C14.3296 10.1277 14.2876 10.257 14.326 10.375C14.4117 10.6389 14.1096 10.8584 13.8851 10.6953C13.7847 10.6223 13.6488 10.6223 13.5484 10.6953C13.3238 10.8584 13.0218 10.6389 13.1075 10.375C13.1459 10.257 13.1038 10.1277 13.0034 10.0547C12.7789 9.89159 12.8943 9.53647 13.1718 9.53647C13.2959 9.53647 13.4059 9.45656 13.4443 9.33853Z" fill="#EA580C"/>
<defs>
<clipPath id="clip0_1_15297">
<rect x="2.00488" y="1.995" width="16" height="16" rx="8" fill="white"/>
</clipPath>
</defs>
</svg>
