<svg width="20" height="20" viewBox="0 0 20 20" fill="none" xmlns="http://www.w3.org/2000/svg">
<g clip-path="url(#clip0_1_15224)">
<rect x="2.00983" y="7.33493" width="16" height="5.33" fill="#F5F5F5"/>
<path d="M9.71437 8.45834C9.79938 8.17313 10.203 8.17241 10.2891 8.45731L10.7287 9.91328C10.7458 9.96983 10.7458 10.0302 10.7287 10.0867L10.2891 11.5427C10.203 11.8276 9.79938 11.8269 9.71437 11.5417L9.28042 10.0857C9.26376 10.0298 9.26376 9.97022 9.28042 9.91431L9.71437 8.45834Z" fill="#CA8A04"/>
<path d="M11.1575 8.61651C11.3355 8.55598 11.5246 8.67206 11.5512 8.85809L11.8727 11.109C11.9135 11.3945 11.5675 11.5675 11.3636 11.3636L10.2121 10.2121C10.095 10.095 9.90503 10.095 9.78787 10.2121L8.63639 11.3636C8.43253 11.5675 8.08651 11.3945 8.12728 11.109L8.44931 8.85486C8.47573 8.6699 8.66297 8.55383 8.84038 8.61242L9.92669 8.97122C9.98866 8.99169 10.0556 8.99139 10.1174 8.97037L11.1575 8.61651Z" fill="#CA8A04"/>
<rect x="2.00482" y="1.99005" width="16" height="5.33" fill="#EA580C"/>
<rect x="2.00983" y="12.6649" width="16" height="5.33" fill="#262626"/>
</g>
<defs>
<clipPath id="clip0_1_15224">
<rect x="18.0049" y="17.995" width="16" height="16" rx="8" transform="rotate(180 18.0049 17.995)" fill="white"/>
</clipPath>
</defs>
</svg>
