<svg width="20" height="20" viewBox="0 0 20 20" fill="none" xmlns="http://www.w3.org/2000/svg">
<g clip-path="url(#clip0_1_15254)">
<path d="M17.9999 17.9999L1.99994 17.9999L1.99994 1.99992L17.9999 1.99992L17.9999 17.9999Z" fill="#262626"/>
<rect x="18" y="18" width="16" height="5.33333" transform="rotate(-180 18 18)" fill="#16A34A"/>
<rect x="18" y="12.665" width="16" height="5.33333" transform="rotate(-180 18 12.665)" fill="#F5F5F5"/>
<rect x="3.65686" y="15.6568" width="8" height="8" rx="1" transform="rotate(-135 3.65686 15.6568)" fill="#EA580C"/>
<path d="M4.74548 9.00726C4.81226 8.74298 5.18774 8.74298 5.25452 9.00726C5.29461 9.16589 5.46845 9.24961 5.61746 9.18204C5.86572 9.06948 6.09983 9.36305 5.93485 9.58003C5.83582 9.71027 5.87875 9.89839 6.02448 9.97276C6.26728 10.0967 6.18372 10.4627 5.91121 10.469C5.74764 10.4728 5.62734 10.6237 5.66005 10.784C5.71455 11.0511 5.37625 11.214 5.20141 11.0049C5.09647 10.8793 4.90353 10.8793 4.79859 11.0049C4.62375 11.214 4.28545 11.0511 4.33995 10.784C4.37266 10.6237 4.25236 10.4728 4.08879 10.469C3.81628 10.4627 3.73272 10.0967 3.97552 9.97276C4.12125 9.89839 4.16418 9.71027 4.06515 9.58003C3.90017 9.36305 4.13428 9.06948 4.38254 9.18204C4.53155 9.24961 4.70539 9.16589 4.74548 9.00726Z" fill="#F5F5F5"/>
</g>
<defs>
<clipPath id="clip0_1_15254">
<rect x="2.00488" y="1.995" width="16" height="16" rx="8" fill="white"/>
</clipPath>
</defs>
</svg>
