<svg width="20" height="20" viewBox="0 0 20 20" fill="none" xmlns="http://www.w3.org/2000/svg">
<g clip-path="url(#clip0_1_15549)">
<rect x="18" y="18" width="16" height="16" transform="rotate(180 18 18)" fill="#FACC15"/>
<rect x="2" y="14" width="16" height="4" fill="#1E40AF"/>
<rect x="2" y="9.99999" width="16" height="4" fill="#EA580C"/>
<rect x="18" y="10" width="16" height="4" transform="rotate(180 18 10)" fill="#F5F5F5"/>
<rect x="3.65686" y="15.6568" width="8" height="8" rx="1" transform="rotate(-135 3.65686 15.6568)" fill="#16A34A"/>
<circle cx="6.04272" cy="9.5" r="0.5" transform="rotate(90 6.04272 9.5)" fill="#F5F5F5"/>
<circle cx="6.04272" cy="10.5" r="0.5" transform="rotate(90 6.04272 10.5)" fill="#F5F5F5"/>
<circle cx="6.04272" cy="8.5" r="0.5" transform="rotate(90 6.04272 8.5)" fill="#F5F5F5"/>
<circle cx="6.04272" cy="11.5" r="0.5" transform="rotate(90 6.04272 11.5)" fill="#F5F5F5"/>
<path fill-rule="evenodd" clip-rule="evenodd" d="M5.00488 12C5.16146 12 5.1793 11.7869 5.04591 11.7049C4.47366 11.353 4.09207 10.7211 4.09207 10C4.09207 9.27894 4.47366 8.64699 5.04591 8.2951C5.1793 8.21308 5.16146 8 5.00487 8C3.90031 8 3.00488 8.89543 3.00488 10C3.00488 11.1046 3.90031 12 5.00488 12Z" fill="#F5F5F5"/>
</g>
<defs>
<clipPath id="clip0_1_15549">
<rect x="2.00488" y="17.995" width="16" height="16" rx="8" transform="rotate(-90 2.00488 17.995)" fill="white"/>
</clipPath>
</defs>
</svg>
