<svg width="20" height="20" viewBox="0 0 20 20" fill="none" xmlns="http://www.w3.org/2000/svg">
<g clip-path="url(#clip0_1_15215)">
<rect x="2" y="2.00003" width="16" height="16" fill="#262626"/>
<path fill-rule="evenodd" clip-rule="evenodd" d="M8.70049 10C8.70049 11.0621 9.56148 11.9231 10.6236 11.9231C10.8157 11.9231 11.0043 12.2288 10.8273 12.3036C10.5282 12.4301 10.1995 12.5 9.85436 12.5C8.47365 12.5 7.35436 11.3807 7.35436 10C7.35436 8.61929 8.47365 7.5 9.85436 7.5C10.1995 7.5 10.5283 7.56993 10.8273 7.69639C11.0043 7.77125 10.8158 8.07695 10.6236 8.07695C9.56148 8.07695 8.70049 8.93794 8.70049 10Z" fill="#F5F5F5"/>
<rect x="2" y="2" width="16" height="4" fill="#EA580C"/>
<rect x="2" y="14" width="16" height="4" fill="#16A34A"/>
</g>
<path d="M11.7196 8.87311C11.8094 8.59672 12.2004 8.59672 12.2902 8.87311L12.3866 9.16967C12.4267 9.29327 12.5419 9.37696 12.6719 9.37696H12.9837C13.2743 9.37696 13.3951 9.74885 13.16 9.91967L12.9078 10.1029C12.8026 10.1793 12.7586 10.3148 12.7988 10.4384L12.8951 10.7349C12.9849 11.0113 12.6686 11.2411 12.4335 11.0703L12.1812 10.887C12.0761 10.8106 11.9337 10.8106 11.8285 10.887L11.5763 11.0703C11.3412 11.2411 11.0248 11.0113 11.1146 10.7349L11.211 10.4384C11.2511 10.3148 11.2072 10.1793 11.102 10.1029L10.8497 9.91967C10.6146 9.74885 10.7355 9.37696 11.0261 9.37696H11.3379C11.4679 9.37696 11.583 9.29327 11.6232 9.16967L11.7196 8.87311Z" fill="#F5F5F5"/>
<defs>
<clipPath id="clip0_1_15215">
<rect x="2" y="2" width="16" height="16" rx="8" fill="white"/>
</clipPath>
</defs>
</svg>
