<svg width="20" height="20" viewBox="0 0 20 20" fill="none" xmlns="http://www.w3.org/2000/svg">
<g clip-path="url(#clip0_1_15188)">
<rect x="18" y="18" width="16" height="16" transform="rotate(-180 18 18)" fill="#C2410C"/>
<rect x="2" y="15" width="10" height="16" transform="rotate(-90 2 15)" fill="#16A34A"/>
<path fill-rule="evenodd" clip-rule="evenodd" d="M15 9.51575C15 9.32294 14.7348 9.30235 14.6491 9.47506C13.9152 10.9542 12.1102 12 10 12C7.88975 12 6.08484 10.9542 5.35094 9.47507C5.26525 9.30235 5 9.32294 5 9.51575C5 11.7249 7.23858 13.5157 10 13.5157C12.7614 13.5157 15 11.7249 15 9.51575Z" fill="#FACC15"/>
<path d="M9.71957 6.87311C9.80937 6.59672 10.2004 6.59672 10.2902 6.87311L10.4988 7.51516C10.539 7.63876 10.6542 7.72245 10.7841 7.72245H11.4592C11.7498 7.72245 11.8707 8.09434 11.6356 8.26516L11.0894 8.66196C10.9843 8.73836 10.9403 8.87377 10.9804 8.99738L11.189 9.63942C11.2788 9.91582 10.9625 10.1457 10.7274 9.97483L10.1812 9.57803C10.0761 9.50163 9.93369 9.50163 9.82855 9.57803L9.28239 9.97483C9.04727 10.1457 8.73093 9.91582 8.82074 9.63942L9.02935 8.99737C9.06951 8.87377 9.02552 8.73836 8.92037 8.66196L8.37421 8.26516C8.1391 8.09434 8.25993 7.72245 8.55055 7.72245H9.22564C9.3556 7.72245 9.47079 7.63876 9.51095 7.51516L9.71957 6.87311Z" fill="#FACC15"/>
</g>
<defs>
<clipPath id="clip0_1_15188">
<rect x="2.00488" y="1.995" width="16" height="16" rx="8" fill="white"/>
</clipPath>
</defs>
</svg>
