<svg width="20" height="20" viewBox="0 0 20 20" fill="none" xmlns="http://www.w3.org/2000/svg">
<g clip-path="url(#clip0_1_15284)">
<path d="M17.9999 17.9999L1.99994 17.9999L1.99994 1.99992L17.9999 1.99992L17.9999 17.9999Z" fill="#991B1B"/>
<path d="M2.3 17.5C2.13431 17.5 2 17.3657 2 17.2L2 2.8C2 2.63432 2.13432 2.5 2.3 2.5L4.95597 2.50003C4.98517 2.50003 5.01421 2.50429 5.04217 2.51268L9.04216 3.71265C9.32722 3.79816 9.32722 4.20183 9.04216 4.28734L5.95783 5.21264C5.67277 5.29816 5.67277 5.70182 5.95783 5.78734L9.04217 6.71264C9.32723 6.79816 9.32723 7.20182 9.04217 7.28733L5.95783 8.21264C5.67277 8.29815 5.67277 8.70181 5.95783 8.78733L9.04217 9.71263C9.32723 9.79815 9.32723 10.2018 9.04217 10.2873L5.95783 11.2126C5.67277 11.2981 5.67277 11.7018 5.95783 11.7873L9.04218 12.7126C9.32724 12.7981 9.32724 13.2018 9.04218 13.2873L5.95783 14.2126C5.67277 14.2982 5.67277 14.7018 5.95783 14.7873L9.04217 15.7126C9.32723 15.7981 9.32723 16.2018 9.04217 16.2873L5.04217 17.4873C5.01421 17.4957 4.98517 17.5 4.95597 17.5L2.3 17.5Z" fill="#F5F5F5"/>
</g>
<defs>
<clipPath id="clip0_1_15284">
<rect x="2.00488" y="1.995" width="16" height="16" rx="8" fill="white"/>
</clipPath>
</defs>
</svg>
