<svg width="20" height="20" viewBox="0 0 20 20" fill="none" xmlns="http://www.w3.org/2000/svg">
<g clip-path="url(#clip0_1_15262)">
<rect x="2.00977" y="7.33493" width="16" height="5.33" fill="#F5F5F5"/>
<rect x="2.00476" y="1.99005" width="16" height="5.33" fill="#EA580C"/>
<rect x="2.00977" y="12.6649" width="16" height="5.33" fill="#262626"/>
<path d="M12.7147 8.87311C12.8045 8.59672 13.1955 8.59672 13.2853 8.87311L13.3817 9.16967C13.4218 9.29327 13.537 9.37696 13.667 9.37696H13.9788C14.2694 9.37696 14.3903 9.74885 14.1551 9.91967L13.9029 10.1029C13.7977 10.1793 13.7537 10.3148 13.7939 10.4384L13.8903 10.7349C13.9801 11.0113 13.6637 11.2411 13.4286 11.0703L13.1763 10.887C13.0712 10.8106 12.9288 10.8106 12.8237 10.887L12.5714 11.0703C12.3363 11.2411 12.0199 11.0113 12.1097 10.7349L12.2061 10.4384C12.2463 10.3148 12.2023 10.1793 12.0971 10.1029L11.8449 9.91967C11.6097 9.74885 11.7306 9.37696 12.0212 9.37696H12.333C12.463 9.37696 12.5782 9.29327 12.6183 9.16967L12.7147 8.87311Z" fill="#16A34A"/>
<path d="M7.71468 8.87311C7.80449 8.59672 8.19551 8.59672 8.28532 8.87311L8.38167 9.16967C8.42184 9.29327 8.53702 9.37696 8.66699 9.37696H8.97881C9.26943 9.37696 9.39026 9.74885 9.15514 9.91967L8.90288 10.1029C8.79773 10.1793 8.75373 10.3148 8.7939 10.4384L8.89025 10.7349C8.98006 11.0113 8.66371 11.2411 8.4286 11.0703L8.17634 10.887C8.07119 10.8106 7.92881 10.8106 7.82366 10.887L7.5714 11.0703C7.33628 11.2411 7.01994 11.0113 7.10975 10.7349L7.2061 10.4384C7.24627 10.3148 7.20227 10.1793 7.09712 10.1029L6.84486 9.91967C6.60974 9.74885 6.73058 9.37696 7.02119 9.37696H7.33301C7.46298 9.37696 7.57816 9.29327 7.61833 9.16967L7.71468 8.87311Z" fill="#16A34A"/>
</g>
<defs>
<clipPath id="clip0_1_15262">
<rect x="18.0049" y="17.995" width="16" height="16" rx="8" transform="rotate(180 18.0049 17.995)" fill="white"/>
</clipPath>
</defs>
</svg>
