<svg width="20" height="20" viewBox="0 0 20 20" fill="none" xmlns="http://www.w3.org/2000/svg">
<g clip-path="url(#clip0_1_15207)">
<rect x="2" y="2.00003" width="16" height="16" fill="#EA580C"/>
<circle cx="10" cy="10" r="5" transform="rotate(90 10 10)" fill="#F5F5F5"/>
<path fill-rule="evenodd" clip-rule="evenodd" d="M8.16863 9.97252C8.16863 11.6835 9.55569 13.0706 11.2667 13.0706C11.5763 13.0706 11.88 13.563 11.5949 13.6836C11.1131 13.8873 10.5835 14 10.0275 14C7.80318 14 6.00001 12.1968 6.00001 9.9725C6.00001 7.74818 7.80318 5.94501 10.0275 5.94501C10.5835 5.94501 11.1131 6.05766 11.5949 6.26139C11.8801 6.38198 11.5763 6.87445 11.2667 6.87445C9.55569 6.87445 8.16863 8.26151 8.16863 9.97252Z" fill="#EA580C"/>
<path d="M9.87812 10.2853C9.60172 10.1955 9.60172 9.80449 9.87812 9.71468L10.8657 9.39381C10.9893 9.35365 11.0729 9.23846 11.0729 9.1085L11.0729 8.07014C11.0729 7.77952 11.4448 7.65869 11.6157 7.8938L12.226 8.73385C12.3024 8.839 12.4378 8.88299 12.5614 8.84283L13.5489 8.52196C13.8253 8.43216 14.0552 8.7485 13.8843 8.98361L13.274 9.82366C13.1976 9.92881 13.1976 10.0712 13.274 10.1763L13.8843 11.0164C14.0552 11.2515 13.8253 11.5678 13.5489 11.478L12.5614 11.1572C12.4378 11.117 12.3024 11.161 12.226 11.2661L11.6157 12.1062C11.4448 12.3413 11.0729 12.2205 11.0729 11.9299L11.0729 10.8915C11.0729 10.7615 10.9893 10.6464 10.8657 10.6062L9.87812 10.2853Z" fill="#EA580C"/>
</g>
<defs>
<clipPath id="clip0_1_15207">
<rect x="2" y="2" width="16" height="16" rx="8" fill="white"/>
</clipPath>
</defs>
</svg>
