<svg width="20" height="20" viewBox="0 0 20 20" fill="none" xmlns="http://www.w3.org/2000/svg">
<rect x="2" y="2" width="16" height="16" rx="8" fill="#16A34A"/>
<path fill-rule="evenodd" clip-rule="evenodd" d="M10 11.5C11.5188 11.5 12.75 10.2688 12.75 8.75C12.75 8.57739 12.9972 8.47934 13.0561 8.6416C13.1816 8.9875 13.25 9.36076 13.25 9.74999C13.25 11.5449 11.7949 13 10 13C8.20507 13 6.75 11.5449 6.75 9.74999C6.75 9.36076 6.81843 8.9875 6.9439 8.6416C7.00277 8.47934 7.25 8.57739 7.25 8.75C7.25 10.2688 8.48122 11.5 10 11.5Z" fill="#F5F5F5"/>
<path d="M7.5 15.75L7.94202 15.4848C9.20875 14.7248 10.7913 14.7248 12.058 15.4848L12.5 15.75" stroke="#F5F5F5" stroke-width="1.25" stroke-linecap="round"/>
<path d="M12 5C13.7659 5.77156 15 7.53364 15 9.58396C15 12.3454 12.7614 14.584 10 14.584C7.23858 14.584 5 12.3454 5 9.58396C5 7.53364 6.2341 5.77156 8 5" stroke="#F5F5F5" stroke-linecap="round"/>
<path d="M11 9L9 9" stroke="#F5F5F5" stroke-linecap="round"/>
<path d="M8.5 7.5L11.5 7.5" stroke="#F5F5F5" stroke-linecap="round"/>
</svg>
