<svg width="20" height="20" viewBox="0 0 20 20" fill="none" xmlns="http://www.w3.org/2000/svg">
<g clip-path="url(#clip0_1_15173)">
<rect x="2" y="2.00003" width="16" height="16" fill="#EA580C"/>
<path fill-rule="evenodd" clip-rule="evenodd" d="M9.00001 10C9.00001 10.8284 9.67158 11.5 10.5 11.5C10.6478 11.5 10.7622 11.7068 10.631 11.7751C10.3551 11.9188 10.0414 12 9.70873 12C8.60416 12 7.70873 11.1046 7.70873 10C7.70873 8.89543 8.60416 8 9.70873 8C10.0414 8 10.3551 8.08121 10.631 8.22489C10.7622 8.29316 10.6478 8.5 10.5 8.5C9.67158 8.5 9.00001 9.17157 9.00001 10Z" fill="#F5F5F5"/>
<rect x="2" y="2" width="16" height="5" fill="#0EA5E9"/>
<rect x="2" y="13" width="16" height="5" fill="#16A34A"/>
<path d="M11.7186 9.26035C11.8153 8.99917 12.1847 8.99917 12.2814 9.26035L12.3573 9.46549C12.3876 9.54761 12.4524 9.61235 12.5345 9.64274L12.7396 9.71864C13.0008 9.81529 13.0008 10.1847 12.7396 10.2814L12.5345 10.3573C12.4524 10.3876 12.3876 10.4524 12.3573 10.5345L12.2814 10.7396C12.1847 11.0008 11.8153 11.0008 11.7186 10.7396L11.6427 10.5345C11.6124 10.4524 11.5476 10.3876 11.4655 10.3573L11.2604 10.2814C10.9992 10.1847 10.9992 9.81529 11.2604 9.71864L11.4655 9.64274C11.5476 9.61235 11.6124 9.54761 11.6427 9.46549L11.7186 9.26035Z" fill="#F5F5F5"/>
<path d="M12.3241 9.27804C12.5771 9.16169 12.8383 9.42291 12.722 9.67594L12.6306 9.87467C12.594 9.95422 12.594 10.0458 12.6306 10.1253L12.722 10.3241C12.8383 10.5771 12.5771 10.8383 12.3241 10.722L12.1253 10.6306C12.0458 10.594 11.9542 10.594 11.8747 10.6306L11.6759 10.722C11.4229 10.8383 11.1617 10.5771 11.278 10.3241L11.3694 10.1253C11.406 10.0458 11.406 9.95422 11.3694 9.87467L11.278 9.67594C11.1617 9.42291 11.4229 9.16169 11.6759 9.27804L11.8747 9.36942C11.9542 9.406 12.0458 9.406 12.1253 9.36942L12.3241 9.27804Z" fill="#F5F5F5"/>
</g>
<defs>
<clipPath id="clip0_1_15173">
<rect x="2" y="2" width="16" height="16" rx="8" fill="white"/>
</clipPath>
</defs>
</svg>
