<svg width="20" height="20" viewBox="0 0 20 20" fill="none" xmlns="http://www.w3.org/2000/svg">
<g clip-path="url(#clip0_1_14629)">
<rect x="18.0049" y="1.995" width="16" height="16" rx="8" transform="rotate(90 18.0049 1.995)" fill="#EA580C"/>
<path d="M10 9.99999L10 20.6667L6 20L10 9.99999Z" fill="#1E40AF"/>
<path d="M10 9.99998V-0.666687L14 -2.03252e-05L10 9.99998Z" fill="#1E40AF"/>
<path d="M9.99998 9.99997L-0.666687 9.99997L-1.98006e-05 5.99997L9.99998 9.99997Z" fill="#1E40AF"/>
<path d="M9.99996 9.99997L20.6666 9.99997L20 14L9.99996 9.99997Z" fill="#1E40AF"/>
<path d="M9.99999 9.99998L2.45752 17.5424L0.100497 14.2426L9.99999 9.99998Z" fill="#1E40AF"/>
<path d="M9.99995 9.99999L17.5424 2.45752L19.8994 5.75735L9.99995 9.99999Z" fill="#1E40AF"/>
<path d="M9.99993 9.99999L2.45746 2.45752L5.75729 0.100498L9.99993 9.99999Z" fill="#1E40AF"/>
<path d="M9.99995 9.99998L17.5424 17.5424L14.2426 19.8995L9.99995 9.99998Z" fill="#1E40AF"/>
<circle cx="10.0049" cy="9.995" r="2.5" fill="#FACC15"/>
<path d="M19.3714 13.7486L10.3811 10.1525C10.1369 10.0548 9.86408 10.0572 9.62168 10.1593L1.11194 13.7423C0.741129 13.8985 0.5 14.2616 0.5 14.664V17C0.5 17.5523 0.947715 18 1.5 18H19C19.5523 18 20 17.5523 20 17V14.677C20 14.2681 19.7511 13.9004 19.3714 13.7486Z" fill="#F5F5F5"/>
<path d="M10.8689 11.3689L10.2121 10.7121C10.095 10.595 9.90502 10.595 9.78786 10.7121L9.1311 11.3689C9.05075 11.4492 9.0227 11.5681 9.05863 11.6759L9.43162 12.7949C9.47246 12.9174 9.5871 13 9.71623 13H10.2838C10.4129 13 10.5275 12.9174 10.5684 12.7949L10.9414 11.6759C10.9773 11.5681 10.9492 11.4492 10.8689 11.3689Z" fill="#EA580C"/>
<path d="M11.5 12.995C11.5 12.7189 11.7239 12.495 12 12.495H12.3138C12.6515 12.495 12.8901 12.8257 12.7836 13.1462C12.6606 13.5165 12.9944 13.877 13.3731 13.7828L14.1355 13.5931C14.3253 13.5459 14.5088 13.6901 14.5079 13.8857L14.5061 14.2471C14.5054 14.3932 14.3995 14.5175 14.2554 14.5415L12.6641 14.8063C12.0547 14.9077 11.5 14.4377 11.5 13.8199V12.995Z" fill="#15803D"/>
<path d="M14.5049 15.495V13.495C14.5049 13.2189 14.7287 12.995 15.0049 12.995V12.995C15.281 12.995 15.5049 13.2189 15.5049 13.495V13.495M12.5049 14.495L11.5049 15.495M12.0049 13.995L11.0049 13.495" stroke="#15803D" stroke-width="0.75" stroke-linecap="round"/>
<path d="M8.50977 12.995C8.50977 12.7189 8.28591 12.495 8.00977 12.495L7.69444 12.495C7.3566 12.495 7.11719 12.8248 7.22182 13.146C7.34283 13.5175 7.00768 13.8769 6.62865 13.7822L5.87464 13.5937C5.68471 13.5462 5.50093 13.6904 5.50189 13.8862L5.50365 14.2471C5.50436 14.3932 5.61026 14.5175 5.7544 14.5415L7.34563 14.8063C7.95508 14.9077 8.50977 14.4377 8.50977 13.8199L8.50977 12.995Z" fill="#15803D"/>
<path d="M5.50488 15.495L5.50488 13.495C5.50488 13.2189 5.28103 12.995 5.00488 12.995V12.995C4.72874 12.995 4.50488 13.2189 4.50488 13.495V13.495M7.50488 14.495L8.50488 15.495M8.00488 13.995L9.00488 13.495" stroke="#15803D" stroke-width="0.75" stroke-linecap="round"/>
</g>
<defs>
<clipPath id="clip0_1_14629">
<rect x="18.0049" y="1.995" width="16" height="16" rx="8" transform="rotate(90 18.0049 1.995)" fill="white"/>
</clipPath>
</defs>
</svg>
