<svg width="20" height="20" viewBox="0 0 20 20" fill="none" xmlns="http://www.w3.org/2000/svg">
<g clip-path="url(#clip0_1_13963)">
<path d="M17.9999 17.9999L1.99994 17.9999L1.99994 1.99994L17.9999 1.99994L17.9999 17.9999Z" fill="#1E40AF"/>
<path d="M12.4393 15.4393L-1 2H15V14.3787C15 15.715 13.3843 16.3843 12.4393 15.4393Z" fill="#FACC15"/>
<path d="M3.22755 7.83853C3.3133 7.57459 3.6867 7.57459 3.77245 7.83853C3.81081 7.95656 3.9208 8.03647 4.04491 8.03647C4.32242 8.03647 4.43781 8.39159 4.21329 8.55471C4.11289 8.62766 4.07087 8.75697 4.10922 8.875C4.19498 9.13893 3.8929 9.35841 3.66839 9.19529C3.56798 9.12234 3.43202 9.12234 3.33161 9.19529C3.1071 9.35841 2.80502 9.13893 2.89078 8.875C2.92913 8.75697 2.88711 8.62766 2.78671 8.55471C2.56219 8.39159 2.67758 8.03647 2.95509 8.03647C3.0792 8.03647 3.18919 7.95656 3.22755 7.83853Z" fill="#F5F5F5"/>
<path d="M5.22755 9.83853C5.3133 9.57459 5.6867 9.57459 5.77245 9.83853C5.81081 9.95656 5.9208 10.0365 6.04491 10.0365C6.32242 10.0365 6.43781 10.3916 6.21329 10.5547C6.11289 10.6277 6.07087 10.757 6.10922 10.875C6.19498 11.1389 5.8929 11.3584 5.66839 11.1953C5.56798 11.1223 5.43202 11.1223 5.33161 11.1953C5.1071 11.3584 4.80502 11.1389 4.89078 10.875C4.92913 10.757 4.88711 10.6277 4.78671 10.5547C4.56219 10.3916 4.67758 10.0365 4.95509 10.0365C5.0792 10.0365 5.18919 9.95656 5.22755 9.83853Z" fill="#F5F5F5"/>
<path d="M7.22755 11.8385C7.3133 11.5746 7.6867 11.5746 7.77245 11.8385C7.81081 11.9566 7.9208 12.0365 8.04491 12.0365C8.32242 12.0365 8.43781 12.3916 8.21329 12.5547C8.11289 12.6277 8.07087 12.757 8.10922 12.875C8.19498 13.1389 7.8929 13.3584 7.66839 13.1953C7.56798 13.1223 7.43202 13.1223 7.33161 13.1953C7.1071 13.3584 6.80502 13.1389 6.89078 12.875C6.92913 12.757 6.88711 12.6277 6.78671 12.5547C6.56219 12.3916 6.67758 12.0365 6.95509 12.0365C7.0792 12.0365 7.18919 11.9566 7.22755 11.8385Z" fill="#F5F5F5"/>
<path d="M9.22755 13.8385C9.3133 13.5746 9.6867 13.5746 9.77245 13.8385C9.81081 13.9566 9.9208 14.0365 10.0449 14.0365C10.3224 14.0365 10.4378 14.3916 10.2133 14.5547C10.1129 14.6277 10.0709 14.757 10.1092 14.875C10.195 15.1389 9.8929 15.3584 9.66839 15.1953C9.56798 15.1223 9.43202 15.1223 9.33161 15.1953C9.1071 15.3584 8.80502 15.1389 8.89078 14.875C8.92913 14.757 8.88711 14.6277 8.78671 14.5547C8.56219 14.3916 8.67758 14.0365 8.95509 14.0365C9.0792 14.0365 9.18919 13.9566 9.22755 13.8385Z" fill="#F5F5F5"/>
<path d="M11.2275 15.8385C11.3133 15.5746 11.6867 15.5746 11.7725 15.8385C11.8108 15.9566 11.9208 16.0365 12.0449 16.0365C12.3224 16.0365 12.4378 16.3916 12.2133 16.5547C12.1129 16.6277 12.0709 16.757 12.1092 16.875C12.195 17.1389 11.8929 17.3584 11.6684 17.1953C11.568 17.1223 11.432 17.1223 11.3316 17.1953C11.1071 17.3584 10.805 17.1389 10.8908 16.875C10.9291 16.757 10.8871 16.6277 10.7867 16.5547C10.5622 16.3916 10.6776 16.0365 10.9551 16.0365C11.0792 16.0365 11.1892 15.9566 11.2275 15.8385Z" fill="#F5F5F5"/>
</g>
<defs>
<clipPath id="clip0_1_13963">
<rect x="2.00488" y="1.995" width="16" height="16" rx="8" fill="white"/>
</clipPath>
</defs>
</svg>
