<svg width="20" height="20" viewBox="0 0 20 20" fill="none" xmlns="http://www.w3.org/2000/svg">
<g clip-path="url(#clip0_1_13948)">
<rect x="2" y="2" width="16" height="16" fill="#C2410C"/>
<path d="M10 12L10 15" stroke="#FACC15" stroke-width="0.75" stroke-linecap="round"/>
<path d="M9.52264 9.41135L7.89409 9.1089C7.55422 9.04578 7.30769 8.74926 7.30769 8.40358C7.30769 8.15571 7.17973 7.9254 6.96927 7.79446L6.5 7.5025C5.9977 7.19 5.69231 6.64033 5.69231 6.04875V6C5.69231 5.8233 5.44371 5.78487 5.39035 5.95332L4.7057 8.11485C3.9451 10.5162 6.06044 12.8442 8.52344 12.3164L9.87204 12.0274C9.95632 12.0094 10.0435 12.01 10.1275 12.0294L11.1856 12.2736C13.5621 12.822 15.6492 10.6074 14.961 8.26752L14.2822 5.95937C14.2352 5.79978 14 5.83366 14 6V6.09722C14 6.66141 13.7187 7.18846 13.25 7.5025L12.8259 7.78662C12.6222 7.9231 12.5 8.15215 12.5 8.39734C12.5 8.74776 12.2527 9.04947 11.909 9.11819L10.4761 9.40478C10.1616 9.46768 9.83797 9.46991 9.52264 9.41135Z" fill="#FACC15"/>
<path d="M13 14V14C12.1839 14 11.4086 13.6434 10.8776 13.0238L10 12" stroke="#FACC15" stroke-width="0.75" stroke-linecap="round"/>
<path d="M7 14V14C7.81606 14 8.59137 13.6434 9.12245 13.0238L10 12" stroke="#FACC15" stroke-width="0.75" stroke-linecap="round"/>
<path d="M8 6.495L8.28305 6.49641C8.71163 6.49856 9.09119 6.77358 9.22672 7.18017L10 9.5" stroke="#FACC15" stroke-linecap="round"/>
<path d="M12 6.495L11.717 6.49641C11.2884 6.49856 10.9088 6.77358 10.7733 7.18017L10 9.5" stroke="#FACC15" stroke-linecap="round"/>
<path d="M10.8449 5.375C10.7882 5.45054 10.6993 5.495 10.6049 5.495L9.40488 5.49499C9.31046 5.49499 9.22154 5.45054 9.16488 5.375L8.86488 4.975C8.71655 4.77722 8.85767 4.495 9.10488 4.495L10.9049 4.495C11.1521 4.495 11.2932 4.77722 11.1449 4.975L10.8449 5.375Z" fill="#FACC15"/>
<rect width="1.73205" height="1.73205" rx="0.5" transform="matrix(0.57735 -0.816497 0.57735 0.816497 9 14.915)" fill="#FACC15"/>
<path d="M8.37988 11V8.375H11.6299V11C11.6299 11.8975 10.9023 12.625 10.0049 12.625C9.10742 12.625 8.37988 11.8975 8.37988 11Z" fill="#0284C7" stroke="#FACC15" stroke-width="0.75"/>
<path d="M8.37988 11V10.375H11.6299V11C11.6299 11.8975 10.9023 12.625 10.0049 12.625C9.10742 12.625 8.37988 11.8975 8.37988 11Z" fill="#16A34A" stroke="#FACC15" stroke-width="0.75"/>
<circle cx="10" cy="10" r="7.5" stroke="#FACC15"/>
</g>
<defs>
<clipPath id="clip0_1_13948">
<rect x="18.0049" y="17.995" width="16" height="16" rx="8" transform="rotate(180 18.0049 17.995)" fill="white"/>
</clipPath>
</defs>
</svg>
