<svg width="20" height="20" viewBox="0 0 20 20" fill="none" xmlns="http://www.w3.org/2000/svg">
<g clip-path="url(#clip0_1_14623)">
<rect x="18" y="18" width="16" height="16" transform="rotate(180 18 18)" fill="#FACC15"/>
<path d="M17.5099 17.4999L3.217 17.4999L17.5099 3.2071L17.5099 17.4999Z" fill="#F97316" stroke="#F97316"/>
<path d="M11.3179 8.36264L10.8642 6.77472C10.6817 6.1359 11.1614 5.5 11.8257 5.5H14.7C14.8657 5.5 15 5.63431 15 5.8V6.7C15 6.86569 14.8657 7 14.7 7H12.9329C12.7234 7 12.5785 7.20921 12.652 7.40534L13.4352 9.49377C13.6954 10.1877 13.1368 10.9137 12.3993 10.8399L9.90226 10.5902C9.39031 10.539 8.92307 10.8846 8.82217 11.3891L8.54062 12.7969C8.51461 12.9269 8.43801 13.0413 8.32768 13.1149L5.9414 14.7057C5.63184 14.9121 5.29777 14.482 5.5743 14.2331L7.33448 12.649C7.43984 12.5541 7.5 12.4191 7.5 12.2773V10C7.5 9.44772 7.94772 9 8.5 9H10.8371C11.1693 9 11.4092 8.68205 11.3179 8.36264Z" fill="#F5F5F5"/>
<path d="M13 9.5L13 10.5C13 10.7761 13.2239 11 13.5 11H14.5M8 12.5L8.46267 13.888C8.48722 13.9617 8.52858 14.0286 8.58346 14.0835L9 14.5M13 8.5L14.3035 8.93451C14.4293 8.97644 14.5666 8.96668 14.6852 8.90738L15.5 8.5M8 12L9.5 12.5" stroke="#F5F5F5" stroke-width="0.75" stroke-linecap="round"/>
</g>
<defs>
<clipPath id="clip0_1_14623">
<rect x="2" y="2" width="16" height="16" rx="8" fill="white"/>
</clipPath>
</defs>
</svg>
