<svg width="20" height="20" viewBox="0 0 20 20" fill="none" xmlns="http://www.w3.org/2000/svg">
<g clip-path="url(#clip0_1_14535)">
<rect x="2" y="2" width="16" height="16" fill="#F5F5F5"/>
<rect x="2" y="2" width="16" height="8" fill="#0369A1"/>
<path d="M9.56588 3.75974L6.15332 9.7317C6.05935 9.89613 6.06636 10.0995 6.17141 10.2571L9.58397 15.376C9.78189 15.6728 10.2181 15.6728 10.416 15.376L13.8286 10.2571C13.9336 10.0995 13.9406 9.89613 13.8467 9.7317L10.4341 3.75974C10.2422 3.42383 9.75783 3.42383 9.56588 3.75974Z" fill="#0369A1"/>
<path d="M9.58398 4.62406L6.31418 9.52873C6.14735 9.77897 6.2376 10.1188 6.5066 10.2533L9.77639 11.8882C9.91716 11.9586 10.0828 11.9586 10.2236 11.8882L13.4934 10.2533C13.7624 10.1188 13.8526 9.77897 13.6858 9.52873L10.416 4.62406C10.2181 4.3272 9.78189 4.3272 9.58398 4.62406Z" fill="#F5F5F5"/>
</g>
<defs>
<clipPath id="clip0_1_14535">
<rect x="18.0049" y="17.995" width="16" height="16" rx="8" transform="rotate(180 18.0049 17.995)" fill="white"/>
</clipPath>
</defs>
</svg>
