<svg width="20" height="20" viewBox="0 0 20 20" fill="none" xmlns="http://www.w3.org/2000/svg">
<g clip-path="url(#clip0_1_14245)">
<rect x="2.00977" y="1.98999" width="16" height="16" fill="#262626"/>
<path d="M13.1268 8.71468C13.4032 8.80449 13.4032 9.19551 13.1268 9.28532L11.4482 9.8307C11.3246 9.87086 11.2409 9.98605 11.2409 10.116L11.2409 11.8809C11.2409 12.1715 10.8691 12.2924 10.6982 12.0573L9.66086 10.6294C9.58447 10.5243 9.44906 10.4803 9.32545 10.5204L7.64693 11.0658C7.37053 11.1556 7.1407 10.8393 7.31152 10.6042L8.3489 9.17633C8.4253 9.07119 8.4253 8.92881 8.3489 8.82366L7.31152 7.39583C7.1407 7.16071 7.37054 6.84437 7.64693 6.93417L9.32545 7.47956C9.44906 7.51972 9.58447 7.47572 9.66086 7.37058L10.6982 5.94274C10.8691 5.70763 11.241 5.82846 11.241 6.11908L11.241 7.88398C11.241 8.01395 11.3246 8.12914 11.4482 8.1693L13.1268 8.71468Z" fill="#FACC15"/>
<path d="M6.883 9.28532C6.60661 9.19551 6.60661 8.80449 6.883 8.71468L8.56152 8.1693C8.68513 8.12914 8.76882 8.01395 8.76882 7.88398L8.76882 6.11908C8.76882 5.82846 9.1407 5.70763 9.31152 5.94274L10.3489 7.37058C10.4253 7.47573 10.5607 7.51972 10.6843 7.47956L12.3628 6.93418C12.6392 6.84437 12.8691 7.16072 12.6982 7.39583L11.6609 8.82367C11.5845 8.92881 11.5845 9.07119 11.6609 9.17634L12.6982 10.6042C12.8691 10.8393 12.6392 11.1556 12.3628 11.0658L10.6843 10.5204C10.5607 10.4803 10.4253 10.5243 10.3489 10.6294L9.31152 12.0573C9.1407 12.2924 8.76881 12.1715 8.76881 11.8809L8.76882 10.116C8.76882 9.98605 8.68513 9.87086 8.56152 9.8307L6.883 9.28532Z" fill="#FACC15"/>
<rect x="2" y="10" width="16" height="8" fill="#F5F5F5"/>
<path d="M2 9H18V12H2V9Z" fill="#0284C7"/>
<path d="M18 17.5V5.76652C18 5.26236 17.3384 5.0751 17.0742 5.50447L10.4258 16.308C10.2306 16.6253 9.76941 16.6253 9.57417 16.308L2.92583 5.50447C2.6616 5.0751 2 5.26236 2 5.76652V17.5C2 17.7761 2.22386 18 2.5 18H17.5C17.7761 18 18 17.7761 18 17.5Z" fill="#C2410C"/>
</g>
<defs>
<clipPath id="clip0_1_14245">
<rect x="18.0049" y="1.995" width="16" height="16" rx="8" transform="rotate(90 18.0049 1.995)" fill="white"/>
</clipPath>
</defs>
</svg>
