<svg width="20" height="20" viewBox="0 0 20 20" fill="none" xmlns="http://www.w3.org/2000/svg">
<g clip-path="url(#clip0_1_14109)">
<rect x="2" y="2" width="16" height="16" fill="#1E40AF"/>
<rect x="2" y="2" width="16" height="2" fill="#C2410C"/>
<rect x="2" y="16" width="16" height="2" fill="#C2410C"/>
<circle cx="10" cy="10" r="5" fill="#F5F5F5"/>
<circle cx="10" cy="10" r="4" stroke="#16A34A" stroke-width="0.75"/>
<path d="M9.375 9.375H10.625V10.5C10.625 10.8452 10.3452 11.125 10 11.125C9.65482 11.125 9.375 10.8452 9.375 10.5V9.375Z" stroke="#D4D4D4" stroke-width="0.75" stroke-linejoin="round"/>
<path d="M8 8.5V10" stroke="#A16207" stroke-width="0.75" stroke-linecap="round"/>
<path d="M8 11V10" stroke="#D4D4D4" stroke-width="0.75" stroke-linecap="round"/>
<path d="M12 8.5V10" stroke="#854D0E" stroke-width="0.75" stroke-linecap="round"/>
<path d="M12 11V10" stroke="#D4D4D4" stroke-width="0.75" stroke-linecap="round"/>
<circle cx="9.00488" cy="7.995" r="0.5" fill="#16A34A"/>
<circle cx="11.0049" cy="7.995" r="0.5" fill="#16A34A"/>
<circle cx="10.0049" cy="7.495" r="0.5" fill="#16A34A"/>
<path d="M11.6589 12.25C11.1838 12.5659 10.6134 12.75 10 12.75C9.38665 12.75 8.81628 12.5659 8.34113 12.25" stroke="#FACC15" stroke-width="0.75" stroke-linecap="round"/>
</g>
<defs>
<clipPath id="clip0_1_14109">
<rect x="18.0049" y="17.995" width="16" height="16" rx="8" transform="rotate(180 18.0049 17.995)" fill="white"/>
</clipPath>
</defs>
</svg>
