<svg width="20" height="20" viewBox="0 0 20 20" fill="none" xmlns="http://www.w3.org/2000/svg">
<g clip-path="url(#clip0_1_14987)">
<rect x="18.0098" y="17.99" width="16" height="16" transform="rotate(180 18.0098 17.99)" fill="#16A34A"/>
<path d="M2 2L18 18H2V2Z" fill="#1E40AF"/>
<ellipse cx="6.00488" cy="11.995" rx="0.5" ry="0.5" transform="rotate(90 6.00488 11.995)" fill="#F5F5F5"/>
<ellipse cx="5.50977" cy="9.5" rx="0.5" ry="0.5" transform="rotate(90 5.50977 9.5)" fill="#F5F5F5"/>
<ellipse cx="7.00488" cy="10.995" rx="0.5" ry="0.5" transform="rotate(90 7.00488 10.995)" fill="#F5F5F5"/>
<ellipse cx="4.00488" cy="11.5" rx="0.5" ry="0.5" transform="rotate(90 4.00488 11.5)" fill="#F5F5F5"/>
<ellipse cx="6.00488" cy="14.5" rx="0.5" ry="0.5" transform="rotate(90 6.00488 14.5)" fill="#F5F5F5"/>
<path d="M12.4805 8.32032L12.3901 8.26006C12.2233 8.1489 12 8.26842 12 8.46882C12 8.48878 12.008 8.50801 12.0221 8.52212C12.9122 9.41221 14.2586 9.67773 15.4171 9.18554L15.4615 9.16667L16.6513 8.84443C16.8571 8.7887 17 8.60196 17 8.38876C17 8.12803 16.7886 7.91667 16.5279 7.91667H16.3585C16.2811 7.91667 16.2112 7.87032 16.1811 7.79903L15.0629 5.14902C15.0248 5.05871 14.9363 5 14.8383 5C14.6718 5 14.5543 5.16303 14.607 5.3209L15.1788 7.03626C15.2733 7.31987 14.9402 7.55215 14.7067 7.36539L13.3242 6.25934C13.1935 6.15482 13 6.24784 13 6.41514C13 6.46936 13.0221 6.52125 13.0611 6.55886L14.7679 8.20244C14.9073 8.33668 14.8525 8.57116 14.668 8.62966C13.9297 8.86377 13.125 8.74997 12.4805 8.32032Z" fill="#FACC15"/>
<circle cx="10.0049" cy="9.995" r="1.5" fill="#FACC15"/>
<ellipse cx="10.0049" cy="9.995" rx="0.5" ry="0.5" transform="rotate(90 10.0049 9.995)" fill="#16A34A"/>
</g>
<defs>
<clipPath id="clip0_1_14987">
<rect x="2.00488" y="1.995" width="16" height="16" rx="8" fill="white"/>
</clipPath>
</defs>
</svg>
