<svg width="20" height="20" viewBox="0 0 20 20" fill="none" xmlns="http://www.w3.org/2000/svg">
<g clip-path="url(#clip0_1_14920)">
<rect x="18.0098" y="17.99" width="16" height="16" transform="rotate(180 18.0098 17.99)" fill="#06B6D4"/>
<path d="M9.71468 4.87811C9.80449 4.60172 10.1955 4.60172 10.2853 4.87812L10.3817 5.17467C10.4218 5.29828 10.537 5.38197 10.667 5.38197H10.9788C11.2694 5.38197 11.3903 5.75385 11.1551 5.92467L10.9029 6.10795C10.7977 6.18435 10.7537 6.31976 10.7939 6.44336L10.8903 6.73992C10.9801 7.01631 10.6637 7.24615 10.4286 7.07533L10.1763 6.89205C10.0712 6.81565 9.92881 6.81565 9.82366 6.89205L9.5714 7.07533C9.33628 7.24615 9.01994 7.01631 9.10975 6.73992L9.2061 6.44336C9.24627 6.31976 9.20227 6.18435 9.09712 6.10795L8.84486 5.92467C8.60974 5.75385 8.73058 5.38197 9.02119 5.38197H9.33301C9.46298 5.38197 9.57816 5.29828 9.61833 5.17467L9.71468 4.87811Z" fill="#F5F5F5"/>
<path d="M10.2853 15.1219C10.1955 15.3983 9.80449 15.3983 9.71468 15.1219L9.61833 14.8253C9.57816 14.7017 9.46298 14.618 9.33301 14.618L9.02119 14.618C8.73057 14.618 8.60974 14.2461 8.84486 14.0753L9.09712 13.892C9.20227 13.8157 9.24627 13.6802 9.2061 13.5566L9.10975 13.2601C9.01994 12.9837 9.33629 12.7539 9.5714 12.9247L9.82366 13.108C9.92881 13.1843 10.0712 13.1843 10.1763 13.108L10.4286 12.9247C10.6637 12.7539 10.9801 12.9837 10.8903 13.2601L10.7939 13.5566C10.7537 13.6802 10.7977 13.8157 10.9029 13.892L11.1551 14.0753C11.3903 14.2461 11.2694 14.618 10.9788 14.618L10.667 14.618C10.537 14.618 10.4218 14.7017 10.3817 14.8253L10.2853 15.1219Z" fill="#F5F5F5"/>
<path d="M15.1219 9.71468C15.3983 9.80449 15.3983 10.1955 15.1219 10.2853L14.8253 10.3817C14.7017 10.4218 14.618 10.537 14.618 10.667L14.618 10.9788C14.618 11.2694 14.2461 11.3903 14.0753 11.1551L13.892 10.9029C13.8157 10.7977 13.6802 10.7537 13.5566 10.7939L13.2601 10.8903C12.9837 10.9801 12.7539 10.6637 12.9247 10.4286L13.108 10.1763C13.1843 10.0712 13.1843 9.92881 13.108 9.82366L12.9247 9.5714C12.7539 9.33628 12.9837 9.01994 13.2601 9.10975L13.5566 9.2061C13.6802 9.24627 13.8157 9.20227 13.892 9.09712L14.0753 8.84486C14.2461 8.60974 14.618 8.73057 14.618 9.02119L14.618 9.33301C14.618 9.46298 14.7017 9.57816 14.8253 9.61833L15.1219 9.71468Z" fill="#F5F5F5"/>
<path d="M4.87811 10.2853C4.60172 10.1955 4.60172 9.80449 4.87812 9.71468L5.17467 9.61833C5.29828 9.57816 5.38197 9.46298 5.38197 9.33301L5.38197 9.02119C5.38197 8.73057 5.75385 8.60974 5.92467 8.84486L6.10795 9.09712C6.18435 9.20227 6.31976 9.24627 6.44336 9.2061L6.73992 9.10975C7.01631 9.01994 7.24615 9.33628 7.07533 9.5714L6.89205 9.82366C6.81565 9.92881 6.81565 10.0712 6.89205 10.1763L7.07533 10.4286C7.24615 10.6637 7.01631 10.9801 6.73992 10.8903L6.44336 10.7939C6.31976 10.7537 6.18435 10.7977 6.10795 10.9029L5.92467 11.1551C5.75385 11.3903 5.38197 11.2694 5.38197 10.9788L5.38197 10.667C5.38197 10.537 5.29828 10.4218 5.17467 10.3817L4.87811 10.2853Z" fill="#F5F5F5"/>
</g>
<defs>
<clipPath id="clip0_1_14920">
<rect x="2.00488" y="1.995" width="16" height="16" rx="8" fill="white"/>
</clipPath>
</defs>
</svg>
