<svg width="20" height="20" viewBox="0 0 20 20" fill="none" xmlns="http://www.w3.org/2000/svg">
<g clip-path="url(#clip0_1_14339)">
<path d="M18 17.9999V2.00002H2V17.9999H18Z" fill="#1E40AF"/>
<g clip-path="url(#clip1_1_14339)">
<rect width="8" height="8" transform="translate(2 2)" fill="#1E40AF"/>
<path d="M10 9.99994L2 2.00001M2 9.99994L10 2.00001" stroke="#F5F5F5" stroke-width="1.5"/>
<path d="M10 9.99994L2 2.00001M2 9.99994L10 2.00001" stroke="#C2410C" stroke-width="0.75"/>
<path d="M6 9.99994V2.00001M10 5.99997H2" stroke="#F5F5F5" stroke-width="2"/>
<path d="M6 9.99994V2.00001M10 5.99997H2" stroke="#C2410C"/>
</g>
<path d="M11.5007 9.3C11.5007 9.13431 11.635 9 11.8007 9L15.2007 9C15.3664 9 15.5007 9.13431 15.5007 9.3L15.5007 12C15.5007 13.1046 14.6053 14 13.5007 14C12.3962 14 11.5007 13.1046 11.5007 12L11.5007 9.3Z" fill="#60A5FA"/>
<mask id="mask0_1_14339" style="mask-type:alpha" maskUnits="userSpaceOnUse" x="11" y="9" width="5" height="5">
<path d="M11.5007 9.3C11.5007 9.13431 11.635 9 11.8007 9L15.2007 9C15.3664 9 15.5007 9.13431 15.5007 9.3L15.5007 12C15.5007 13.1046 14.6053 14 13.5007 14C12.3962 14 11.5007 13.1046 11.5007 12L11.5007 9.3Z" fill="#F9F8F7"/>
</mask>
<g mask="url(#mask0_1_14339)">
<path d="M15.5 14L14.8535 13.3536C14.6583 13.1583 14.3417 13.1583 14.1464 13.3536L13.8536 13.6464C13.6583 13.8417 13.3417 13.8417 13.1464 13.6464L12.8535 13.3536C12.6583 13.1583 12.3417 13.1583 12.1464 13.3536L11.5 14" stroke="#F5F5F5" stroke-width="0.5" stroke-linecap="round"/>
<path d="M15.5 13L14.8535 12.3536C14.6583 12.1583 14.3417 12.1583 14.1464 12.3536L13.8536 12.6464C13.6583 12.8417 13.3417 12.8417 13.1464 12.6464L12.8535 12.3536C12.6583 12.1583 12.3417 12.1583 12.1464 12.3536L11.5 13" stroke="#F5F5F5" stroke-width="0.5" stroke-linecap="round"/>
<path d="M16.5 11L15.8536 11.6464C15.6583 11.8417 15.3417 11.8417 15.1464 11.6464L14.8535 11.3536C14.6583 11.1583 14.3417 11.1583 14.1464 11.3536L13.8536 11.6464C13.6583 11.8417 13.3417 11.8417 13.1464 11.6464L12.8535 11.3536C12.6583 11.1583 12.3417 11.1583 12.1464 11.3536L11.8536 11.6464C11.6583 11.8417 11.3417 11.8417 11.1464 11.6464L10.5 11" stroke="#F5F5F5" stroke-width="0.5" stroke-linecap="round"/>
</g>
<path d="M12.5 10C14.1 10 14.5 10 14.5 10" stroke="#F5F5F5" stroke-linecap="round"/>
<path d="M16.33 13C15.9182 14.1652 14.807 15 13.5007 15C12.1945 15 11.0833 14.1652 10.6714 13" stroke="#FACC15" stroke-width="0.75" stroke-linecap="round"/>
</g>
<defs>
<clipPath id="clip0_1_14339">
<rect x="2" y="2" width="16" height="16" rx="8" fill="white"/>
</clipPath>
<clipPath id="clip1_1_14339">
<rect width="8" height="8" fill="white" transform="translate(2 2)"/>
</clipPath>
</defs>
</svg>
