<svg width="20" height="20" viewBox="0 0 20 20" fill="none" xmlns="http://www.w3.org/2000/svg">
<g clip-path="url(#clip0_1_14200)">
<rect x="18" y="18" width="16" height="16" transform="rotate(-180 18 18)" fill="#C2410C"/>
<rect x="5" y="15" width="10" height="10" rx="2" transform="rotate(-90 5 15)" fill="#FACC15"/>
<path fill-rule="evenodd" clip-rule="evenodd" d="M5.58578 5.58582L10 10L5.58578 14.4142C5.22386 14.0523 5 13.5523 5 13L5 7.00003C5 6.44774 5.22386 5.94774 5.58578 5.58582Z" fill="#16A34A"/>
<path fill-rule="evenodd" clip-rule="evenodd" d="M14.4142 14.4142L10 10L14.4142 5.58582C14.7761 5.94774 15 6.44774 15 7.00001L15 13C15 13.5523 14.7761 14.0523 14.4142 14.4142Z" fill="#16A34A"/>
<circle cx="8.00488" cy="3.5" r="0.5" fill="#FACC15"/>
<circle cx="6.5" cy="9.995" r="0.5" fill="#FACC15"/>
<circle cx="10.0049" cy="3.5" r="0.5" fill="#FACC15"/>
<circle cx="12.0049" cy="3.5" r="0.5" fill="#FACC15"/>
<circle cx="8.00488" cy="16.5" r="0.5" fill="#FACC15"/>
<circle cx="10.0049" cy="16.5" r="0.5" fill="#FACC15"/>
<circle cx="12.0049" cy="16.5" r="0.5" fill="#FACC15"/>
<circle cx="10" cy="10" r="2" fill="#C2410C"/>
<path d="M9.71468 8.87811C9.80449 8.60172 10.1955 8.60172 10.2853 8.87812L10.3817 9.17467C10.4218 9.29828 10.537 9.38197 10.667 9.38197H10.9788C11.2694 9.38197 11.3903 9.75385 11.1551 9.92467L10.9029 10.108C10.7977 10.1843 10.7537 10.3198 10.7939 10.4434L10.8903 10.7399C10.9801 11.0163 10.6637 11.2461 10.4286 11.0753L10.1763 10.892C10.0712 10.8157 9.92881 10.8157 9.82366 10.892L9.5714 11.0753C9.33628 11.2462 9.01994 11.0163 9.10975 10.7399L9.2061 10.4434C9.24627 10.3198 9.20227 10.1843 9.09712 10.108L8.84486 9.92467C8.60974 9.75385 8.73058 9.38197 9.02119 9.38197H9.33301C9.46298 9.38197 9.57816 9.29828 9.61833 9.17467L9.71468 8.87811Z" fill="#FACC15"/>
</g>
<defs>
<clipPath id="clip0_1_14200">
<rect x="2.00488" y="1.995" width="16" height="16" rx="8" fill="white"/>
</clipPath>
</defs>
</svg>
