<svg width="20" height="20" viewBox="0 0 20 20" fill="none" xmlns="http://www.w3.org/2000/svg">
<g clip-path="url(#clip0_1_13849)">
<rect x="18" y="18" width="16" height="16" transform="rotate(180 18 18)" fill="#F5F5F5"/>
<rect x="2" y="12" width="16" height="6" fill="#EA580C"/>
<path d="M9 4.5V7C9 7.27614 8.77614 7.5 8.5 7.5C8.22386 7.5 8 7.27614 8 7V5C8 4.72386 7.77614 4.5 7.5 4.5H6.5C6.22386 4.5 6 4.72386 6 5V7.25C6 7.38807 5.88807 7.5 5.75 7.5C5.61193 7.5 5.5 7.61193 5.5 7.75V11C5.5 11.2761 5.72386 11.5 6 11.5H14C14.2761 11.5 14.5 11.2761 14.5 11V7.75C14.5 7.61193 14.3881 7.5 14.25 7.5C14.1119 7.5 14 7.38807 14 7.25V5C14 4.72386 13.7761 4.5 13.5 4.5H12.5C12.2239 4.5 12 4.72386 12 5V7C12 7.27614 11.7761 7.5 11.5 7.5C11.2239 7.5 11 7.27614 11 7V4.5C11 4.22386 10.7761 4 10.5 4H9.5C9.22386 4 9 4.22386 9 4.5Z" fill="#EA580C"/>
<path d="M10 13.5V15.495M10 15.495V16.9C10 16.9552 9.95523 17 9.9 17H8.60488C8.54965 17 8.50488 16.9552 8.50488 16.9V15.595C8.50488 15.5398 8.54965 15.495 8.60488 15.495H10Z" stroke="#FACC15" stroke-width="0.75" stroke-linecap="round"/>
<rect x="10.0049" y="11.2147" width="1.75345" height="1.75345" rx="0.475" transform="rotate(45 10.0049 11.2147)" stroke="#FACC15" stroke-width="0.75"/>
</g>
<path d="M13.5 10.6C13.5 10.8209 13.3209 11 13.1 11L12.9 11C12.6791 11 12.5 10.8209 12.5 10.6L12.5 9.5C12.5 9.22386 12.7239 9 13 9C13.2761 9 13.5 9.22386 13.5 9.5L13.5 10.6Z" fill="#262626"/>
<path d="M13.5 7.2C13.5 7.36569 13.3657 7.5 13.2 7.5L12.8 7.5C12.6343 7.5 12.5 7.36569 12.5 7.2L12.5 6.5C12.5 6.22386 12.7239 6 13 6C13.2761 6 13.5 6.22386 13.5 6.5L13.5 7.2Z" fill="#262626"/>
<path d="M10.5 7.2C10.5 7.36569 10.3657 7.5 10.2 7.5L9.8 7.5C9.63431 7.5 9.5 7.36569 9.5 7.2L9.5 6.5C9.5 6.22386 9.72386 6 10 6C10.2761 6 10.5 6.22386 10.5 6.5L10.5 7.2Z" fill="#262626"/>
<path d="M7.5 10.6C7.5 10.8209 7.32091 11 7.1 11L6.9 11C6.67909 11 6.5 10.8209 6.5 10.6L6.5 9.5C6.5 9.22386 6.72386 9 7 9C7.27614 9 7.5 9.22386 7.5 9.5L7.5 10.6Z" fill="#262626"/>
<path d="M7.5 7.2C7.5 7.36569 7.36569 7.5 7.2 7.5L6.8 7.5C6.63431 7.5 6.5 7.36569 6.5 7.2L6.5 6.5C6.5 6.22386 6.72386 6 7 6C7.27614 6 7.5 6.22386 7.5 6.5L7.5 7.2Z" fill="#262626"/>
<path d="M11 10.6C11 10.8209 10.8209 11 10.6 11L9.4 11C9.17909 11 9 10.8209 9 10.6L9 10C9 9.44772 9.44772 9 10 9C10.5523 9 11 9.44772 11 10L11 10.6Z" fill="#262626"/>
<defs>
<clipPath id="clip0_1_13849">
<rect x="2.00488" y="17.995" width="16" height="16" rx="8" transform="rotate(-90 2.00488 17.995)" fill="white"/>
</clipPath>
</defs>
</svg>
