<svg width="20" height="20" viewBox="0 0 20 20" fill="none" xmlns="http://www.w3.org/2000/svg">
<g clip-path="url(#clip0_1_14929)">
<rect x="18" y="18" width="16" height="16" transform="rotate(-180 18 18)" fill="#EA580C"/>
<ellipse cx="10" cy="10" rx="7" ry="7" transform="rotate(-180 10 10)" fill="#1E40AF"/>
</g>
<path fill-rule="evenodd" clip-rule="evenodd" d="M10.4476 14.8959C10.1578 15.1002 9.77203 15.1002 9.48217 14.8959C7.93731 13.807 6.92979 12.0199 6.92979 10C6.92979 7.98008 7.93731 6.19302 9.48217 5.10408C9.77203 4.89977 10.1578 4.89977 10.4476 5.10408C11.9925 6.19302 13 7.98008 13 10C13 12.0199 11.9925 13.807 10.4476 14.8959Z" fill="#A5F3FC"/>
<path d="M12.5569 12H7.44311C7.23087 12 7.08574 12.2144 7.16457 12.4114L7.54022 13.3506C7.57756 13.4439 7.65916 13.5123 7.75758 13.5328L9.93881 13.9873C9.97917 13.9957 10.0208 13.9957 10.0612 13.9873L12.2424 13.5328C12.3408 13.5123 12.4224 13.4439 12.4598 13.3506L12.8354 12.4114C12.9143 12.2144 12.7691 12 12.5569 12Z" fill="#0284C7"/>
<path d="M10.2777 8.82087C10.176 9.06948 9.82397 9.06948 9.72232 8.82087L9.35389 7.91981C9.34362 7.8947 9.32999 7.87109 9.31338 7.84964L8.71725 7.08005C8.55277 6.86771 8.7288 6.56281 8.99494 6.59908L9.95949 6.73055C9.98637 6.73421 10.0136 6.73421 10.0405 6.73055L11.0051 6.59908C11.2712 6.56281 11.4472 6.86771 11.2827 7.08005L10.6866 7.84964C10.67 7.87109 10.6564 7.8947 10.6461 7.91981L10.2777 8.82087Z" fill="#16A34A"/>
<path d="M9.72232 6.17913C9.82397 5.93052 10.176 5.93052 10.2777 6.17913L10.6461 7.08019C10.6564 7.1053 10.67 7.12891 10.6866 7.15036L11.2827 7.91995C11.4472 8.13229 11.2712 8.43719 11.0051 8.40092L10.0405 8.26945C10.0136 8.26579 9.98637 8.26579 9.95949 8.26945L8.99494 8.40092C8.7288 8.43719 8.55277 8.13229 8.71725 7.91995L9.31338 7.15036C9.32999 7.12891 9.34362 7.1053 9.35389 7.08019L9.72232 6.17913Z" fill="#16A34A"/>
<path d="M11.9394 13H8.06056C7.82095 13 7.67803 13.267 7.81094 13.4664L8.70581 14.8087C8.73477 14.8522 8.77456 14.8873 8.82126 14.9106L9.86584 15.4329C9.95029 15.4751 10.0497 15.4751 10.1342 15.4329L11.1787 14.9106C11.2254 14.8873 11.2652 14.8522 11.2942 14.8087L12.1891 13.4664C12.322 13.267 12.1791 13 11.9394 13Z" fill="#FACC15"/>
<path d="M11 13V13C10.3491 12.0702 10 10.9626 10 9.82764V8.5" stroke="#CA8A04" stroke-width="0.75" stroke-linecap="round"/>
<path d="M8.5 10H11.5" stroke="#EA580C" stroke-linecap="round"/>
<mask id="path-11-outside-1_1_14929" maskUnits="userSpaceOnUse" x="6" y="4.04916" width="8" height="12" fill="black">
<rect fill="white" x="6" y="4.04916" width="8" height="12"/>
<path fill-rule="evenodd" clip-rule="evenodd" d="M10.4476 14.8959C10.1578 15.1002 9.77203 15.1002 9.48217 14.8959C7.93731 13.807 6.92979 12.0199 6.92979 10C6.92979 7.98008 7.93731 6.19302 9.48217 5.10408C9.77203 4.89977 10.1578 4.89977 10.4476 5.10408C11.9925 6.19302 13 7.98008 13 10C13 12.0199 11.9925 13.807 10.4476 14.8959Z"/>
</mask>
<path d="M9.48217 5.10408L9.77024 5.51276L9.48217 5.10408ZM10.4476 5.10408L10.7357 4.69541L10.4476 5.10408ZM9.77024 14.4873C8.35141 13.4872 7.42979 11.8491 7.42979 10L6.42979 10C6.42979 12.1907 7.52321 14.1268 9.19411 15.3046L9.77024 14.4873ZM7.42979 10C7.42979 8.15087 8.35141 6.51286 9.77024 5.51276L9.19411 4.69541C7.52321 5.87318 6.42979 7.8093 6.42979 10L7.42979 10ZM10.1595 5.51276C11.5784 6.51286 12.5 8.15087 12.5 10L13.5 10C13.5 7.80929 12.4066 5.87318 10.7357 4.69541L10.1595 5.51276ZM12.5 10C12.5 11.8491 11.5784 13.4872 10.1595 14.4873L10.7357 15.3046C12.4066 14.1268 13.5 12.1907 13.5 10L12.5 10ZM9.77024 5.51276C9.88735 5.43021 10.0424 5.43021 10.1595 5.51276L10.7357 4.69541C10.2731 4.36933 9.65671 4.36933 9.19411 4.69541L9.77024 5.51276ZM9.19411 15.3046C9.65671 15.6307 10.2731 15.6307 10.7357 15.3046L10.1595 14.4873C10.0424 14.5698 9.88735 14.5698 9.77024 14.4873L9.19411 15.3046Z" fill="#EA580C" mask="url(#path-11-outside-1_1_14929)"/>
<defs>
<clipPath id="clip0_1_14929">
<rect x="2.00488" y="1.995" width="16" height="16" rx="8" fill="white"/>
</clipPath>
</defs>
</svg>
