<svg width="20" height="20" viewBox="0 0 20 20" fill="none" xmlns="http://www.w3.org/2000/svg">
<g clip-path="url(#clip0_1_14395)">
<rect x="2" y="18" width="16" height="16" transform="rotate(-90 2 18)" fill="#16A34A"/>
<path d="M2.5559 17.3028C2.47279 17.3443 2.375 17.2839 2.375 17.191L2.375 2.80902C2.375 2.71609 2.47279 2.65566 2.5559 2.69721L16.9379 9.8882C17.03 9.93426 17.03 10.0657 16.9379 10.1118L2.5559 17.3028Z" fill="#FACC15" stroke="#F5F5F5" stroke-width="0.75"/>
<path d="M1.625 16.7929C1.625 17.5724 2.5675 17.9628 3.11872 17.4116L9.91161 10.6187C10.2533 10.277 10.2533 9.72299 9.91161 9.38128L3.11872 2.58839C2.5675 2.03717 1.625 2.42756 1.625 3.20711L1.625 16.7929Z" fill="#C2410C" stroke="#262626" stroke-width="0.75"/>
</g>
<defs>
<clipPath id="clip0_1_14395">
<rect x="2.00488" y="1.995" width="16" height="16" rx="8" fill="white"/>
</clipPath>
</defs>
</svg>
