<svg width="20" height="20" viewBox="0 0 20 20" fill="none" xmlns="http://www.w3.org/2000/svg">
<g clip-path="url(#clip0_1_13720)">
<rect x="2" y="2" width="16" height="16" rx="8" fill="#F5F5F5"/>
<rect x="18.0099" y="17.9999" width="16" height="8" transform="rotate(180 18.0099 17.9999)" fill="#16A34A"/>
<path d="M8 7.14039V8.5C8 8.77614 8.22386 9 8.5 9V7.41729C8.5 7.17565 8.67281 6.96858 8.91056 6.92535L13.2113 6.1434C13.4842 6.09378 13.6725 6.40936 13.4992 6.62597L12.0686 8.41425C12.0234 8.47074 11.9665 8.51676 11.9018 8.54911L11 9H13.1096C13.339 9 13.539 9.15615 13.5947 9.37873L13.9068 10.6272C13.9541 10.8166 13.8109 11 13.6158 11H12.0495C12.0166 11 11.9837 11.0033 11.9515 11.0097L8.19612 11.7608C7.57733 11.8845 7 11.4112 7 10.7802V8.3C7 8.13431 6.86569 8 6.7 8H6.3C6.13431 8 6 7.86569 6 7.7V7.23423C6 7.09657 6.09369 6.97658 6.22724 6.94319L7.37873 6.65532C7.69431 6.57642 8 6.8151 8 7.14039Z" fill="#C2410C"/>
<path d="M7.5 10.5L6.77735 10.9818C6.44507 11.2033 6 10.9651 6 10.5657V9M8.5 10.5L7.5 13M8 13H6.5M11 10.5L11.3702 11.2405C11.4505 11.401 11.4386 11.5921 11.339 11.7414L10.5 13M11 13H9.5M13.1482 9.34184L13.7298 11.3233C13.7432 11.3691 13.75 11.4165 13.75 11.4641V13M14.25 13H12.75M12.75 9.84539L15 7" stroke="#C2410C" stroke-width="0.75" stroke-linecap="round"/>
</g>
<defs>
<clipPath id="clip0_1_13720">
<rect x="2" y="2" width="16" height="16" rx="8" fill="white"/>
</clipPath>
</defs>
</svg>
