<svg width="20" height="20" viewBox="0 0 20 20" fill="none" xmlns="http://www.w3.org/2000/svg">
<g clip-path="url(#clip0_1_13713)">
<rect x="2" y="2" width="16" height="16" rx="8" fill="#F5F5F5"/>
<path d="M10 17.9999V2.00002M18 9.99995H2" stroke="#C2410C" stroke-width="2.5"/>
<path d="M10.4832 7.36539C10.2749 6.98233 9.72505 6.98232 9.51679 7.36539L9.02806 8.26435C9.01909 8.28085 9.00163 8.29093 8.98285 8.29045L7.95996 8.26423C7.52409 8.25305 7.24914 8.72927 7.47676 9.10116L8.01092 9.9739C8.02072 9.98992 8.02072 10.0101 8.01092 10.0261L7.47676 10.8988C7.24914 11.2707 7.52409 11.7469 7.95996 11.7358L8.98285 11.7095C9.00163 11.7091 9.01909 11.7191 9.02806 11.7356L9.51679 12.6346C9.72505 13.0177 10.2749 13.0177 10.4832 12.6346L10.9719 11.7356C10.9809 11.7191 10.9984 11.7091 11.0171 11.7095L12.04 11.7358C12.4759 11.7469 12.7509 11.2707 12.5232 10.8988L11.9891 10.0261C11.9793 10.0101 11.9793 9.98992 11.9891 9.9739L12.5232 9.10116C12.7509 8.72927 12.4759 8.25305 12.04 8.26423L11.0171 8.29045C10.9984 8.29093 10.9809 8.28085 10.9719 8.26435L10.4832 7.36539Z" fill="#F5F5F5" stroke="#C2410C" stroke-width="0.5"/>
<path d="M9.5 10.5V9.20711C9.5 9.0745 9.55268 8.94732 9.64645 8.85355C9.84171 8.65829 10.1583 8.65829 10.3536 8.85355L10.3964 8.89645C10.4628 8.96275 10.5 9.05268 10.5 9.14645V9.30902C10.5 9.41449 10.5855 9.5 10.691 9.5C10.833 9.5 10.9253 9.64941 10.8618 9.77639L10.5427 10.4146C10.5146 10.4708 10.5 10.5327 10.5 10.5955C10.5 10.8189 10.3189 11 10.0955 11H10C9.72386 11 9.5 10.7761 9.5 10.5Z" fill="#C2410C"/>
<path d="M11.1382 6.72361C11.0535 6.893 10.8804 7 10.691 7L9.30902 7C9.11963 7 8.9465 6.893 8.8618 6.72361L8.3618 5.72361C8.19558 5.39116 8.43733 5 8.80902 5L11.191 5C11.5627 5 11.8044 5.39116 11.6382 5.72361L11.1382 6.72361Z" fill="#FACC15"/>
</g>
<defs>
<clipPath id="clip0_1_13713">
<rect x="2" y="2" width="16" height="16" rx="8" fill="white"/>
</clipPath>
</defs>
</svg>
