<svg width="20" height="20" viewBox="0 0 20 20" fill="none" xmlns="http://www.w3.org/2000/svg">
<g clip-path="url(#clip0_1_14976)">
<path d="M18 17.9999V2.00002H2V17.9999H18Z" fill="#1E40AF"/>
<g clip-path="url(#clip1_1_14976)">
<rect width="8" height="8" transform="translate(2 2)" fill="#1E40AF"/>
<path d="M10 9.99994L2 2.00001M2 9.99994L10 2.00001" stroke="#F5F5F5" stroke-width="1.5"/>
<path d="M10 9.99994L2 2.00001M2 9.99994L10 2.00001" stroke="#C2410C" stroke-width="0.75"/>
<path d="M6 9.99994V2.00001M10 5.99997H2" stroke="#F5F5F5" stroke-width="2"/>
<path d="M6 9.99994V2.00001M10 5.99997H2" stroke="#C2410C"/>
</g>
<path d="M5.70914 11.151C5.78546 10.849 6.21454 10.849 6.29086 11.151L6.40927 11.6197C6.45508 11.8009 6.65373 11.8966 6.82401 11.8194L7.26422 11.6198C7.54792 11.4912 7.81545 11.8266 7.62691 12.0746L7.33437 12.4594C7.2212 12.6082 7.27027 12.8232 7.4368 12.9081L7.86732 13.1279C8.14477 13.2695 8.04929 13.6878 7.73787 13.695L7.25466 13.7062C7.06774 13.7105 6.93027 13.8829 6.96765 14.0661L7.06428 14.5396C7.12656 14.8449 6.73997 15.031 6.54018 14.792L6.23017 14.4212C6.11025 14.2778 5.88975 14.2778 5.76984 14.4212L5.45982 14.792C5.26003 15.031 4.87344 14.8449 4.93572 14.5396L5.03235 14.0661C5.06973 13.8829 4.93226 13.7105 4.74534 13.7062L4.26213 13.695C3.95071 13.6878 3.85523 13.2695 4.13268 13.1279L4.5632 12.9081C4.72973 12.8232 4.7788 12.6082 4.66563 12.4594L4.37309 12.0746C4.18455 11.8266 4.45208 11.4912 4.73578 11.6198L5.17599 11.8194C5.34627 11.8966 5.54492 11.8009 5.59073 11.6197L5.70914 11.151Z" fill="#F5F5F5"/>
<path d="M13.2186 4.76035C13.3153 4.49917 13.6847 4.49917 13.7814 4.76035L13.8573 4.96549C13.8876 5.04761 13.9524 5.11235 14.0345 5.14274L14.2396 5.21864C14.5008 5.31529 14.5008 5.68471 14.2396 5.78136L14.0345 5.85726C13.9524 5.88765 13.8876 5.95239 13.8573 6.03451L13.7814 6.23965C13.6847 6.50083 13.3153 6.50083 13.2186 6.23965L13.1427 6.03451C13.1124 5.95239 13.0476 5.88765 12.9655 5.85726L12.7604 5.78136C12.4992 5.68471 12.4992 5.31529 12.7604 5.21864L12.9655 5.14274C13.0476 5.11235 13.1124 5.04761 13.1427 4.96549L13.2186 4.76035Z" fill="#F5F5F5"/>
<path d="M11.2186 7.76035C11.3153 7.49917 11.6847 7.49917 11.7814 7.76035L11.8573 7.96549C11.8876 8.04761 11.9524 8.11235 12.0345 8.14274L12.2396 8.21864C12.5008 8.31529 12.5008 8.68471 12.2396 8.78136L12.0345 8.85726C11.9524 8.88765 11.8876 8.95239 11.8573 9.03451L11.7814 9.23965C11.6847 9.50083 11.3153 9.50083 11.2186 9.23965L11.1427 9.03451C11.1124 8.95239 11.0476 8.88765 10.9655 8.85726L10.7604 8.78136C10.4992 8.68471 10.4992 8.31529 10.7604 8.21864L10.9655 8.14274C11.0476 8.11235 11.1124 8.04761 11.1427 7.96549L11.2186 7.76035Z" fill="#F5F5F5"/>
<path d="M15.2186 6.76035C15.3153 6.49917 15.6847 6.49917 15.7814 6.76035L15.8573 6.96549C15.8876 7.04761 15.9524 7.11235 16.0345 7.14274L16.2396 7.21864C16.5008 7.31529 16.5008 7.68471 16.2396 7.78136L16.0345 7.85726C15.9524 7.88765 15.8876 7.95239 15.8573 8.03451L15.7814 8.23965C15.6847 8.50083 15.3153 8.50083 15.2186 8.23965L15.1427 8.03451C15.1124 7.95239 15.0476 7.88765 14.9655 7.85726L14.7604 7.78136C14.4992 7.68471 14.4992 7.31529 14.7604 7.21864L14.9655 7.14274C15.0476 7.11235 15.1124 7.04761 15.1427 6.96549L15.2186 6.76035Z" fill="#F5F5F5"/>
<path d="M13.2186 12.7604C13.3153 12.4992 13.6847 12.4992 13.7814 12.7604L13.8573 12.9655C13.8876 13.0476 13.9524 13.1124 14.0345 13.1427L14.2396 13.2186C14.5008 13.3153 14.5008 13.6847 14.2396 13.7814L14.0345 13.8573C13.9524 13.8876 13.8876 13.9524 13.8573 14.0345L13.7814 14.2396C13.6847 14.5008 13.3153 14.5008 13.2186 14.2396L13.1427 14.0345C13.1124 13.9524 13.0476 13.8876 12.9655 13.8573L12.7604 13.7814C12.4992 13.6847 12.4992 13.3153 12.7604 13.2186L12.9655 13.1427C13.0476 13.1124 13.1124 13.0476 13.1427 12.9655L13.2186 12.7604Z" fill="#F5F5F5"/>
<ellipse cx="14.5" cy="9.5" rx="0.5" ry="0.5" transform="rotate(90 14.5 9.5)" fill="#F5F5F5"/>
</g>
<defs>
<clipPath id="clip0_1_14976">
<rect x="2" y="2" width="16" height="16" rx="8" fill="white"/>
</clipPath>
<clipPath id="clip1_1_14976">
<rect width="8" height="8" fill="white" transform="translate(2 2)"/>
</clipPath>
</defs>
</svg>
