<svg width="20" height="20" viewBox="0 0 20 20" fill="none" xmlns="http://www.w3.org/2000/svg">
<rect x="18.0049" y="17.995" width="16" height="16" rx="8" transform="rotate(180 18.0049 17.995)" fill="#C2410C"/>
<path d="M9.88784 10.3033L8.42268 7.76558C8.23683 7.44369 7.77721 7.42991 7.57241 7.74009L6.92824 8.71572C6.72344 9.02591 6.26381 9.01212 6.07797 8.69023L5.85925 8.3114" stroke="#F5F5F5" stroke-linecap="round" stroke-linejoin="round"/>
<path d="M9.90469 10.3325L12.835 10.3325C13.2067 10.3325 13.4485 9.94134 13.2822 9.60889L12.7594 8.56321C12.5932 8.23076 12.8349 7.8396 13.2066 7.8396L13.644 7.8396" stroke="#F5F5F5" stroke-linecap="round" stroke-linejoin="round"/>
<path d="M9.89106 10.3014L8.42589 12.8392C8.24005 13.1611 8.45792 13.566 8.82895 13.5883L9.99596 13.6583C10.367 13.6806 10.5849 14.0855 10.399 14.4074L10.1803 14.7863" stroke="#F5F5F5" stroke-linecap="round" stroke-linejoin="round"/>
</svg>
