<svg width="20" height="20" viewBox="0 0 20 20" fill="none" xmlns="http://www.w3.org/2000/svg">
<g clip-path="url(#clip0_1_15056)">
<rect x="2" y="2" width="16" height="16" rx="8" fill="#F5F5F5"/>
<path d="M2.5 15.5L3.44477 16.133C3.78085 16.3582 4.21949 16.3587 4.55609 16.1343L4.94669 15.8739C5.28189 15.6504 5.71845 15.6499 6.05416 15.8726L6.44723 16.1333C6.78224 16.3556 7.21776 16.3556 7.55277 16.1333L7.94723 15.8717C8.28224 15.6495 8.71776 15.6495 9.05277 15.8717L9.44723 16.1333C9.78224 16.3556 10.2178 16.3556 10.5528 16.1333L10.9472 15.8717C11.2822 15.6495 11.7178 15.6495 12.0528 15.8717L12.4472 16.1333C12.7822 16.3556 13.2178 16.3556 13.5528 16.1333L13.9458 15.8726C14.2816 15.6499 14.7181 15.6504 15.0533 15.8739L15.4439 16.1343C15.7805 16.3587 16.2192 16.3582 16.5552 16.133L17.5 15.5" stroke="#1E40AF" stroke-width="1.1" stroke-linecap="round"/>
<path d="M2.5 13.005L3.44477 13.638C3.78085 13.8632 4.21949 13.8637 4.55609 13.6393L4.94669 13.3789C5.28189 13.1554 5.71845 13.1549 6.05416 13.3776L6.44723 13.6383C6.78224 13.8606 7.21776 13.8606 7.55277 13.6383L7.94723 13.3767C8.28224 13.1545 8.71776 13.1545 9.05277 13.3767L9.44723 13.6383C9.78224 13.8606 10.2178 13.8606 10.5528 13.6383L10.9472 13.3767C11.2822 13.1545 11.7178 13.1545 12.0528 13.3767L12.4472 13.6383C12.7822 13.8606 13.2178 13.8606 13.5528 13.6383L13.9458 13.3776C14.2816 13.1549 14.7181 13.1554 15.0533 13.3789L15.4439 13.6393C15.7805 13.8637 16.2192 13.8632 16.5552 13.638L17.5 13.005" stroke="#1E40AF" stroke-width="1.1" stroke-linecap="round"/>
<path d="M2.5 10.5L3.44477 11.133C3.78085 11.3582 4.21949 11.3587 4.55609 11.1343L4.94669 10.8739C5.28189 10.6504 5.71845 10.6499 6.05416 10.8726L6.44723 11.1333C6.78224 11.3556 7.21776 11.3556 7.55277 11.1333L7.94723 10.8717C8.28224 10.6495 8.71776 10.6495 9.05277 10.8717L9.44723 11.1333C9.78224 11.3556 10.2178 11.3556 10.5528 11.1333L10.9472 10.8717C11.2822 10.6495 11.7178 10.6495 12.0528 10.8717L12.4472 11.1333C12.7822 11.3556 13.2178 11.3556 13.5528 11.1333L13.9458 10.8726C14.2816 10.6499 14.7181 10.6504 15.0533 10.8739L15.4439 11.1343C15.7805 11.3587 16.2192 11.3582 16.5552 11.133L17.5 10.5" stroke="#1E40AF" stroke-width="1.1" stroke-linecap="round"/>
<path d="M2.5 8L3.44477 8.633C3.78085 8.85817 4.21949 8.85868 4.55609 8.63428L4.94669 8.37388C5.28189 8.15041 5.71845 8.14991 6.05416 8.3726L6.44723 8.63333C6.78224 8.85555 7.21776 8.85555 7.55277 8.63333L7.94723 8.37168C8.28224 8.14945 8.71776 8.14945 9.05277 8.37168L9.44723 8.63333C9.78224 8.85555 10.2178 8.85555 10.5528 8.63333L10.9472 8.37168C11.2822 8.14945 11.7178 8.14945 12.0528 8.37168L12.4472 8.63333C12.7822 8.85555 13.2178 8.85555 13.5528 8.63333L13.9458 8.3726C14.2816 8.14991 14.7181 8.15041 15.0533 8.37388L15.4439 8.63428C15.7805 8.85868 16.2192 8.85817 16.5552 8.633L17.5 8" stroke="#1E40AF" stroke-width="1.1" stroke-linecap="round"/>
<path d="M2.5 5.505L3.44477 6.138C3.78085 6.36318 4.21949 6.36368 4.55609 6.13928L4.94669 5.87888C5.28189 5.65542 5.71845 5.65491 6.05416 5.8776L6.44723 6.13833C6.78224 6.36056 7.21776 6.36056 7.55277 6.13833L7.94723 5.87668C8.28224 5.65446 8.71776 5.65446 9.05277 5.87668L9.44723 6.13833C9.78224 6.36056 10.2178 6.36056 10.5528 6.13833L10.9472 5.87668C11.2822 5.65446 11.7178 5.65446 12.0528 5.87668L12.4472 6.13833C12.7822 6.36056 13.2178 6.36056 13.5528 6.13833L13.9458 5.8776C14.2816 5.65491 14.7181 5.65542 15.0533 5.87888L15.4439 6.13929C15.7805 6.36368 16.2192 6.36318 16.5552 6.138L17.5 5.505" stroke="#1E40AF" stroke-width="1.1" stroke-linecap="round"/>
<path d="M2.5 3L3.44477 3.633C3.78085 3.85817 4.21949 3.85868 4.55609 3.63428L4.94669 3.37388C5.28189 3.15041 5.71845 3.14991 6.05416 3.3726L6.44723 3.63333C6.78224 3.85555 7.21776 3.85555 7.55277 3.63333L7.94723 3.37168C8.28224 3.14945 8.71776 3.14945 9.05277 3.37168L9.44723 3.63333C9.78224 3.85555 10.2178 3.85555 10.5528 3.63333L10.9472 3.37168C11.2822 3.14945 11.7178 3.14945 12.0528 3.37168L12.4472 3.63333C12.7822 3.85555 13.2178 3.85555 13.5528 3.63333L13.9458 3.3726C14.2816 3.14991 14.7181 3.15041 15.0533 3.37388L15.4439 3.63428C15.7805 3.85868 16.2192 3.85817 16.5552 3.633L17.5 3" stroke="#1E40AF" stroke-width="1.1" stroke-linecap="round"/>
<g clip-path="url(#clip1_1_15056)">
<rect width="8" height="8" transform="translate(2 2)" fill="#1E40AF"/>
<path d="M10 9.99994L2 2.00001M2 9.99994L10 2.00001" stroke="#F5F5F5" stroke-width="1.5"/>
<path d="M10 9.99994L2 2.00001M2 9.99994L10 2.00001" stroke="#C2410C" stroke-width="0.75"/>
<path d="M6 9.99994V2.00001M10 5.99997H2" stroke="#F5F5F5" stroke-width="2"/>
<path d="M6 9.99994V2.00001M10 5.99997H2" stroke="#C2410C"/>
</g>
</g>
<defs>
<clipPath id="clip0_1_15056">
<rect x="2" y="2" width="16" height="16" rx="8" fill="white"/>
</clipPath>
<clipPath id="clip1_1_15056">
<rect width="8" height="8" fill="white" transform="translate(2 2)"/>
</clipPath>
</defs>
</svg>
