<svg width="20" height="20" viewBox="0 0 20 20" fill="none" xmlns="http://www.w3.org/2000/svg">
<g clip-path="url(#clip0_1_13726)">
<rect x="2" y="2" width="16" height="16" rx="8" fill="#F5F5F5"/>
<path d="M18 17.9999L2 2.00002M2 17.9999L18 2.00002" stroke="#C2410C" stroke-width="1.5"/>
<path d="M9 4.72161C9 4.58579 9.07673 4.46163 9.19821 4.40089C9.70295 4.14853 10.2971 4.14853 10.8018 4.40089C10.9233 4.46163 11 4.58579 11 4.72161V6C11 6.55228 10.5523 7 10 7C9.44772 7 9 6.55228 9 6V4.72161Z" fill="#C2410C"/>
<path d="M10.84 4.38C10.7833 4.45554 10.6944 4.5 10.6 4.5L9.4 4.5C9.30557 4.5 9.21666 4.45554 9.16 4.38L8.86 3.98C8.71167 3.78223 8.85279 3.5 9.1 3.5L10.9 3.5C11.1472 3.5 11.2883 3.78223 11.14 3.98L10.84 4.38Z" fill="#EAB308"/>
</g>
<defs>
<clipPath id="clip0_1_13726">
<rect x="2" y="2" width="16" height="16" rx="8" fill="white"/>
</clipPath>
</defs>
</svg>
