<svg width="20" height="20" viewBox="0 0 20 20" fill="none" xmlns="http://www.w3.org/2000/svg">
<g clip-path="url(#clip0_1_15658)">
<rect x="2.00983" y="7.33493" width="16" height="5.33" fill="#EA580C"/>
<rect x="2.00482" y="1.99005" width="16" height="5.33" fill="#262626"/>
<rect x="2.00983" y="12.6649" width="16" height="5.33" fill="#15803D"/>
<rect x="0.00488281" y="7.33496" width="20" height="5.33" stroke="#F5F5F5"/>
<path d="M7.5 5.66987L12.5 14.3301" stroke="#F5F5F5" stroke-width="0.75" stroke-linecap="round"/>
<path d="M12.5 5.66987L7.5 14.3301" stroke="#F5F5F5" stroke-width="0.75" stroke-linecap="round"/>
<path fill-rule="evenodd" clip-rule="evenodd" d="M10.3436 14.5219C10.1626 14.7357 9.83743 14.7357 9.65638 14.5219C8.62311 13.3021 8 11.7238 8 10C8 8.27618 8.62311 6.69789 9.65638 5.47808C9.83743 5.26434 10.1626 5.26434 10.3436 5.47808C11.3769 6.69789 12 8.27618 12 10C12 11.7238 11.3769 13.3021 10.3436 14.5219Z" fill="#EA580C"/>
<path fill-rule="evenodd" clip-rule="evenodd" d="M11.2595 11.8947C11.3326 12.1553 11.6675 12.1553 11.7405 11.8947C11.9096 11.2921 12 10.6566 12 10C12 9.34337 11.9096 8.70786 11.7405 8.10523C11.6674 7.84469 11.3325 7.84469 11.2595 8.10524C11.0904 8.70785 11 9.34335 11 9.99997C11 10.6566 11.0904 11.2921 11.2595 11.8947Z" fill="#262626"/>
<path fill-rule="evenodd" clip-rule="evenodd" d="M8.25946 11.8948C8.33255 12.1553 8.66746 12.1553 8.74055 11.8948C8.90959 11.2921 9 10.6566 9 10C9 9.34339 8.90959 8.70788 8.74054 8.10525C8.66745 7.84471 8.33254 7.84471 8.25945 8.10525C8.09041 8.70787 8 9.34337 8 9.99998C8 10.6566 8.09041 11.2921 8.25946 11.8948Z" fill="#262626"/>
<path d="M10 7V13" stroke="#F5F5F5" stroke-width="0.75" stroke-linecap="round"/>
</g>
<defs>
<clipPath id="clip0_1_15658">
<rect x="18.0049" y="17.995" width="16" height="16" rx="8" transform="rotate(180 18.0049 17.995)" fill="white"/>
</clipPath>
</defs>
</svg>
