<svg width="20" height="20" viewBox="0 0 20 20" fill="none" xmlns="http://www.w3.org/2000/svg">
<g clip-path="url(#clip0_1_14324)">
<path d="M18 17.9999V2.00002H2V17.9999H18Z" fill="#1E40AF"/>
<g clip-path="url(#clip1_1_14324)">
<rect width="8" height="8" transform="translate(2 2)" fill="#1E40AF"/>
<path d="M10 9.99994L2 2.00001M2 9.99994L10 2.00001" stroke="#F5F5F5" stroke-width="1.5"/>
<path d="M10 9.99994L2 2.00001M2 9.99994L10 2.00001" stroke="#C2410C" stroke-width="0.75"/>
<path d="M6 9.99994V2.00001M10 5.99997H2" stroke="#F5F5F5" stroke-width="2"/>
<path d="M6 9.99994V2.00001M10 5.99997H2" stroke="#C2410C"/>
</g>
<path d="M11.5007 9.3C11.5007 9.13431 11.635 9 11.8007 9L15.2007 9C15.3664 9 15.5007 9.13431 15.5007 9.3L15.5007 12C15.5007 13.1046 14.6053 14 13.5007 14C12.3962 14 11.5007 13.1046 11.5007 12L11.5007 9.3Z" fill="#F5F5F5"/>
<path d="M11.5007 9.3C11.5007 9.13431 11.635 9 11.8007 9L15.2007 9C15.3664 9 15.5007 9.13431 15.5007 9.3L15.5007 10.2C15.5007 10.3657 15.3664 10.5 15.2007 10.5L11.8007 10.5C11.635 10.5 11.5007 10.3657 11.5007 10.2L11.5007 9.3Z" fill="#C2410C"/>
<path d="M12.2507 9.75C14.2507 9.75 14.7507 9.75 14.7507 9.75" stroke="#FACC15" stroke-width="0.75" stroke-linecap="round"/>
<path d="M12.5007 12.75C14.1007 12.75 14.5007 12.75 14.5007 12.75" stroke="#0284C7" stroke-width="0.74" stroke-linecap="round"/>
<path d="M12.2507 11.5C14.2507 11.5 14.7507 11.5 14.7507 11.5" stroke="#0284C7" stroke-width="0.74" stroke-linecap="round"/>
<ellipse cx="13.5007" cy="8.5" rx="1" ry="0.5" fill="#16A34A"/>
<ellipse cx="13.5007" cy="7.5" rx="1" ry="0.5" fill="#FACC15"/>
<path d="M16.33 13C15.9182 14.1652 14.807 15 13.5007 15C12.1945 15 11.0833 14.1652 10.6714 13" stroke="#FACC15" stroke-width="0.75" stroke-linecap="round"/>
</g>
<defs>
<clipPath id="clip0_1_14324">
<rect x="2" y="2" width="16" height="16" rx="8" fill="white"/>
</clipPath>
<clipPath id="clip1_1_14324">
<rect width="8" height="8" fill="white" transform="translate(2 2)"/>
</clipPath>
</defs>
</svg>
