<svg width="20" height="20" viewBox="0 0 20 20" fill="none" xmlns="http://www.w3.org/2000/svg">
<g clip-path="url(#clip0_1_14414)">
<path d="M17.9999 17.9999L1.99994 17.9999L1.99994 1.99994L17.9999 1.99994L17.9999 17.9999Z" fill="#C2410C"/>
<path d="M1.99994 17.9999L1.99994 1.99994L17.9999 1.99994L1.99994 17.9999Z" fill="#16A34A"/>
<path d="M15.6569 4.34314L4.34315 15.6568" stroke="#262626" stroke-width="3" stroke-linecap="round"/>
<path d="M17.0049 5.495L5.50488 16.995" stroke="#FACC15" stroke-width="0.75" stroke-linecap="round"/>
<path d="M14.5049 2.995L3.00488 14.495" stroke="#FACC15" stroke-width="0.75" stroke-linecap="round"/>
<path d="M11.4609 7.69123C11.3349 7.44396 11.599 7.17993 11.8462 7.30592C11.9568 7.36227 12.0911 7.341 12.1789 7.25324C12.3751 7.05701 12.7078 7.22652 12.6644 7.50062C12.645 7.6232 12.7067 7.74434 12.8173 7.80069C13.0645 7.92668 13.0061 8.29547 12.732 8.33889C12.6094 8.3583 12.5133 8.45444 12.4939 8.57702C12.4505 8.85112 12.0817 8.90953 11.9557 8.66226C11.8994 8.55168 11.7782 8.48995 11.6556 8.50937C11.3815 8.55278 11.212 8.22009 11.4083 8.02385C11.496 7.9361 11.5173 7.80181 11.4609 7.69123Z" fill="#F5F5F5"/>
<path d="M7.46093 11.6912C7.33494 11.444 7.59897 11.1799 7.84624 11.3059C7.95682 11.3623 8.09111 11.341 8.17887 11.2532C8.3751 11.057 8.70779 11.2265 8.66438 11.5006C8.64497 11.6232 8.70669 11.7443 8.81727 11.8007C9.06454 11.9267 9.00613 12.2955 8.73203 12.3389C8.60945 12.3583 8.51331 12.4544 8.4939 12.577C8.45048 12.8511 8.08169 12.9095 7.9557 12.6623C7.89935 12.5517 7.77821 12.49 7.65563 12.5094C7.38154 12.5528 7.21202 12.2201 7.40825 12.0239C7.49601 11.9361 7.51728 11.8018 7.46093 11.6912Z" fill="#F5F5F5"/>
</g>
<defs>
<clipPath id="clip0_1_14414">
<rect x="2.00488" y="1.995" width="16" height="16" rx="8" fill="white"/>
</clipPath>
</defs>
</svg>
