<svg width="20" height="20" viewBox="0 0 20 20" fill="none" xmlns="http://www.w3.org/2000/svg">
<g clip-path="url(#clip0_1_15104)">
<rect x="18.0049" y="1.995" width="16" height="16" rx="8" transform="rotate(90 18.0049 1.995)" fill="#EA580C"/>
<path d="M9.70604 6.4425C9.77128 6.12237 10.2287 6.12237 10.294 6.4425L10.5555 7.72599C10.6002 7.94541 10.8609 8.04027 11.0362 7.90093L12.0615 7.08584C12.3173 6.88254 12.6677 7.17658 12.5119 7.46375L11.8873 8.61509C11.7805 8.81191 11.9191 9.05211 12.143 9.05805L13.4524 9.09275C13.779 9.10141 13.8584 9.5519 13.5545 9.67174L12.3359 10.1522C12.1276 10.2343 12.0794 10.5075 12.2471 10.6559L13.2279 11.5242C13.4725 11.7407 13.2438 12.1369 12.9339 12.0333L11.6916 11.6181C11.4792 11.5471 11.2667 11.7254 11.2998 11.9469L11.493 13.2424C11.5412 13.5656 11.1113 13.722 10.9405 13.4435L10.2557 12.3269C10.1387 12.136 9.86132 12.136 9.74426 12.3269L9.05949 13.4435C8.8887 13.722 8.45884 13.5656 8.50703 13.2424L8.70023 11.9469C8.73326 11.7254 8.52079 11.5471 8.30841 11.6181L7.06609 12.0333C6.75623 12.1369 6.52751 11.7407 6.77213 11.5242L7.75289 10.6559C7.92056 10.5075 7.8724 10.2343 7.66408 10.1522L6.4455 9.67174C6.14156 9.5519 6.22099 9.10141 6.54759 9.09275L7.857 9.05805C8.08085 9.05211 8.21953 8.81191 8.11275 8.61509L7.48809 7.46375C7.33229 7.17658 7.68272 6.88254 7.93846 7.08584L8.96385 7.90093C9.13914 8.04027 9.39977 7.94541 9.44448 7.72599L9.70604 6.4425Z" fill="#FACC15"/>
<path d="M10.294 13.5575C10.2287 13.8776 9.77128 13.8776 9.70604 13.5575L9.44449 12.274C9.39977 12.0546 9.13914 11.9597 8.96385 12.0991L7.93847 12.9142C7.68272 13.1175 7.3323 12.8234 7.4881 12.5363L8.11275 11.3849C8.21953 11.1881 8.08086 10.9479 7.85701 10.942L6.54759 10.9072C6.221 10.8986 6.14156 10.4481 6.4455 10.3283L7.66408 9.8478C7.8724 9.76567 7.92056 9.49252 7.7529 9.34409L6.77213 8.47582C6.52751 8.25926 6.75623 7.86311 7.06609 7.96667L8.30841 8.38191C8.52079 8.45289 8.73326 8.27461 8.70023 8.05313L8.50703 6.75758C8.45885 6.43445 8.8887 6.27799 9.05949 6.5565L9.74426 7.67314C9.86132 7.86403 10.1387 7.86403 10.2557 7.67314L10.9405 6.5565C11.1113 6.27799 11.5412 6.43445 11.493 6.75758L11.2998 8.05313C11.2667 8.27461 11.4792 8.45289 11.6916 8.38191L12.9339 7.96667C13.2438 7.86311 13.4725 8.25926 13.2279 8.47582L12.2471 9.34409C12.0794 9.49252 12.1276 9.76567 12.3359 9.8478L13.5545 10.3283C13.8584 10.4481 13.779 10.8986 13.4524 10.9072L12.143 10.942C11.9191 10.9479 11.7805 11.1881 11.8873 11.3849L12.5119 12.5363C12.6677 12.8234 12.3173 13.1175 12.0615 12.9142L11.0362 12.0991C10.8609 11.9597 10.6002 12.0546 10.5555 12.274L10.294 13.5575Z" fill="#FACC15"/>
<rect x="18" y="18" width="16" height="7" transform="rotate(-180 18 18)" fill="#1E40AF"/>
<path d="M4 16.5L4.94669 15.8689C5.28189 15.6454 5.71845 15.6449 6.05416 15.8676L6.44723 16.1283C6.78224 16.3505 7.21776 16.3505 7.55277 16.1283L7.94723 15.8667C8.28224 15.6444 8.71776 15.6444 9.05277 15.8667L9.44723 16.1283C9.78224 16.3505 10.2178 16.3505 10.5528 16.1283L10.9472 15.8667C11.2822 15.6444 11.7178 15.6444 12.0528 15.8667L12.4472 16.1283C12.7822 16.3505 13.2178 16.3505 13.5528 16.1283L13.9458 15.8676C14.2816 15.6449 14.7181 15.6454 15.0533 15.8689L16 16.5" stroke="#F5F5F5" stroke-width="1.1" stroke-linecap="round"/>
<path d="M1 14L1.94391 13.3707C2.28051 13.1463 2.71915 13.1468 3.05523 13.372L3.44477 13.633C3.78085 13.8582 4.21949 13.8587 4.55609 13.6343L4.94669 13.3739C5.28189 13.1504 5.71845 13.1499 6.05416 13.3726L6.44723 13.6333C6.78224 13.8556 7.21776 13.8556 7.55277 13.6333L7.94723 13.3717C8.28224 13.1495 8.71776 13.1495 9.05277 13.3717L9.44723 13.6333C9.78224 13.8556 10.2178 13.8556 10.5528 13.6333L10.9472 13.3717C11.2822 13.1495 11.7178 13.1495 12.0528 13.3717L12.4472 13.6333C12.7822 13.8556 13.2178 13.8556 13.5528 13.6333L13.9458 13.3726C14.2816 13.1499 14.7181 13.1504 15.0533 13.3739L15.4439 13.6343C15.7805 13.8587 16.2192 13.8582 16.5552 13.633L16.9434 13.3729C17.2802 13.1473 17.7198 13.1473 18.0566 13.3729L19 14.005" stroke="#F5F5F5" stroke-width="1.1" stroke-linecap="round"/>
<path d="M19 11.5L18.0566 10.8679C17.7198 10.6423 17.2802 10.6423 16.9434 10.8679L16.5552 11.128C16.2192 11.3532 15.7805 11.3537 15.4439 11.1293L15.0533 10.8689C14.7181 10.6454 14.2816 10.6449 13.9458 10.8676L13.5528 11.1283C13.2178 11.3505 12.7822 11.3505 12.4472 11.1283L12.0528 10.8667C11.7178 10.6444 11.2822 10.6444 10.9472 10.8667L10.5528 11.1283C10.2178 11.3505 9.78224 11.3505 9.44723 11.1283L9.05277 10.8667C8.71776 10.6444 8.28224 10.6444 7.94723 10.8667L7.55277 11.1283C7.21776 11.3505 6.78224 11.3505 6.44723 11.1283L6.05416 10.8676C5.71845 10.6449 5.28189 10.6454 4.94669 10.8689L4.55609 11.1293C4.21949 11.3537 3.78085 11.3532 3.44477 11.128L3.05662 10.8679C2.71984 10.6423 2.28016 10.6423 1.94338 10.8679L1 11.5" stroke="#F5F5F5" stroke-width="1.1" stroke-linecap="round"/>
<path d="M7 5L8.40821 4.2959C8.76162 4.11919 9.18846 4.18846 9.46785 4.46785V4.46785C9.77727 4.77727 10.2621 4.82528 10.6262 4.58255L10.9453 4.3698C11.2812 4.14587 11.7188 4.14587 12.0547 4.3698L13 5" stroke="#FACC15" stroke-linecap="round"/>
</g>
<defs>
<clipPath id="clip0_1_15104">
<rect x="18.0049" y="1.995" width="16" height="16" rx="8" transform="rotate(90 18.0049 1.995)" fill="white"/>
</clipPath>
</defs>
</svg>
