<svg width="20" height="20" viewBox="0 0 20 20" fill="none" xmlns="http://www.w3.org/2000/svg">
<g clip-path="url(#clip0_1_14409)">
<rect x="2" y="18" width="16" height="16" transform="rotate(-90 2 18)" fill="#7DD3FC"/>
<path d="M14.3373 14.4483C14.3749 14.531 14.3144 14.625 14.2235 14.625L5.7765 14.625C5.68559 14.625 5.62509 14.531 5.66271 14.4483L9.8862 5.15658C9.93061 5.05888 10.0694 5.05888 10.1138 5.15658L14.3373 14.4483Z" fill="#262626" stroke="#F5F5F5" stroke-width="0.75"/>
<path d="M14.1464 14.1464C14.4614 14.4614 14.2383 15 13.7929 15L6.20711 15C5.76165 15 5.53857 14.4614 5.85355 14.1464L9.64645 10.3536C9.84171 10.1583 10.1583 10.1583 10.3536 10.3536L14.1464 14.1464Z" fill="#FACC15"/>
</g>
<defs>
<clipPath id="clip0_1_14409">
<rect x="2.00488" y="1.995" width="16" height="16" rx="8" fill="white"/>
</clipPath>
</defs>
</svg>
