<svg width="20" height="20" viewBox="0 0 20 20" fill="none" xmlns="http://www.w3.org/2000/svg">
<g clip-path="url(#clip0_1_15374)">
<path d="M18 17.9999V2.00002H2V17.9999H18Z" fill="#F5F5F5"/>
<rect x="2" y="4.9091" width="16" height="1.45454" fill="#EA580C"/>
<rect x="2" y="2.00002" width="16" height="1.45454" fill="#EA580C"/>
<rect x="2" y="7.81818" width="16" height="1.45454" fill="#EA580C"/>
<rect x="2" y="10.7273" width="16" height="1.45454" fill="#EA580C"/>
<rect x="2" y="13.6364" width="16" height="1.45454" fill="#EA580C"/>
<rect x="2" y="16.5454" width="16" height="1.45454" fill="#EA580C"/>
<path d="M2 2.00001L2 9.27001H10V2.00001L2 2.00001Z" fill="#0284C7"/>
<path d="M6.71468 4.14814C6.80449 3.87174 7.19551 3.87174 7.28532 4.14813L7.60619 5.13567C7.64635 5.25928 7.76154 5.34297 7.8915 5.34297H8.92986C9.22048 5.34297 9.34131 5.71485 9.1062 5.88567L8.26615 6.49601C8.161 6.5724 8.11701 6.70781 8.15717 6.83142L8.47804 7.81895C8.56784 8.09535 8.2515 8.32519 8.01639 8.15437L7.17634 7.54403C7.07119 7.46764 6.92881 7.46764 6.82366 7.54403L5.98361 8.15437C5.7485 8.32519 5.43216 8.09535 5.52196 7.81896L5.84283 6.83142C5.88299 6.70781 5.839 6.5724 5.73385 6.49601L4.8938 5.88567C4.65869 5.71485 4.77952 5.34297 5.07014 5.34297H6.1085C6.23846 5.34297 6.35365 5.25928 6.39381 5.13567L6.71468 4.14814Z" fill="#F5F5F5"/>
</g>
<defs>
<clipPath id="clip0_1_15374">
<rect x="2" y="2" width="16" height="16" rx="8" fill="white"/>
</clipPath>
</defs>
</svg>
