<svg width="20" height="20" viewBox="0 0 20 20" fill="none" xmlns="http://www.w3.org/2000/svg">
<g clip-path="url(#clip0_1_15144)">
<rect x="18.0098" y="17.99" width="16" height="16" transform="rotate(180 18.0098 17.99)" fill="#1E40AF"/>
<circle cx="10" cy="10" r="5" stroke="#F5F5F5" stroke-width="2"/>
<path d="M15 10C15 12.7614 12.7614 15 10 15C7.23858 15 5 12.7614 5 10" stroke="#CA8A04" stroke-width="0.75"/>
<path d="M15 10C15 7.23858 12.7614 5 10 5C7.23858 5 5 7.23858 5 10" stroke="#EA580C" stroke-width="0.75"/>
<path d="M10.3578 16.5H9.64218C9.03739 16.5 8.57102 15.9673 8.65096 15.3678L9.42081 9.59391C9.46819 9.23858 9.28472 8.89236 8.96409 8.73204C8.67966 8.58983 8.5 8.29913 8.5 7.98113V7.92705C8.5 7.41505 8.91505 7 9.42705 7H10.5729C11.0849 7 11.5 7.41505 11.5 7.92705V7.98113C11.5 8.29913 11.3203 8.58983 11.0359 8.73204C10.7153 8.89236 10.5318 9.23858 10.5792 9.59391L11.349 15.3678C11.429 15.9673 10.9626 16.5 10.3578 16.5Z" fill="#A3A3A3"/>
<path d="M9.71468 7.87812C9.80449 7.60172 10.1955 7.60172 10.2853 7.87812L10.6062 8.86565C10.6464 8.98926 10.7615 9.07295 10.8915 9.07295H11.9299C12.2205 9.07295 12.3413 9.44483 12.1062 9.61565L11.2661 10.226C11.161 10.3024 11.117 10.4378 11.1572 10.5614L11.478 11.5489C11.5678 11.8253 11.2515 12.0552 11.0164 11.8843L10.1763 11.274C10.0712 11.1976 9.92881 11.1976 9.82366 11.274L8.98361 11.8843C8.7485 12.0552 8.43216 11.8253 8.52196 11.5489L8.84283 10.5614C8.88299 10.4378 8.839 10.3024 8.73385 10.226L7.8938 9.61565C7.65869 9.44483 7.77952 9.07295 8.07014 9.07295H9.1085C9.23846 9.07295 9.35365 8.98926 9.39381 8.86565L9.71468 7.87812Z" fill="#F5F5F5"/>
<path d="M10 5L10 6" stroke="#16A34A" stroke-width="0.75" stroke-linecap="round"/>
<path d="M10 4L10 5" stroke="#D8B4FE" stroke-width="0.75" stroke-linecap="round"/>
<path d="M13 6L13 7" stroke="#16A34A" stroke-width="0.75" stroke-linecap="round"/>
<path d="M15 10L15 11" stroke="#16A34A" stroke-width="0.75" stroke-linecap="round"/>
<path d="M7 6L7 7" stroke="#16A34A" stroke-width="0.75" stroke-linecap="round"/>
<path d="M5 10L5 11" stroke="#16A34A" stroke-width="0.75" stroke-linecap="round"/>
<path d="M13 5L13 6" stroke="#D8B4FE" stroke-width="0.75" stroke-linecap="round"/>
<path d="M7 5L7 6" stroke="#D8B4FE" stroke-width="0.75" stroke-linecap="round"/>
<path d="M5 9L5 10" stroke="#D8B4FE" stroke-width="0.75" stroke-linecap="round"/>
<path d="M15 9L15 10" stroke="#D8B4FE" stroke-width="0.75" stroke-linecap="round"/>
</g>
<defs>
<clipPath id="clip0_1_15144">
<rect x="2.00488" y="1.995" width="16" height="16" rx="8" fill="white"/>
</clipPath>
</defs>
</svg>
