<svg width="20" height="20" viewBox="0 0 20 20" fill="none" xmlns="http://www.w3.org/2000/svg">
<g clip-path="url(#clip0_1_14311)">
<path d="M18 17.9999V2.00002H2V17.9999H18Z" fill="#1E40AF"/>
<g clip-path="url(#clip1_1_14311)">
<rect width="8" height="8" transform="translate(2 2)" fill="#1E40AF"/>
<path d="M10 9.99994L2 2.00001M2 9.99994L10 2.00001" stroke="#F5F5F5" stroke-width="1.5"/>
<path d="M10 9.99994L2 2.00001M2 9.99994L10 2.00001" stroke="#C2410C" stroke-width="0.75"/>
<path d="M6 9.99994V2.00001M10 5.99997H2" stroke="#F5F5F5" stroke-width="2"/>
<path d="M6 9.99994V2.00001M10 5.99997H2" stroke="#C2410C"/>
</g>
<path d="M12.3 8.75C11.9962 8.75 11.75 8.99624 11.75 9.3L11.75 12C11.75 13.2426 12.7574 14.25 14 14.25C15.2426 14.25 16.25 13.2426 16.25 12L16.25 9.3C16.25 8.99624 16.0038 8.75 15.7 8.75L12.3 8.75Z" fill="#0284C7" stroke="#F5F5F5" stroke-width="0.5"/>
<path d="M13.9048 13.5C13.2696 13.5 12.733 13.0785 12.5592 12.5L15.4408 12.5C15.267 13.0785 14.7304 13.5 14.0952 13.5L13.9048 13.5Z" fill="#D97706" stroke="#D97706"/>
<path d="M14 9.5V13M13 10H15" stroke="#262626" stroke-width="0.75" stroke-linecap="round"/>
<path d="M13.6253 11.3747L13.2588 11.7412C13.1249 11.8751 13.147 12.098 13.3045 12.203L13.8543 12.5696C14.0825 12.7217 14.3783 12.5132 14.3118 12.2472L14.1285 11.514C14.072 11.2878 13.7902 11.2098 13.6253 11.3747Z" stroke="#FACC15" stroke-width="0.75" stroke-linecap="round"/>
<path d="M15 10.5V12.5" stroke="#16A34A" stroke-linecap="round"/>
</g>
<defs>
<clipPath id="clip0_1_14311">
<rect x="2" y="2" width="16" height="16" rx="8" fill="white"/>
</clipPath>
<clipPath id="clip1_1_14311">
<rect width="8" height="8" fill="white" transform="translate(2 2)"/>
</clipPath>
</defs>
</svg>
