<svg width="20" height="20" viewBox="0 0 20 20" fill="none" xmlns="http://www.w3.org/2000/svg">
<g clip-path="url(#clip0_1_15138)">
<rect x="18.0098" y="17.99" width="16" height="16" transform="rotate(180 18.0098 17.99)" fill="#262626"/>
<path d="M5.5 11.5536V10.1816C5.5 10.0659 5.56082 9.95862 5.66016 9.89922L6.67159 9.29439C7.54092 8.77453 8.5349 8.5 9.54782 8.5C10.5002 8.5 11.4369 8.25728 12.2694 7.79476L15.2433 6.14262C15.3214 6.09924 15.4086 6.18277 15.3687 6.26266L14.6508 7.69831C13.9204 9.15922 12.588 10.228 11.0035 10.6241C10.0197 10.8701 9.12122 11.3788 8.40417 12.0958L7.64416 12.8558C7.5564 12.9436 7.42538 12.9718 7.30927 12.928L6.14682 12.4892C5.75759 12.3422 5.5 11.9697 5.5 11.5536Z" fill="#F5F5F5"/>
<path d="M4.5 13L7 11" stroke="#F5F5F5" stroke-linecap="round"/>
</g>
<defs>
<clipPath id="clip0_1_15138">
<rect x="2.00488" y="1.995" width="16" height="16" rx="8" fill="white"/>
</clipPath>
</defs>
</svg>
