<svg width="20" height="20" viewBox="0 0 20 20" fill="none" xmlns="http://www.w3.org/2000/svg">
<g clip-path="url(#clip0_1_14954)">
<rect x="18.0098" y="17.99" width="16" height="16" transform="rotate(180 18.0098 17.99)" fill="#C2410C"/>
<path d="M2 2L18 18H2V2Z" fill="#262626"/>
<path d="M6.22755 7.83853C6.3133 7.57459 6.6867 7.57459 6.77245 7.83853C6.81081 7.95656 6.9208 8.03647 7.04491 8.03647C7.32242 8.03647 7.43781 8.39159 7.21329 8.55471C7.11289 8.62766 7.07087 8.75697 7.10922 8.875C7.19498 9.13893 6.8929 9.35841 6.66839 9.19529C6.56798 9.12234 6.43202 9.12234 6.33161 9.19529C6.1071 9.35841 5.80502 9.13893 5.89078 8.875C5.92913 8.75697 5.88711 8.62766 5.78671 8.55471C5.56219 8.39159 5.67758 8.03647 5.95509 8.03647C6.0792 8.03647 6.18919 7.95656 6.22755 7.83853Z" fill="#F5F5F5"/>
<path d="M4.22755 10.8385C4.3133 10.5746 4.6867 10.5746 4.77245 10.8385C4.81081 10.9566 4.9208 11.0365 5.04491 11.0365C5.32242 11.0365 5.43781 11.3916 5.21329 11.5547C5.11289 11.6277 5.07087 11.757 5.10922 11.875C5.19498 12.1389 4.8929 12.3584 4.66839 12.1953C4.56798 12.1223 4.43202 12.1223 4.33161 12.1953C4.1071 12.3584 3.80502 12.1389 3.89078 11.875C3.92913 11.757 3.88711 11.6277 3.78671 11.5547C3.56219 11.3916 3.67758 11.0365 3.95509 11.0365C4.0792 11.0365 4.18919 10.9566 4.22755 10.8385Z" fill="#F5F5F5"/>
<path d="M8.22755 9.83853C8.3133 9.57459 8.6867 9.57459 8.77245 9.83853C8.81081 9.95656 8.9208 10.0365 9.04491 10.0365C9.32242 10.0365 9.43781 10.3916 9.21329 10.5547C9.11289 10.6277 9.07087 10.757 9.10922 10.875C9.19498 11.1389 8.8929 11.3584 8.66839 11.1953C8.56798 11.1223 8.43202 11.1223 8.33161 11.1953C8.1071 11.3584 7.80502 11.1389 7.89078 10.875C7.92913 10.757 7.88711 10.6277 7.78671 10.5547C7.56219 10.3916 7.67758 10.0365 7.95509 10.0365C8.0792 10.0365 8.18919 9.95656 8.22755 9.83853Z" fill="#F5F5F5"/>
<path d="M7.22755 14.8385C7.3133 14.5746 7.6867 14.5746 7.77245 14.8385C7.81081 14.9566 7.9208 15.0365 8.04491 15.0365C8.32242 15.0365 8.43781 15.3916 8.21329 15.5547C8.11289 15.6277 8.07087 15.757 8.10922 15.875C8.19498 16.1389 7.8929 16.3584 7.66839 16.1953C7.56798 16.1223 7.43202 16.1223 7.33161 16.1953C7.1071 16.3584 6.80502 16.1389 6.89078 15.875C6.92913 15.757 6.88711 15.6277 6.78671 15.5547C6.56219 15.3916 6.67758 15.0365 6.95509 15.0365C7.0792 15.0365 7.18919 14.9566 7.22755 14.8385Z" fill="#F5F5F5"/>
<ellipse cx="7.5" cy="12.5" rx="0.5" ry="0.5" transform="rotate(90 7.5 12.5)" fill="#F5F5F5"/>
<path d="M10.5 6H10.5858C10.851 6 11.1054 6.10536 11.2929 6.29289L12.5 7.5M13 8L15.0423 10.0423C15.4518 10.4518 15.0618 11.1405 14.5 11V11" stroke="#FACC15" stroke-width="0.5" stroke-linecap="round"/>
<path d="M11.7 7H10.9142C10.649 7 10.3946 7.10536 10.2071 7.29289L9.51213 7.98787C9.32314 8.17686 9.45699 8.5 9.72426 8.5H11.2838C11.4129 8.5 11.5275 8.58263 11.5684 8.70513L11.8264 9.47922C11.9345 9.80358 12.2009 10.0502 12.5326 10.1331L13.5149 10.3787C13.7346 10.4337 13.9337 10.2346 13.8787 10.0149L13.615 8.95991C13.5616 8.74625 13.7489 8.54978 13.9649 8.59297L15.3985 8.8797C15.6433 8.92866 15.8373 8.67465 15.7257 8.45137L15.1852 7.37048C15.0666 7.13327 14.8586 6.95288 14.607 6.86901L13.7051 6.56838C13.5826 6.52754 13.5 6.4129 13.5 6.28377V4.72426C13.5 4.45699 13.1769 4.32314 12.9879 4.51213L12.0879 5.41213C12.0316 5.46839 12 5.5447 12 5.62426V6.7C12 6.86569 11.8657 7 11.7 7Z" fill="#FACC15"/>
</g>
<defs>
<clipPath id="clip0_1_14954">
<rect x="2.00488" y="1.995" width="16" height="16" rx="8" fill="white"/>
</clipPath>
</defs>
</svg>
