<svg width="20" height="20" viewBox="0 0 20 20" fill="none" xmlns="http://www.w3.org/2000/svg">
<g clip-path="url(#clip0_1_14827)">
<rect x="17.9999" y="17.9999" width="16" height="16" transform="rotate(-180 17.9999 17.9999)" fill="#0284C7"/>
<rect x="18" y="18" width="16" height="8" transform="rotate(-180 18 18)" fill="#EA580C"/>
<rect x="3.65686" y="15.6568" width="8" height="8" rx="1" transform="rotate(-135 3.65686 15.6568)" fill="#F5F5F5"/>
</g>
<path d="M4.71864 8.24592C4.81529 7.98473 5.18471 7.98473 5.28136 8.24592L5.62735 9.18097C5.65774 9.26308 5.72248 9.32782 5.8046 9.35821L6.73965 9.70421C7.00083 9.80086 7.00083 10.1703 6.73965 10.2669L5.8046 10.6129C5.72248 10.6433 5.65774 10.708 5.62735 10.7902L5.28136 11.7252C5.18471 11.9864 4.81529 11.9864 4.71864 11.7252L4.37265 10.7902C4.34226 10.708 4.27752 10.6433 4.1954 10.6129L3.26035 10.2669C2.99917 10.1703 2.99917 9.80086 3.26035 9.70421L4.1954 9.35821C4.27752 9.32782 4.34226 9.26308 4.37265 9.18097L4.71864 8.24592Z" fill="#FACC15"/>
<path d="M3.96883 11.4146C3.71581 11.531 3.45459 11.2697 3.57093 11.0167L3.98746 10.1109C4.02403 10.0313 4.02403 9.93977 3.98746 9.86022L3.57093 8.95439C3.45459 8.70136 3.71581 8.44014 3.96883 8.55649L4.87467 8.97301C4.95422 9.00959 5.04578 9.00959 5.12533 8.97301L6.03117 8.55649C6.28419 8.44014 6.54541 8.70136 6.42907 8.95439L6.01254 9.86022C5.97597 9.93977 5.97597 10.0313 6.01254 10.1109L6.42907 11.0167C6.54541 11.2697 6.28419 11.531 6.03117 11.4146L5.12533 10.9981C5.04578 10.9615 4.95422 10.9615 4.87467 10.9981L3.96883 11.4146Z" fill="#FACC15"/>
<defs>
<clipPath id="clip0_1_14827">
<rect x="2.00488" y="1.995" width="16" height="16" rx="8" fill="white"/>
</clipPath>
</defs>
</svg>
