<svg width="20" height="20" viewBox="0 0 20 20" fill="none" xmlns="http://www.w3.org/2000/svg">
<g clip-path="url(#clip0_1_14882)">
<path d="M17.9999 17.9999L1.99994 17.9999L1.99994 1.99994L17.9999 1.99994L17.9999 17.9999Z" fill="#15803D"/>
<path d="M1.99994 17.9999L1.99994 1.99994L17.9999 1.99994L1.99994 17.9999Z" fill="#0284C7"/>
<path d="M15.6569 4.34314L4.34315 15.6568" stroke="#FACC15" stroke-width="1.5" stroke-linecap="round"/>
<path d="M5.22755 4.83853C5.3133 4.57459 5.6867 4.57459 5.77245 4.83853C5.81081 4.95656 5.9208 5.03647 6.04491 5.03647C6.32242 5.03647 6.43781 5.39159 6.21329 5.55471C6.11289 5.62766 6.07087 5.75697 6.10922 5.875C6.19498 6.13893 5.8929 6.35841 5.66839 6.19529C5.56798 6.12234 5.43202 6.12234 5.33161 6.19529C5.1071 6.35841 4.80502 6.13893 4.89078 5.875C4.92913 5.75697 4.88711 5.62766 4.78671 5.55471C4.56219 5.39159 4.67758 5.03647 4.95509 5.03647C5.0792 5.03647 5.18919 4.95656 5.22755 4.83853Z" fill="#F5F5F5"/>
<path d="M8.22755 4.83853C8.3133 4.57459 8.6867 4.57459 8.77245 4.83853C8.81081 4.95656 8.9208 5.03647 9.04491 5.03647C9.32242 5.03647 9.43781 5.39159 9.21329 5.55471C9.11289 5.62766 9.07087 5.75697 9.10922 5.875C9.19498 6.13893 8.8929 6.35841 8.66839 6.19529C8.56798 6.12234 8.43202 6.12234 8.33161 6.19529C8.1071 6.35841 7.80502 6.13893 7.89078 5.875C7.92913 5.75697 7.88711 5.62766 7.78671 5.55471C7.56219 5.39159 7.67758 5.03647 7.95509 5.03647C8.0792 5.03647 8.18919 4.95656 8.22755 4.83853Z" fill="#F5F5F5"/>
<path d="M5.22755 7.83853C5.3133 7.57459 5.6867 7.57459 5.77245 7.83853C5.81081 7.95656 5.9208 8.03647 6.04491 8.03647C6.32242 8.03647 6.43781 8.39159 6.21329 8.55471C6.11289 8.62766 6.07087 8.75697 6.10922 8.875C6.19498 9.13893 5.8929 9.35841 5.66839 9.19529C5.56798 9.12234 5.43202 9.12234 5.33161 9.19529C5.1071 9.35841 4.80502 9.13893 4.89078 8.875C4.92913 8.75697 4.88711 8.62766 4.78671 8.55471C4.56219 8.39159 4.67758 8.03647 4.95509 8.03647C5.0792 8.03647 5.18919 7.95656 5.22755 7.83853Z" fill="#F5F5F5"/>
<path d="M8.22755 7.83853C8.3133 7.57459 8.6867 7.57459 8.77245 7.83853C8.81081 7.95656 8.9208 8.03647 9.04491 8.03647C9.32242 8.03647 9.43781 8.39159 9.21329 8.55471C9.11289 8.62766 9.07087 8.75697 9.10922 8.875C9.19498 9.13893 8.8929 9.35841 8.66839 9.19529C8.56798 9.12234 8.43202 9.12234 8.33161 9.19529C8.1071 9.35841 7.80502 9.13893 7.89078 8.875C7.92913 8.75697 7.88711 8.62766 7.78671 8.55471C7.56219 8.39159 7.67758 8.03647 7.95509 8.03647C8.0792 8.03647 8.18919 7.95656 8.22755 7.83853Z" fill="#F5F5F5"/>
<path d="M6.73243 6.33352C6.81819 6.06959 7.19158 6.06959 7.27734 6.33352C7.31569 6.45155 7.42568 6.53147 7.54979 6.53147C7.8273 6.53147 7.94269 6.88659 7.71818 7.04971C7.61777 7.12266 7.57576 7.25196 7.61411 7.37C7.69986 7.63393 7.39778 7.8534 7.17327 7.69028C7.07286 7.61733 6.9369 7.61733 6.8365 7.69028C6.61198 7.8534 6.3099 7.63393 6.39566 7.36999C6.43401 7.25196 6.392 7.12266 6.29159 7.04971C6.06708 6.88659 6.18246 6.53147 6.45998 6.53147C6.58408 6.53147 6.69408 6.45155 6.73243 6.33352Z" fill="#F5F5F5"/>
</g>
<defs>
<clipPath id="clip0_1_14882">
<rect x="2.00488" y="1.995" width="16" height="16" rx="8" fill="white"/>
</clipPath>
</defs>
</svg>
