<svg width="20" height="20" viewBox="0 0 20 20" fill="none" xmlns="http://www.w3.org/2000/svg">
<g clip-path="url(#clip0_1_15022)">
<path d="M18 17.9999V2.00002H2V17.9999H18Z" fill="#0284C7"/>
<g clip-path="url(#clip1_1_15022)">
<rect width="8" height="8" transform="translate(2 2)" fill="#1E40AF"/>
<path d="M10 9.99994L2 2.00001M2 9.99994L10 2.00001" stroke="#F5F5F5" stroke-width="1.5"/>
<path d="M10 9.99994L2 2.00001M2 9.99994L10 2.00001" stroke="#C2410C" stroke-width="0.75"/>
<path d="M6 9.99994V2.00001M10 5.99997H2" stroke="#F5F5F5" stroke-width="2"/>
<path d="M6 9.99994V2.00001M10 5.99997H2" stroke="#C2410C"/>
</g>
<circle cx="16" cy="7.5" r="0.5" fill="#FACC15"/>
<circle cx="14.5" cy="8.5" r="0.5" fill="#FACC15"/>
<circle cx="13" cy="9" r="0.5" fill="#FACC15"/>
<circle cx="16" cy="10.5" r="0.5" fill="#FACC15"/>
<circle cx="14.5" cy="11" r="0.5" fill="#FACC15"/>
<circle cx="13" cy="12" r="0.5" fill="#FACC15"/>
<circle cx="11.5" cy="12.5" r="0.5" fill="#FACC15"/>
<circle cx="10" cy="13" r="0.5" fill="#FACC15"/>
<circle cx="11.5" cy="11" r="0.5" fill="#FACC15"/>
</g>
<defs>
<clipPath id="clip0_1_15022">
<rect x="2" y="2" width="16" height="16" rx="8" fill="white"/>
</clipPath>
<clipPath id="clip1_1_15022">
<rect width="8" height="8" fill="white" transform="translate(2 2)"/>
</clipPath>
</defs>
</svg>
