<svg width="20" height="20" viewBox="0 0 20 20" fill="none" xmlns="http://www.w3.org/2000/svg">
<g clip-path="url(#clip0_1_14041)">
<path d="M18 17.9999V2.00002H2V17.9999H18Z" fill="#1E40AF"/>
<path d="M18 17.9999L2 2.00002M2 17.9999L18 2.00002" stroke="#F5F5F5" stroke-width="3"/>
<path d="M18 17.9999L2 2.00002M2 17.9999L18 2.00002" stroke="#C2410C" stroke-width="1.5"/>
<path d="M10 17.9999V2.00002M18 9.99995H2" stroke="#F5F5F5" stroke-width="3.5"/>
<path d="M10 17.9999V2.00002M18 9.99995H2" stroke="#C2410C" stroke-width="2"/>
<path d="M18 17.9999V2.00002H2V17.9999H18Z" fill="#C2410C"/>
<rect x="2" y="4" width="16" height="1" fill="#F5F5F5"/>
<rect x="2" y="2" width="16" height="1" fill="#F5F5F5"/>
<rect x="2" y="6" width="16" height="1" fill="#F5F5F5"/>
<rect x="2" y="8" width="16" height="1" fill="#F5F5F5"/>
<rect x="2" y="10" width="16" height="1" fill="#F5F5F5"/>
<rect x="2" y="12" width="16" height="1" fill="#F5F5F5"/>
<rect x="2" y="14" width="16" height="1" fill="#F5F5F5"/>
<rect x="2" y="16" width="16" height="1" fill="#F5F5F5"/>
<path d="M12 10V2H2V10H12Z" fill="#1E40AF"/>
<circle cx="10.5" cy="4.5" r="0.5" fill="#F5F5F5"/>
<circle cx="9" cy="3.5" r="0.5" fill="#F5F5F5"/>
<circle cx="10.5" cy="6.5" r="0.5" fill="#F5F5F5"/>
<circle cx="7.5" cy="6.5" r="0.5" fill="#F5F5F5"/>
<circle cx="4.5" cy="6.5" r="0.5" fill="#F5F5F5"/>
<circle cx="7.5" cy="4.5" r="0.5" fill="#F5F5F5"/>
<circle cx="9" cy="5.5" r="0.5" fill="#F5F5F5"/>
<circle cx="6" cy="5.5" r="0.5" fill="#F5F5F5"/>
<circle cx="10.5" cy="8.5" r="0.5" fill="#F5F5F5"/>
<circle cx="7.5" cy="8.5" r="0.5" fill="#F5F5F5"/>
<circle cx="4.5" cy="8.5" r="0.5" fill="#F5F5F5"/>
<circle cx="9" cy="7.5" r="0.5" fill="#F5F5F5"/>
<circle cx="6" cy="7.5" r="0.5" fill="#F5F5F5"/>
</g>
<defs>
<clipPath id="clip0_1_14041">
<rect x="2" y="2" width="16" height="16" rx="8" fill="white"/>
</clipPath>
</defs>
</svg>
