<svg width="20" height="20" viewBox="0 0 20 20" fill="none" xmlns="http://www.w3.org/2000/svg">
<g clip-path="url(#clip0_1219_30)">
<path d="M18 17.9999V2.00002H2V17.9999H18Z" fill="#354CA1"/>
<path d="M18 17.9999L2 2.00002M2 17.9999L18 2.00002" stroke="#F9F8F7" stroke-width="3"/>
<path d="M18 17.9999L2 2.00002M2 17.9999L18 2.00002" stroke="#BA442C" stroke-width="1.5"/>
<path d="M10 17.9999V2.00002M18 9.99995H2" stroke="#F9F8F7" stroke-width="3.5"/>
<path d="M10 17.9999V2.00002M18 9.99995H2" stroke="#BA442C" stroke-width="2"/>
<path d="M18 17.9999V2.00002H2V17.9999H18Z" fill="#354CA1"/>
<path d="M18 17.9999L2 2.00002M2 17.9999L18 2.00002" stroke="#F9F8F7" stroke-width="3"/>
<path d="M18 17.9999L2 2.00002M2 17.9999L18 2.00002" stroke="#BA442C" stroke-width="1.5"/>
<path d="M10 17.9999V2.00002M18 9.99995H2" stroke="#F9F8F7" stroke-width="4"/>
<path d="M10 17.9999V2.00002M18 9.99995H2" stroke="#BA442C" stroke-width="2.5"/>
</g>
<defs>
<clipPath id="clip0_1219_30">
<rect x="2" y="2" width="16" height="16" rx="8" fill="white"/>
</clipPath>
</defs>
</svg>
