<svg width="20" height="20" viewBox="0 0 20 20" fill="none" xmlns="http://www.w3.org/2000/svg">
<g clip-path="url(#clip0_1_14501)">
<rect x="18.0049" y="17.995" width="16" height="16" rx="8" transform="rotate(180 18.0049 17.995)" fill="#93C5FD"/>
<rect x="2.00983" y="7.32498" width="16" height="5.33" fill="#F5F5F5"/>
<path d="M9.71957 8.37311C9.80937 8.09672 10.2004 8.09672 10.2902 8.37311L10.4988 9.01516C10.539 9.13876 10.6542 9.22245 10.7841 9.22245H11.4592C11.7498 9.22245 11.8707 9.59434 11.6356 9.76516L11.0894 10.162C10.9843 10.2384 10.9403 10.3738 10.9804 10.4974L11.189 11.1394C11.2788 11.4158 10.9625 11.6457 10.7274 11.4748L10.1812 11.078C10.0761 11.0016 9.93369 11.0016 9.82855 11.078L9.28239 11.4748C9.04727 11.6457 8.73093 11.4158 8.82074 11.1394L9.02935 10.4974C9.06951 10.3738 9.02552 10.2384 8.92037 10.162L8.37421 9.76516C8.1391 9.59434 8.25993 9.22245 8.55055 9.22245H9.22564C9.3556 9.22245 9.47079 9.13876 9.51095 9.01516L9.71957 8.37311Z" fill="#EAB308"/>
<path d="M10.2902 11.6169C10.2004 11.8933 9.80937 11.8933 9.71957 11.6169L9.51095 10.9748C9.47079 10.8512 9.3556 10.7675 9.22564 10.7675L8.55055 10.7675C8.25993 10.7675 8.1391 10.3957 8.37421 10.2248L8.92037 9.82803C9.02552 9.75163 9.06951 9.61622 9.02935 9.49261L8.82074 8.85057C8.73093 8.57417 9.04728 8.34434 9.28239 8.51516L9.82855 8.91196C9.93369 8.98836 10.0761 8.98836 10.1812 8.91196L10.7274 8.51516C10.9625 8.34434 11.2788 8.57417 11.189 8.85057L10.9804 9.49262C10.9403 9.61622 10.9843 9.75163 11.0894 9.82803L11.6356 10.2248C11.8707 10.3957 11.7498 10.7675 11.4592 10.7675L10.7841 10.7675C10.6542 10.7675 10.539 10.8512 10.4988 10.9748L10.2902 11.6169Z" fill="#EAB308"/>
</g>
<defs>
<clipPath id="clip0_1_14501">
<rect x="18.0049" y="17.995" width="16" height="16" rx="8" transform="rotate(180 18.0049 17.995)" fill="white"/>
</clipPath>
</defs>
</svg>
