<svg width="20" height="20" viewBox="0 0 20 20" fill="none" xmlns="http://www.w3.org/2000/svg">
<g clip-path="url(#clip0_1_14510)">
<path d="M18 17.9999V2.00002H2V17.9999H18Z" fill="#1E40AF"/>
<path d="M18 17.9999L2 2.00002M2 17.9999L18 2.00002" stroke="#F5F5F5" stroke-width="3"/>
<path d="M18 17.9999L2 2.00002M2 17.9999L18 2.00002" stroke="#C2410C" stroke-width="1.5"/>
<path d="M10 17.9999V2.00002M18 9.99995H2" stroke="#F5F5F5" stroke-width="3.5"/>
<path d="M10 17.9999V2.00002M18 9.99995H2" stroke="#C2410C" stroke-width="2"/>
<path d="M18 17.9999V2.00002H2V17.9999H18Z" fill="#F5F5F5"/>
<rect x="2" y="10" width="16" height="8" fill="#C2410C"/>
<path d="M10 10V2.00003H2V10H10Z" fill="#1E40AF"/>
<path d="M6.21468 4.87812C6.30449 4.60172 6.69551 4.60172 6.78532 4.87812L6.99393 5.52016C7.03409 5.64377 7.14928 5.72746 7.27925 5.72746H7.95434C8.24495 5.72746 8.36579 6.09934 8.13067 6.27016L7.58451 6.66697C7.47937 6.74336 7.43537 6.87877 7.47553 7.00238L7.68415 7.64443C7.77395 7.92082 7.45761 8.15066 7.22249 7.97984L6.67634 7.58303C6.57119 7.50664 6.42881 7.50664 6.32366 7.58303L5.77751 7.97984C5.54239 8.15066 5.22605 7.92082 5.31585 7.64443L5.52447 7.00238C5.56463 6.87877 5.52063 6.74336 5.41549 6.66697L4.86933 6.27016C4.63421 6.09934 4.75505 5.72746 5.04566 5.72746H5.72075C5.85072 5.72746 5.96591 5.64377 6.00607 5.52016L6.21468 4.87812Z" fill="#F5F5F5"/>
</g>
<defs>
<clipPath id="clip0_1_14510">
<rect x="2" y="2" width="16" height="16" rx="8" fill="white"/>
</clipPath>
</defs>
</svg>
