<svg width="20" height="20" viewBox="0 0 20 20" fill="none" xmlns="http://www.w3.org/2000/svg">
<g clip-path="url(#clip0_1_14189)">
<path d="M10 10L2 10L2 2L10 2L10 10Z" fill="#1E40AF"/>
<path d="M18 18L10 18L10 10L18 10L18 18Z" fill="#1E40AF"/>
<path d="M18 10L10 10L10 2L18 2L18 10Z" fill="#C2410C"/>
<path d="M10 18L2 18L2 10L10 10L10 18Z" fill="#C2410C"/>
<path d="M10 17.9999V2.00002M18 9.99995H2" stroke="#F5F5F5" stroke-width="2.5"/>
<path d="M8.58822 9.59998C8.58822 10.1889 8.85007 10.6716 9.25488 11" stroke="#16A34A" stroke-width="0.75" stroke-linecap="round"/>
<path d="M11.4215 9.5882C11.4215 10.1655 11.1597 10.6781 10.7549 11" stroke="#16A34A" stroke-width="0.75" stroke-linecap="round"/>
<rect x="9.25488" y="9" width="1.5" height="1.5" rx="0.3" fill="#C2410C"/>
<path d="M9.5 8.5L10.5 8.5" stroke="#1E40AF" stroke-width="0.75" stroke-linecap="round"/>
</g>
<defs>
<clipPath id="clip0_1_14189">
<rect x="2.00488" y="17.995" width="16" height="16" rx="8" transform="rotate(-90 2.00488 17.995)" fill="white"/>
</clipPath>
</defs>
</svg>
