<svg width="20" height="20" viewBox="0 0 20 20" fill="none" xmlns="http://www.w3.org/2000/svg">
<g clip-path="url(#clip0_1_14444)">
<rect x="2" y="2.00003" width="16" height="16" fill="#FACC15"/>
<rect x="2" y="10" width="16" height="4" fill="#1E40AF"/>
<rect x="2" y="14" width="16" height="4" fill="#C2410C"/>
<path d="M7.62988 7.87H12.3799V10.995C12.3799 11.8925 11.6523 12.62 10.7549 12.62H9.25488C8.35742 12.62 7.62988 11.8925 7.62988 10.995V7.87Z" stroke="#FACC15" stroke-width="0.75"/>
<path fill-rule="evenodd" clip-rule="evenodd" d="M10.0049 11.995C10.9714 11.995 11.7549 11.0996 11.7549 9.99499C11.7549 9.4696 11.0906 9.5227 10.6465 9.80334C10.4519 9.92624 10.2344 9.995 10.0049 9.995C9.77533 9.995 9.55782 9.92624 9.36331 9.80334C8.91915 9.5227 8.25488 9.4696 8.25488 9.99499C8.25488 11.0996 9.03838 11.995 10.0049 11.995Z" fill="#C2410C"/>
<ellipse cx="10" cy="9.995" rx="1" ry="1.25" fill="#0284C7"/>
<path d="M9.25 6.745L9.12847 6.62347C9.04621 6.54121 8.93464 6.495 8.81831 6.495H8.19715C7.4277 6.495 6.68998 6.80163 6.14723 7.34704C6.09278 7.40176 6.13154 7.495 6.20873 7.495H7.84261C7.95009 7.495 8.05687 7.51232 8.15883 7.54631L9.35093 7.94368C9.4529 7.97767 9.55968 7.995 9.66716 7.995H10.3426C10.4501 7.995 10.5569 7.97767 10.6588 7.94368L11.8509 7.54631C11.9529 7.51232 12.0597 7.495 12.1672 7.495H13.7878C13.8659 7.495 13.905 7.40042 13.8496 7.34529C13.3023 6.80071 12.5617 6.495 11.7897 6.495H11.1819C11.0654 6.495 10.9537 6.54127 10.8713 6.62365L10.75 6.745C10.5899 6.90507 10.3728 6.995 10.1464 6.995H9.85355C9.62718 6.995 9.41007 6.90507 9.25 6.745Z" fill="#854D0E"/>
<circle cx="10.0049" cy="9.995" r="0.5" fill="#F5F5F5"/>
</g>
<defs>
<clipPath id="clip0_1_14444">
<rect x="18.0049" y="17.995" width="16" height="16" rx="8" transform="rotate(180 18.0049 17.995)" fill="white"/>
</clipPath>
</defs>
</svg>
