<svg width="20" height="20" viewBox="0 0 20 20" fill="none" xmlns="http://www.w3.org/2000/svg">
<g clip-path="url(#clip0_1_14099)">
<rect x="7.34979" y="17.99" width="16" height="5.33" transform="rotate(-90 7.34979 17.99)" fill="#F5F5F5"/>
<rect x="2.00488" y="17.995" width="16" height="5.33" transform="rotate(-90 2.00488 17.995)" fill="#0284C7"/>
<rect x="12.6797" y="17.99" width="16" height="5.33" transform="rotate(-90 12.6797 17.99)" fill="#0284C7"/>
</g>
<path d="M8.42817 9C8.36675 9.18767 8.33333 9.38962 8.33333 9.6C8.33333 10.1889 8.59518 10.6716 9 11" stroke="#16A34A" stroke-width="0.75" stroke-linecap="round"/>
<path d="M11.5718 9C11.6332 9.18398 11.6667 9.38195 11.6667 9.5882C11.6667 10.1655 11.4048 10.6781 11 11" stroke="#16A34A" stroke-width="0.75" stroke-linecap="round"/>
<rect x="9.25488" y="8.745" width="1.5" height="1.5" rx="0.3" fill="#FACC15"/>
<defs>
<clipPath id="clip0_1_14099">
<rect x="18.0049" y="17.995" width="16" height="16" rx="8" transform="rotate(180 18.0049 17.995)" fill="white"/>
</clipPath>
</defs>
</svg>
