<svg width="20" height="20" viewBox="0 0 20 20" fill="none" xmlns="http://www.w3.org/2000/svg">
<g clip-path="url(#clip0_1_14138)">
<rect x="2.00977" y="7.33496" width="16" height="5.33" fill="#F5F5F5"/>
<rect x="2.00476" y="1.99005" width="16" height="5.33" fill="#0369A1"/>
<rect x="2.00977" y="12.6649" width="16" height="5.33" fill="#0369A1"/>
<path d="M9.81824 9.55902C9.87541 9.38306 10.1243 9.38306 10.1815 9.55902C10.2071 9.63771 10.2804 9.69098 10.3631 9.69098C10.5482 9.69098 10.6251 9.92773 10.4754 10.0365C10.4085 10.0851 10.3805 10.1713 10.406 10.25C10.4632 10.426 10.2618 10.5723 10.1121 10.4635C10.0452 10.4149 9.95456 10.4149 9.88762 10.4635C9.73794 10.5723 9.53656 10.426 9.59373 10.25C9.6193 10.1713 9.59129 10.0851 9.52435 10.0365C9.37467 9.92773 9.4516 9.69098 9.63661 9.69098C9.71935 9.69098 9.79267 9.63771 9.81824 9.55902Z" fill="#0369A1"/>
<path d="M12.8182 8.55902C12.8754 8.38306 13.1243 8.38306 13.1815 8.55902C13.2071 8.63771 13.2804 8.69098 13.3631 8.69098C13.5482 8.69098 13.6251 8.92773 13.4754 9.03647C13.4085 9.08511 13.3805 9.17131 13.406 9.25C13.4632 9.42595 13.2618 9.57227 13.1121 9.46353C13.0452 9.41489 12.9546 9.41489 12.8876 9.46353C12.7379 9.57227 12.5366 9.42595 12.5937 9.25C12.6193 9.17131 12.5913 9.08511 12.5243 9.03647C12.3747 8.92773 12.4516 8.69098 12.6366 8.69098C12.7193 8.69098 12.7927 8.63771 12.8182 8.55902Z" fill="#0369A1"/>
<path d="M6.81824 8.55902C6.87541 8.38306 7.12434 8.38306 7.18151 8.55902C7.20708 8.63771 7.28041 8.69098 7.36315 8.69098C7.54816 8.69098 7.62508 8.92773 7.47541 9.03647C7.40847 9.08511 7.38046 9.17131 7.40603 9.25C7.4632 9.42595 7.26181 9.57227 7.11214 9.46353C7.0452 9.41489 6.95456 9.41489 6.88762 9.46353C6.73794 9.57227 6.53656 9.42595 6.59373 9.25C6.6193 9.17131 6.59129 9.08511 6.52435 9.03647C6.37467 8.92773 6.4516 8.69098 6.63661 8.69098C6.71935 8.69098 6.79267 8.63771 6.81824 8.55902Z" fill="#0369A1"/>
<path d="M12.8182 10.559C12.8754 10.3831 13.1243 10.3831 13.1815 10.559C13.2071 10.6377 13.2804 10.691 13.3631 10.691C13.5482 10.691 13.6251 10.9277 13.4754 11.0365C13.4085 11.0851 13.3805 11.1713 13.406 11.25C13.4632 11.426 13.2618 11.5723 13.1121 11.4635C13.0452 11.4149 12.9546 11.4149 12.8876 11.4635C12.7379 11.5723 12.5366 11.426 12.5937 11.25C12.6193 11.1713 12.5913 11.0851 12.5243 11.0365C12.3747 10.9277 12.4516 10.691 12.6366 10.691C12.7193 10.691 12.7927 10.6377 12.8182 10.559Z" fill="#0369A1"/>
<path d="M6.81824 10.559C6.87541 10.3831 7.12434 10.3831 7.18151 10.559C7.20708 10.6377 7.28041 10.691 7.36315 10.691C7.54816 10.691 7.62508 10.9277 7.47541 11.0365C7.40847 11.0851 7.38046 11.1713 7.40603 11.25C7.4632 11.426 7.26181 11.5723 7.11214 11.4635C7.0452 11.4149 6.95456 11.4149 6.88762 11.4635C6.73794 11.5723 6.53656 11.426 6.59373 11.25C6.6193 11.1713 6.59129 11.0851 6.52435 11.0365C6.37467 10.9277 6.4516 10.691 6.63661 10.691C6.71935 10.691 6.79267 10.6377 6.81824 10.559Z" fill="#0369A1"/>
</g>
<defs>
<clipPath id="clip0_1_14138">
<rect x="18.0049" y="17.995" width="16" height="16" rx="8" transform="rotate(180 18.0049 17.995)" fill="white"/>
</clipPath>
</defs>
</svg>
