<svg width="20" height="20" viewBox="0 0 20 20" fill="none" xmlns="http://www.w3.org/2000/svg">
<g clip-path="url(#clip0_1_14075)">
<path d="M12.6649 17.995L12.6649 1.995L17.9949 1.99499L17.9949 17.995L12.6649 17.995Z" fill="#C2410C"/>
<rect x="2" y="17.995" width="16" height="5.33" transform="rotate(-90 2 17.995)" fill="#16A34A"/>
<rect x="7.3349" y="17.995" width="16" height="5.33" transform="rotate(-90 7.3349 17.995)" fill="#F5F5F5"/>
<path d="M12 10C12 11.1046 11.1046 12 10 12C8.89543 12 8 11.1046 8 10" stroke="#16A34A" stroke-width="0.75" stroke-linecap="round"/>
<path d="M11 10.5H9" stroke="#0284C7" stroke-width="0.75" stroke-linecap="round"/>
<path d="M9.7 7H9.22426C8.95699 7 8.82314 7.32314 9.01213 7.51213L9.24124 7.74124C9.37511 7.87511 9.35304 8.09798 9.19552 8.20299L9.17602 8.21599C8.60194 8.59871 8.57875 9.43407 9.13072 9.84804L9.92 10.44C9.97193 10.4789 10.0351 10.5 10.1 10.5H10.7757C11.043 10.5 11.1769 10.1769 10.9879 9.98787L10.3018 9.30178C10.1904 9.19041 10.2693 9 10.4268 9C10.4737 9 10.5186 9.01862 10.5518 9.05178L10.9121 9.41213C10.9684 9.46839 11.0447 9.5 11.1243 9.5H11.7C11.8657 9.5 12 9.36569 12 9.2L12 8C12 7.44771 11.5523 7 11 7H10.5549C10.3892 7 10.2549 7.13431 10.2549 7.3V7.87256C10.2549 7.94294 10.1978 8 10.1274 8C10.0571 8 10 7.94294 10 7.87256L10 7.3C10 7.13431 9.86569 7 9.7 7Z" fill="#A16207"/>
<path d="M9.5 7.745H9M10.5 10.5H10" stroke="#EAB308" stroke-width="0.75" stroke-linecap="round"/>
</g>
<defs>
<clipPath id="clip0_1_14075">
<rect x="2.00488" y="1.995" width="16" height="16" rx="8" fill="white"/>
</clipPath>
</defs>
</svg>
