<svg width="20" height="20" viewBox="0 0 20 20" fill="none" xmlns="http://www.w3.org/2000/svg">
<g clip-path="url(#clip0_1_14150)">
<rect x="2.00983" y="7.33496" width="16" height="5.33" fill="#F5F5F5"/>
<rect x="2.00482" y="1.99005" width="16" height="5.33" fill="#0284C7"/>
<rect x="2.00983" y="12.6649" width="16" height="5.33" fill="#0284C7"/>
<path d="M9.74019 8.94499C9.85566 8.74499 10.1443 8.745 10.2598 8.945L10.866 9.995L11.4722 11.045C11.5877 11.245 11.4434 11.495 11.2124 11.495H10H8.78756C8.55662 11.495 8.41229 11.245 8.52776 11.045L9.13397 9.995L9.74019 8.94499Z" fill="#7DD3FC"/>
<path d="M10.6928 9.995C10.8 9.995 10.899 10.0522 10.9526 10.145L11.4722 11.045C11.5877 11.245 11.4434 11.495 11.2124 11.495H10H8.78756C8.55662 11.495 8.41228 11.245 8.52775 11.045L9.04737 10.145C9.10096 10.0522 9.2 9.995 9.30717 9.995H10.6928Z" fill="#16A34A"/>
</g>
<defs>
<clipPath id="clip0_1_14150">
<rect x="18.0049" y="17.995" width="16" height="16" rx="8" transform="rotate(180 18.0049 17.995)" fill="white"/>
</clipPath>
</defs>
</svg>
