<svg width="20" height="20" viewBox="0 0 20 20" fill="none" xmlns="http://www.w3.org/2000/svg">
<g clip-path="url(#clip0_1_14085)">
<path d="M18 17.9999V2.00002H2V17.9999H18Z" fill="#F5F5F5"/>
<rect x="2" y="2" width="16" height="3" fill="#C2410C"/>
<rect x="2" y="8" width="16" height="4" fill="#C2410C"/>
<rect x="2" y="15" width="16" height="3" fill="#C2410C"/>
<rect x="3.65686" y="15.6569" width="8" height="8" rx="1" transform="rotate(-135 3.65686 15.6569)" fill="#0284C7"/>
<path d="M4.71468 8.12812C4.80449 7.85172 5.19551 7.85172 5.28532 8.12812L5.49393 8.77016C5.53409 8.89377 5.64928 8.97746 5.77925 8.97746H6.45434C6.74495 8.97746 6.86579 9.34934 6.63067 9.52016L6.08451 9.91697C5.97937 9.99336 5.93537 10.1288 5.97553 10.2524L6.18415 10.8944C6.27395 11.1708 5.95761 11.4007 5.72249 11.2298L5.17634 10.833C5.07119 10.7566 4.92881 10.7566 4.82366 10.833L4.27751 11.2298C4.04239 11.4007 3.72605 11.1708 3.81585 10.8944L4.02447 10.2524C4.06463 10.1288 4.02063 9.99336 3.91549 9.91697L3.36933 9.52016C3.13421 9.34934 3.25505 8.97746 3.54566 8.97746H4.22075C4.35072 8.97746 4.46591 8.89377 4.50607 8.77016L4.71468 8.12812Z" fill="#F5F5F5"/>
</g>
<defs>
<clipPath id="clip0_1_14085">
<rect x="2" y="2" width="16" height="16" rx="8" fill="white"/>
</clipPath>
</defs>
</svg>
