<svg width="20" height="20" viewBox="0 0 20 20" fill="none" xmlns="http://www.w3.org/2000/svg">
<g clip-path="url(#clip0_1_14479)">
<rect x="2" y="2" width="16" height="16" fill="#F5F5F5"/>
<rect x="2" y="2" width="16" height="5.33" fill="#C2410C"/>
<rect x="2" y="12.665" width="16" height="5.33" fill="#0284C7"/>
<path d="M11 8.87259C11.3097 9.14738 11.5049 9.54839 11.5049 9.99499C11.5049 10.8234 10.8333 11.495 10.0049 11.495C9.17646 11.495 8.50488 10.8234 8.50488 9.99499C8.50488 9.54839 8.70006 9.14738 9.00977 8.87259" stroke="#16A34A" stroke-width="0.75" stroke-linecap="round"/>
</g>
<path d="M9.81836 9.55902C9.87554 9.38306 10.1245 9.38306 10.1816 9.55902C10.2072 9.63771 10.2805 9.69098 10.3633 9.69098C10.5483 9.69098 10.6252 9.92773 10.4755 10.0365C10.4086 10.0851 10.3806 10.1713 10.4061 10.25C10.4633 10.426 10.2619 10.5723 10.1123 10.4635C10.0453 10.4149 9.95468 10.4149 9.88774 10.4635C9.73807 10.5723 9.53668 10.426 9.59385 10.25C9.61942 10.1713 9.59141 10.0851 9.52447 10.0365C9.3748 9.92773 9.45172 9.69098 9.63673 9.69098C9.71947 9.69098 9.7928 9.63771 9.81836 9.55902Z" fill="#FACC15"/>
<defs>
<clipPath id="clip0_1_14479">
<rect x="18.0049" y="17.995" width="16" height="16" rx="8" transform="rotate(180 18.0049 17.995)" fill="white"/>
</clipPath>
</defs>
</svg>
