<svg width="20" height="20" viewBox="0 0 20 20" fill="none" xmlns="http://www.w3.org/2000/svg">
<g clip-path="url(#clip0_1_14167)">
<rect x="18" y="18" width="16" height="16" transform="rotate(180 18 18)" fill="#F5F5F5"/>
<rect x="10" y="18" width="8" height="8" transform="rotate(180 10 18)" fill="#1E40AF"/>
<rect x="18" y="10" width="8" height="8" transform="rotate(180 18 10)" fill="#C2410C"/>
<path d="M6.21468 4.87812C6.30449 4.60172 6.69551 4.60172 6.78532 4.87812L6.99393 5.52016C7.03409 5.64377 7.14928 5.72746 7.27925 5.72746H7.95434C8.24495 5.72746 8.36579 6.09934 8.13067 6.27016L7.58451 6.66697C7.47937 6.74336 7.43537 6.87877 7.47553 7.00238L7.68415 7.64443C7.77395 7.92082 7.45761 8.15066 7.22249 7.97984L6.67634 7.58303C6.57119 7.50664 6.42881 7.50664 6.32366 7.58303L5.77751 7.97984C5.54239 8.15066 5.22605 7.92082 5.31585 7.64443L5.52447 7.00238C5.56463 6.87877 5.52063 6.74336 5.41549 6.66697L4.86933 6.27016C4.63421 6.09934 4.75505 5.72746 5.04566 5.72746H5.72075C5.85072 5.72746 5.96591 5.64377 6.00607 5.52016L6.21468 4.87812Z" fill="#1E40AF"/>
<path d="M13.2147 11.8781C13.3045 11.6017 13.6955 11.6017 13.7853 11.8781L13.9939 12.5202C14.0341 12.6438 14.1493 12.7275 14.2792 12.7275H14.9543C15.245 12.7275 15.3658 13.0993 15.1307 13.2702L14.5845 13.667C14.4794 13.7434 14.4354 13.8788 14.4755 14.0024L14.6841 14.6444C14.774 14.9208 14.4576 15.1507 14.2225 14.9798L13.6763 14.583C13.5712 14.5066 13.4288 14.5066 13.3237 14.583L12.7775 14.9798C12.5424 15.1507 12.226 14.9208 12.3159 14.6444L12.5245 14.0024C12.5646 13.8788 12.5206 13.7434 12.4155 13.667L11.8693 13.2702C11.6342 13.0993 11.755 12.7275 12.0457 12.7275H12.7208C12.8507 12.7275 12.9659 12.6438 13.0061 12.5202L13.2147 11.8781Z" fill="#C2410C"/>
</g>
<defs>
<clipPath id="clip0_1_14167">
<rect x="2.00488" y="17.995" width="16" height="16" rx="8" transform="rotate(-90 2.00488 17.995)" fill="white"/>
</clipPath>
</defs>
</svg>
