<svg width="20" height="20" viewBox="0 0 20 20" fill="none" xmlns="http://www.w3.org/2000/svg">
<g clip-path="url(#clip0_1_14129)">
<rect x="2.00977" y="7.33496" width="16" height="5.33" fill="#F5F5F5"/>
<rect x="2.00476" y="1.99005" width="16" height="5.33" fill="#0284C7"/>
<rect x="2.00977" y="12.6649" width="16" height="5.33" fill="#0284C7"/>
<path d="M9.74019 9.69499C9.85566 9.49499 10.1443 9.495 10.2598 9.695L10.433 9.995L10.6062 10.295C10.7217 10.495 10.5774 10.745 10.3464 10.745H10H9.65359C9.42265 10.745 9.27831 10.495 9.39378 10.295L9.56699 9.995L9.74019 9.69499Z" fill="#FACC15"/>
<path d="M11 8.87262C11.3097 9.14741 11.5049 9.54842 11.5049 9.99502C11.5049 10.8235 10.8333 11.495 10.0049 11.495C9.17646 11.495 8.50488 10.8235 8.50488 9.99502C8.50488 9.54842 8.70006 9.14741 9.00977 8.87262" stroke="#16A34A" stroke-width="0.75" stroke-linecap="round"/>
<circle cx="10.0049" cy="9.5" r="0.5" fill="#F87171"/>
</g>
<defs>
<clipPath id="clip0_1_14129">
<rect x="18.0049" y="17.995" width="16" height="16" rx="8" transform="rotate(180 18.0049 17.995)" fill="white"/>
</clipPath>
</defs>
</svg>
