<svg width="20" height="20" viewBox="0 0 20 20" fill="none" xmlns="http://www.w3.org/2000/svg">
<g clip-path="url(#clip0_1_14487)">
<path d="M18 17.9999V2.00002H2V17.9999H18Z" fill="#1E40AF"/>
<rect x="2" y="1.99997" width="16" height="1.77778" fill="#F5F5F5"/>
<rect x="2" y="5.55551" width="16" height="1.77778" fill="#F5F5F5"/>
<rect x="2" y="9.11105" width="16" height="1.77778" fill="#F5F5F5"/>
<rect x="2" y="12.6667" width="16" height="1.77778" fill="#F5F5F5"/>
<rect x="2" y="16.2222" width="16" height="1.77778" fill="#F5F5F5"/>
<path d="M10 10V2.00003H2V10H10Z" fill="#F5F5F5"/>
<path d="M6.21462 4.37811C6.30442 4.10172 6.69545 4.10172 6.78525 4.37812L7.10611 5.36561C7.14627 5.48922 7.26146 5.5729 7.39142 5.5729H8.42974C8.72035 5.5729 8.84118 5.94479 8.60607 6.11561L7.76606 6.72591C7.66091 6.80231 7.61692 6.93772 7.65708 7.06132L7.97793 8.04882C8.06774 8.32521 7.75139 8.55505 7.51628 8.38423L6.67627 7.77392C6.57112 7.69753 6.42874 7.69753 6.3236 7.77392L5.48359 8.38423C5.24847 8.55505 4.93213 8.32521 5.02193 8.04882L5.34279 7.06132C5.38295 6.93772 5.33895 6.80231 5.23381 6.72591L4.3938 6.11561C4.15868 5.94479 4.27952 5.5729 4.57013 5.5729H5.60844C5.73841 5.5729 5.8536 5.48922 5.89376 5.36561L6.21462 4.37811Z" fill="#EAB308"/>
<path d="M6.78538 8.62189C6.69558 8.89828 6.30455 8.89828 6.21475 8.62188L5.89389 7.63439C5.85373 7.51078 5.73854 7.4271 5.60858 7.4271L4.57026 7.4271C4.27965 7.4271 4.15882 7.05521 4.39393 6.88439L5.23394 6.27409C5.33909 6.19769 5.38308 6.06228 5.34292 5.93868L5.02207 4.95118C4.93226 4.67479 5.24861 4.44495 5.48372 4.61577L6.32373 5.22608C6.42888 5.30247 6.57126 5.30247 6.6764 5.22608L7.51641 4.61577C7.75153 4.44495 8.06787 4.67479 7.97807 4.95118L7.65721 5.93868C7.61705 6.06228 7.66105 6.19769 7.76619 6.27409L8.6062 6.88439C8.84132 7.05521 8.72048 7.4271 8.42987 7.4271L7.39156 7.4271C7.26159 7.4271 7.1464 7.51078 7.10624 7.63439L6.78538 8.62189Z" fill="#EAB308"/>
</g>
<defs>
<clipPath id="clip0_1_14487">
<rect x="2" y="2" width="16" height="16" rx="8" fill="white"/>
</clipPath>
</defs>
</svg>
