<svg width="20" height="20" viewBox="0 0 20 20" fill="none" xmlns="http://www.w3.org/2000/svg">
<g clip-path="url(#clip0_1_15036)">
<path d="M18 17.9999V2.00002H2V17.9999H18Z" fill="#7DD3FC"/>
<g clip-path="url(#clip1_1_15036)">
<rect width="8" height="8" transform="translate(2 2)" fill="#1E40AF"/>
<path d="M10 9.99994L2 2.00001M2 9.99994L10 2.00001" stroke="#F5F5F5" stroke-width="1.5"/>
<path d="M10 9.99994L2 2.00001M2 9.99994L10 2.00001" stroke="#C2410C" stroke-width="0.75"/>
<path d="M6 9.99994V2.00001M10 5.99997H2" stroke="#F5F5F5" stroke-width="2"/>
<path d="M6 9.99994V2.00001M10 5.99997H2" stroke="#C2410C"/>
</g>
<path d="M12 9.3C12 9.13431 12.1343 9 12.3 9L15.7 9C15.8657 9 16 9.13431 16 9.3L16 12C16 13.1046 15.1046 14 14 14C12.8954 14 12 13.1046 12 12L12 9.3Z" fill="#F5F5F5"/>
<path d="M12 9.3C12 9.13431 12.1343 9 12.3 9L15.7 9C15.8657 9 16 9.13431 16 9.3L16 10.2C16 10.3657 15.8657 10.5 15.7 10.5L12.3 10.5C12.1343 10.5 12 10.3657 12 10.2L12 9.3Z" fill="#C2410C"/>
<path d="M14 10.5V13.5" stroke="#C2410C" stroke-width="0.75" stroke-linecap="round"/>
<path d="M15.5 12L12.5 12" stroke="#C2410C" stroke-width="0.75" stroke-linecap="round"/>
<path d="M12.75 9.75C14.75 9.75 15.25 9.75 15.25 9.75" stroke="#FACC15" stroke-width="0.75" stroke-linecap="round"/>
</g>
<defs>
<clipPath id="clip0_1_15036">
<rect x="2" y="2" width="16" height="16" rx="8" fill="white"/>
</clipPath>
<clipPath id="clip1_1_15036">
<rect width="8" height="8" fill="white" transform="translate(2 2)"/>
</clipPath>
</defs>
</svg>
