<svg width="20" height="20" viewBox="0 0 20 20" fill="none" xmlns="http://www.w3.org/2000/svg">
<g clip-path="url(#clip0_1_15633)">
<path d="M17.9999 17.9999L1.99994 17.9999L1.99994 1.99993L17.9999 1.99993L17.9999 17.9999Z" fill="#0284C7"/>
<path d="M15.6569 4.34313L4.34315 15.6568" stroke="#C2410C" stroke-width="3" stroke-linecap="round"/>
<path d="M16.7549 5.24498L5.25488 16.745" stroke="#FACC15" stroke-width="0.75" stroke-linecap="round"/>
<path d="M14.7549 3.24498L3.25488 14.745" stroke="#FACC15" stroke-width="0.75" stroke-linecap="round"/>
<path d="M6.21468 4.87812C6.30449 4.60172 6.69551 4.60172 6.78532 4.87812L6.99393 5.52016C7.03409 5.64377 7.14928 5.72746 7.27925 5.72746H7.95434C8.24495 5.72746 8.36579 6.09934 8.13067 6.27016L7.58451 6.66697C7.47937 6.74336 7.43537 6.87877 7.47553 7.00238L7.68415 7.64443C7.77395 7.92082 7.45761 8.15066 7.22249 7.97984L6.67634 7.58303C6.57119 7.50664 6.42881 7.50664 6.32366 7.58303L5.77751 7.97984C5.54239 8.15066 5.22605 7.92082 5.31585 7.64443L5.52447 7.00238C5.56463 6.87877 5.52063 6.74336 5.41549 6.66697L4.86933 6.27016C4.63421 6.09934 4.75505 5.72746 5.04566 5.72746H5.72075C5.85072 5.72746 5.96591 5.64377 6.00607 5.52016L6.21468 4.87812Z" fill="#FACC15"/>
</g>
<defs>
<clipPath id="clip0_1_15633">
<rect x="2.00488" y="1.995" width="16" height="16" rx="8" fill="white"/>
</clipPath>
</defs>
</svg>
