<svg width="20" height="20" viewBox="0 0 20 20" fill="none" xmlns="http://www.w3.org/2000/svg">
<g clip-path="url(#clip0_1_14025)">
<path d="M2 18L2 2L18 2L18 18L2 18Z" fill="#F5F5F5"/>
<rect x="14" y="18" width="16" height="4" transform="rotate(-90 14 18)" fill="#C2410C"/>
<rect x="2" y="18" width="16" height="4" transform="rotate(-90 2 18)" fill="#C2410C"/>
<path fill-rule="evenodd" clip-rule="evenodd" d="M9.72097 7.46168C9.8007 7.17277 10.2104 7.17277 10.2901 7.46168L10.3104 7.53509C10.3555 7.69831 10.5497 7.76628 10.6867 7.66675C10.8643 7.5377 11.1083 7.69231 11.0674 7.90803L10.9338 8.61384C10.8756 8.92106 11.2675 9.10122 11.4628 8.85706L11.6441 8.6305C11.7715 8.47115 12.0283 8.5502 12.044 8.75366C12.0573 8.92504 12.2501 9.01882 12.3931 8.92346L12.4628 8.87703C12.6895 8.72586 12.9597 8.99602 12.8085 9.22277L12.7646 9.28872C12.6729 9.42622 12.7715 9.61039 12.9367 9.61039C13.1293 9.61039 13.2174 9.85036 13.0706 9.975L11.8181 11.0386C11.7167 11.1248 11.6841 11.2675 11.7382 11.3891L11.7927 11.5118C11.8856 11.721 11.7195 11.953 11.4916 11.9324L10.027 11.8003C10.009 11.7987 9.99099 11.7987 9.97306 11.8003L8.50845 11.9324C8.28048 11.953 8.11438 11.721 8.20735 11.5118L8.25384 11.4072C8.3087 11.2838 8.27429 11.1389 8.16979 11.0533L6.94494 10.05C6.78729 9.92085 6.87082 9.66536 7.0743 9.6543C7.24692 9.64491 7.34385 9.45134 7.24795 9.30749L7.20764 9.24703C7.05294 9.01498 7.32942 8.73851 7.56146 8.89321L7.60273 8.92072C7.74591 9.01618 7.93898 8.92289 7.95317 8.75139C7.97003 8.54776 8.22707 8.46935 8.35471 8.62891L8.54229 8.86338C8.73709 9.10688 9.12799 8.92842 9.0716 8.62173L8.94019 7.90691C8.90042 7.69054 9.14508 7.53642 9.32306 7.66573C9.46072 7.76574 9.6559 7.69745 9.70117 7.53342L9.72097 7.46168Z" fill="#C2410C"/>
<rect x="9.74512" y="9.94055" width="0.5" height="3" rx="0.25" fill="#C2410C"/>
</g>
<defs>
<clipPath id="clip0_1_14025">
<rect x="2.00488" y="1.995" width="16" height="16" rx="8" fill="white"/>
</clipPath>
</defs>
</svg>
