<svg width="20" height="20" viewBox="0 0 20 20" fill="none" xmlns="http://www.w3.org/2000/svg">
<g clip-path="url(#clip0_1_15501)">
<rect x="12.6649" y="17.995" width="16" height="5.33" transform="rotate(-90 12.6649 17.995)" fill="#FACC15"/>
<rect x="2" y="17.995" width="16" height="5.33" transform="rotate(-90 2 17.995)" fill="#16A34A"/>
<rect x="7.3349" y="17.995" width="16" height="5.33" transform="rotate(-90 7.3349 17.995)" fill="#EA580C"/>
</g>
<path d="M9.71468 8.87811C9.80449 8.60172 10.1955 8.60172 10.2853 8.87812L10.3817 9.17467C10.4218 9.29828 10.537 9.38197 10.667 9.38197H10.9788C11.2694 9.38197 11.3903 9.75385 11.1551 9.92467L10.9029 10.108C10.7977 10.1843 10.7537 10.3198 10.7939 10.4434L10.8903 10.7399C10.9801 11.0163 10.6637 11.2461 10.4286 11.0753L10.1763 10.892C10.0712 10.8157 9.92881 10.8157 9.82366 10.892L9.5714 11.0753C9.33628 11.2461 9.01994 11.0163 9.10975 10.7399L9.2061 10.4434C9.24627 10.3198 9.20227 10.1843 9.09712 10.108L8.84486 9.92467C8.60974 9.75385 8.73058 9.38197 9.02119 9.38197H9.33301C9.46298 9.38197 9.57816 9.29828 9.61833 9.17467L9.71468 8.87811Z" fill="#FACC15"/>
<defs>
<clipPath id="clip0_1_15501">
<rect x="2.00488" y="1.995" width="16" height="16" rx="8" fill="white"/>
</clipPath>
</defs>
</svg>
