<svg width="20" height="20" viewBox="0 0 20 20" fill="none" xmlns="http://www.w3.org/2000/svg">
<g clip-path="url(#clip0_1_14362)">
<rect x="2" y="2" width="16" height="16" fill="#262626"/>
<rect x="2" y="1.99994" width="16" height="5" fill="#1E40AF"/>
<path d="M6 5L6.28787 4.71213C6.40503 4.59497 6.59497 4.59497 6.71213 4.71213L7 5M7 5V6M7 5V4M7 5L7.28787 4.71213C7.40503 4.59497 7.59497 4.59497 7.71213 4.71213L8 5" stroke="#FACC15" stroke-width="0.75" stroke-linecap="round"/>
<path d="M9 5L9.28787 4.71213C9.40503 4.59497 9.59497 4.59497 9.71213 4.71213L10 5M10 5V6M10 5V4M10 5L10.2879 4.71213C10.405 4.59497 10.595 4.59497 10.7121 4.71213L11 5" stroke="#FACC15" stroke-width="0.75" stroke-linecap="round"/>
<path d="M12 5L12.2879 4.71213C12.405 4.59497 12.595 4.59497 12.7121 4.71213L13 5M13 5V6M13 5V4M13 5L13.2879 4.71213C13.405 4.59497 13.595 4.59497 13.7121 4.71213L14 5" stroke="#FACC15" stroke-width="0.75" stroke-linecap="round"/>
<path d="M6 9.5L14 14.5" stroke="#16A34A" stroke-linecap="round"/>
</g>
<path d="M9.70604 8.4425C9.77128 8.12237 10.2287 8.12237 10.294 8.4425L10.5555 9.72599C10.6002 9.94541 10.8609 10.0403 11.0362 9.90093L12.0615 9.08584C12.3173 8.88254 12.6677 9.17658 12.5119 9.46375L11.8873 10.6151C11.7805 10.8119 11.9191 11.0521 12.143 11.058L13.4524 11.0928C13.779 11.1014 13.8584 11.5519 13.5545 11.6717L12.3359 12.1522C12.1276 12.2343 12.0794 12.5075 12.2471 12.6559L13.2279 13.5242C13.4725 13.7407 13.2438 14.1369 12.9339 14.0333L11.6916 13.6181C11.4792 13.5471 11.2667 13.7254 11.2998 13.9469L11.493 15.2424C11.5412 15.5656 11.1113 15.722 10.9405 15.4435L10.2557 14.3269C10.1387 14.136 9.86132 14.136 9.74426 14.3269L9.05949 15.4435C8.8887 15.722 8.45884 15.5656 8.50703 15.2424L8.70023 13.9469C8.73326 13.7254 8.52079 13.5471 8.30841 13.6181L7.06609 14.0333C6.75623 14.1369 6.52751 13.7407 6.77213 13.5242L7.75289 12.6559C7.92056 12.5075 7.8724 12.2343 7.66408 12.1522L6.4455 11.6717C6.14156 11.5519 6.22099 11.1014 6.54759 11.0928L7.857 11.058C8.08085 11.0521 8.21953 10.8119 8.11275 10.6151L7.48809 9.46375C7.33229 9.17658 7.68272 8.88254 7.93846 9.08584L8.96385 9.90093C9.13914 10.0403 9.39977 9.94541 9.44448 9.72599L9.70604 8.4425Z" fill="#FACC15"/>
<path d="M10.294 15.5575C10.2287 15.8776 9.77128 15.8776 9.70604 15.5575L9.44449 14.274C9.39977 14.0546 9.13914 13.9597 8.96385 14.0991L7.93847 14.9142C7.68272 15.1175 7.3323 14.8234 7.4881 14.5363L8.11275 13.3849C8.21953 13.1881 8.08086 12.9479 7.85701 12.942L6.54759 12.9072C6.221 12.8986 6.14156 12.4481 6.4455 12.3283L7.66408 11.8478C7.8724 11.7657 7.92056 11.4925 7.7529 11.3441L6.77213 10.4758C6.52751 10.2593 6.75623 9.86311 7.06609 9.96667L8.30841 10.3819C8.52079 10.4529 8.73326 10.2746 8.70023 10.0531L8.50703 8.75758C8.45885 8.43445 8.8887 8.27799 9.05949 8.5565L9.74426 9.67314C9.86132 9.86403 10.1387 9.86403 10.2557 9.67314L10.9405 8.5565C11.1113 8.27799 11.5412 8.43445 11.493 8.75758L11.2998 10.0531C11.2667 10.2746 11.4792 10.4529 11.6916 10.3819L12.9339 9.96667C13.2438 9.86311 13.4725 10.2593 13.2279 10.4758L12.2471 11.3441C12.0794 11.4925 12.1276 11.7657 12.3359 11.8478L13.5545 12.3283C13.8584 12.4481 13.779 12.8986 13.4524 12.9072L12.143 12.942C11.9191 12.9479 11.7805 13.1881 11.8873 13.3849L12.5119 14.5363C12.6677 14.8234 12.3173 15.1175 12.0615 14.9142L11.0362 14.0991C10.8609 13.9597 10.6002 14.0546 10.5555 14.274L10.294 15.5575Z" fill="#FACC15"/>
<defs>
<clipPath id="clip0_1_14362">
<rect x="18.0049" y="17.995" width="16" height="16" rx="8" transform="rotate(180 18.0049 17.995)" fill="white"/>
</clipPath>
</defs>
</svg>
