<svg width="20" height="20" viewBox="0 0 20 20" fill="none" xmlns="http://www.w3.org/2000/svg">
<g clip-path="url(#clip0_1_14224)">
<rect x="18.0049" y="9.995" width="16" height="8" transform="rotate(180 18.0049 9.995)" fill="#1E40AF"/>
<rect x="18.0099" y="17.9999" width="16" height="8" transform="rotate(180 18.0099 17.9999)" fill="#C2410C"/>
<rect x="7" y="7" width="6" height="6" rx="1" fill="#F5F5F5"/>
<path d="M12.0092 13H7.99083C7.69401 13 7.57745 12.615 7.82442 12.4504L9.4453 11.3698C9.7812 11.1459 10.2188 11.1459 10.5547 11.3698L12.1756 12.4504C12.4225 12.615 12.306 13 12.0092 13Z" fill="#16A34A"/>
<circle cx="8.75" cy="10.75" r="0.75" fill="#1E40AF"/>
<circle cx="11.2549" cy="10.75" r="0.75" fill="#1E40AF"/>
<path d="M8.5 11.495H11.5" stroke="#EAB308" stroke-width="0.75" stroke-linecap="round"/>
<circle cx="10.0049" cy="10.75" r="0.75" fill="#C2410C"/>
<path d="M10 9V12" stroke="#A16207" stroke-width="0.75" stroke-linecap="round"/>
<path d="M8.49057 8.30754L9.22609 7.71913C9.4034 7.57728 9.62371 7.5 9.85078 7.5H10.3948C10.4629 7.5 10.529 7.52318 10.5822 7.56574L11.5094 8.30754C11.6989 8.45908 11.4979 8.74895 11.2809 8.64047C11.1527 8.57637 11 8.66863 11 8.81195V8.86394C11 9.07308 10.7069 9.12064 10.6407 8.92224C10.5888 8.76642 10.3744 8.75118 10.301 8.89809L10.2265 9.04692C10.1332 9.2336 9.8668 9.2336 9.77346 9.04692L9.69904 8.89809C9.62559 8.75118 9.41119 8.76642 9.35925 8.92224C9.29312 9.12064 9 9.07308 9 8.86394V8.81195C9 8.66863 8.84726 8.57637 8.71907 8.64047C8.5021 8.74895 8.30115 8.45908 8.49057 8.30754Z" fill="#16A34A"/>
</g>
<defs>
<clipPath id="clip0_1_14224">
<rect x="2.00488" y="17.995" width="16" height="16" rx="8" transform="rotate(-90 2.00488 17.995)" fill="white"/>
</clipPath>
</defs>
</svg>
