<svg width="20" height="20" viewBox="0 0 20 20" fill="none" xmlns="http://www.w3.org/2000/svg">
<g clip-path="url(#clip0_1_15446)">
<rect x="2" y="18" width="16" height="16" transform="rotate(-90 2 18)" fill="#2563EB"/>
<path d="M17.1464 17.1464C17.4614 17.4614 17.2383 18 16.7929 18L3.20711 18C2.76165 18 2.53857 17.4614 2.85355 17.1464L9.64645 10.3536C9.84171 10.1583 10.1583 10.1583 10.3536 10.3536L17.1464 17.1464Z" fill="#EA580C"/>
<path d="M9.70183 7.31651L9.03701 1.33313C9.01727 1.15542 9.15638 1 9.33518 1H10.6648C10.8436 1 10.9827 1.15542 10.963 1.33313L10.2982 7.31651C10.2586 7.67234 9.74137 7.67234 9.70183 7.31651Z" fill="#FDE047"/>
<path d="M12.6835 9.70183L18.6669 9.03701C18.8446 9.01727 19 9.15638 19 9.33518L19 10.6648C19 10.8436 18.8446 10.9827 18.6669 10.963L12.6835 10.2982C12.3277 10.2586 12.3277 9.74137 12.6835 9.70183Z" fill="#FDE047"/>
<path d="M7.31651 10.2982L1.33313 10.963C1.15542 10.9827 1 10.8436 1 10.6648L1 9.33518C1 9.15638 1.15542 9.01727 1.33313 9.03701L7.31651 9.70183C7.67234 9.74137 7.67234 10.2586 7.31651 10.2982Z" fill="#FDE047"/>
<path d="M7.89168 8.31333L3.19069 4.55253C3.05106 4.44083 3.03953 4.23257 3.16596 4.10614L4.10616 3.16594C4.23259 3.03951 4.44086 3.05104 4.55255 3.19066L8.31335 7.89166C8.537 8.17122 8.17124 8.53698 7.89168 8.31333Z" fill="#FDE047"/>
<path d="M11.6867 7.89165L15.4475 3.19066C15.5592 3.05103 15.7674 3.0395 15.8939 3.16593L16.8341 4.10613C16.9605 4.23256 16.949 4.44083 16.8093 4.55252L12.1084 8.31332C11.8288 8.53697 11.463 8.17121 11.6867 7.89165Z" fill="#FDE047"/>
</g>
<defs>
<clipPath id="clip0_1_15446">
<rect x="2.00488" y="1.995" width="16" height="16" rx="8" fill="white"/>
</clipPath>
</defs>
</svg>
