<svg width="20" height="20" viewBox="0 0 20 20" fill="none" xmlns="http://www.w3.org/2000/svg">
<g clip-path="url(#clip0_1_15540)">
<rect x="18" y="18" width="16" height="16" transform="rotate(180 18 18)" fill="#FACC15"/>
<rect x="2" y="15" width="16" height="3" fill="#15803D"/>
<rect x="2" y="2" width="16" height="3" fill="#15803D"/>
<rect x="18" y="12" width="16" height="4" transform="rotate(180 18 12)" fill="#15803D"/>
<rect x="2" y="2" width="8" height="10" fill="#C2410C"/>
<path d="M5.71468 5.87812C5.80449 5.60172 6.19551 5.60172 6.28532 5.87812L6.60619 6.86565C6.64635 6.98926 6.76154 7.07295 6.8915 7.07295H7.92986C8.22048 7.07295 8.34131 7.44483 8.1062 7.61565L7.26615 8.22599C7.161 8.30238 7.11701 8.43779 7.15717 8.5614L7.47804 9.54893C7.56784 9.82533 7.2515 10.0552 7.01639 9.88435L6.17634 9.27401C6.07119 9.19762 5.92881 9.19762 5.82366 9.27401L4.98361 9.88435C4.7485 10.0552 4.43216 9.82533 4.52196 9.54894L4.84283 8.5614C4.88299 8.43779 4.839 8.30238 4.73385 8.22599L3.8938 7.61565C3.65869 7.44483 3.77952 7.07295 4.07014 7.07295H5.1085C5.23846 7.07295 5.35365 6.98926 5.39381 6.86565L5.71468 5.87812Z" fill="#F5F5F5"/>
</g>
<defs>
<clipPath id="clip0_1_15540">
<rect x="2.00488" y="17.995" width="16" height="16" rx="8" transform="rotate(-90 2.00488 17.995)" fill="white"/>
</clipPath>
</defs>
</svg>
