<svg width="20" height="20" viewBox="0 0 20 20" fill="none" xmlns="http://www.w3.org/2000/svg">
<g clip-path="url(#clip0_1_15762)">
<path d="M18 17.9999V2.00002H2V17.9999H18Z" fill="#1E40AF"/>
<g clip-path="url(#clip1_1_15762)">
<path d="M10 9.99994V2.00001H2V9.99994H10Z" fill="#1E40AF"/>
<path d="M7.5 10V2H5V10H7.5Z" fill="#F5F5F5"/>
<path d="M10 10V2H7.5V10H10Z" fill="#C2410C"/>
</g>
<path d="M13.5 13V8.5" stroke="#F5F5F5" stroke-width="0.75" stroke-linecap="round"/>
<path d="M12.5 8.5H14.5" stroke="#F5F5F5" stroke-width="0.75" stroke-linecap="round"/>
<path d="M11.5 12L12.2317 10.5367C12.3422 10.3155 12.6578 10.3155 12.7683 10.5367L13.5 12" stroke="#F5F5F5" stroke-width="0.75" stroke-linecap="round"/>
<path d="M13.5 12L14.2317 10.5367C14.3422 10.3155 14.6578 10.3155 14.7683 10.5367L15.5 12" stroke="#F5F5F5" stroke-width="0.75" stroke-linecap="round"/>
<circle cx="15.5" cy="9.5" r="0.5" fill="#F5F5F5"/>
<circle cx="11.5" cy="9.5" r="0.5" fill="#F5F5F5"/>
<circle cx="15" cy="13.5" r="0.5" fill="#F5F5F5"/>
<circle cx="12" cy="13.5" r="0.5" fill="#F5F5F5"/>
<circle cx="13.5" cy="14.5" r="0.5" fill="#F5F5F5"/>
</g>
<defs>
<clipPath id="clip0_1_15762">
<rect x="2" y="2" width="16" height="16" rx="8" fill="white"/>
</clipPath>
<clipPath id="clip1_1_15762">
<rect width="8" height="8" fill="white" transform="translate(2 2)"/>
</clipPath>
</defs>
</svg>
