<svg width="20" height="20" viewBox="0 0 20 20" fill="none" xmlns="http://www.w3.org/2000/svg">
<g clip-path="url(#clip0_1_15573)">
<rect x="2" y="3" width="16" height="7" fill="#0284C7"/>
<path fill-rule="evenodd" clip-rule="evenodd" d="M9.99998 7.53717C10.8496 7.53717 11.5384 6.84838 11.5384 5.99872C11.5384 5.84498 11.783 5.69413 11.8429 5.83574C11.944 6.07498 12 6.338 12 6.61409C12 7.71865 11.1045 8.61407 9.99998 8.61407C8.89542 8.61407 8 7.71865 8 6.61409C8 6.338 8.05594 6.07498 8.15711 5.83575C8.21699 5.69415 8.46153 5.84498 8.46153 5.99872C8.46153 6.84838 9.15032 7.53717 9.99998 7.53717Z" fill="#F5F5F5"/>
<rect x="2" y="10" width="16" height="7" fill="#EA580C"/>
<circle cx="10" cy="10" r="8" stroke="#F5F5F5" stroke-width="2"/>
<path d="M7.72232 11.6791C7.82397 11.4305 8.17603 11.4305 8.27768 11.6791L8.64611 12.5802C8.65638 12.6053 8.67001 12.6289 8.68662 12.6504L9.28275 13.42C9.44723 13.6323 9.2712 13.9372 9.00506 13.9009L8.04051 13.7695C8.01363 13.7658 7.98637 13.7658 7.95949 13.7695L6.99494 13.9009C6.7288 13.9372 6.55277 13.6323 6.71725 13.42L7.31338 12.6504C7.32999 12.6289 7.34362 12.6053 7.35389 12.5802L7.72232 11.6791Z" fill="#FACC15"/>
<path d="M8.27768 14.3209C8.17603 14.5695 7.82397 14.5695 7.72232 14.3209L7.35389 13.4198C7.34362 13.3947 7.32999 13.3711 7.31338 13.3496L6.71725 12.58C6.55277 12.3677 6.7288 12.0628 6.99494 12.0991L7.95949 12.2305C7.98637 12.2342 8.01363 12.2342 8.04051 12.2305L9.00506 12.0991C9.2712 12.0628 9.44723 12.3677 9.28275 12.58L8.68662 13.3496C8.67001 13.3711 8.65638 13.3947 8.64611 13.4198L8.27768 14.3209Z" fill="#FACC15"/>
<path d="M11.7223 11.6791C11.824 11.4305 12.176 11.4305 12.2777 11.6791L12.6461 12.5802C12.6564 12.6053 12.67 12.6289 12.6866 12.6504L13.2827 13.42C13.4472 13.6323 13.2712 13.9372 13.0051 13.9009L12.0405 13.7695C12.0136 13.7658 11.9864 13.7658 11.9595 13.7695L10.9949 13.9009C10.7288 13.9372 10.5528 13.6323 10.7173 13.42L11.3134 12.6504C11.33 12.6289 11.3436 12.6053 11.3539 12.5802L11.7223 11.6791Z" fill="#FACC15"/>
<path d="M12.2777 14.3209C12.176 14.5695 11.824 14.5695 11.7223 14.3209L11.3539 13.4198C11.3436 13.3947 11.33 13.3711 11.3134 13.3496L10.7173 12.58C10.5528 12.3677 10.7288 12.0628 10.9949 12.0991L11.9595 12.2305C11.9864 12.2342 12.0136 12.2342 12.0405 12.2305L13.0051 12.0991C13.2712 12.0628 13.4472 12.3677 13.2827 12.58L12.6866 13.3496C12.67 13.3711 12.6564 13.3947 12.6461 13.4198L12.2777 14.3209Z" fill="#FACC15"/>
</g>
<defs>
<clipPath id="clip0_1_15573">
<rect x="2.00488" y="17.995" width="16" height="16" rx="8" transform="rotate(-90 2.00488 17.995)" fill="white"/>
</clipPath>
</defs>
</svg>
