<svg width="20" height="20" viewBox="0 0 20 20" fill="none" xmlns="http://www.w3.org/2000/svg">
<g clip-path="url(#clip0_1_13919)">
<rect x="2" y="18" width="16" height="16" transform="rotate(-90 2 18)" fill="#F5F5F5"/>
<path d="M5 10V9C5 8.44772 5.44772 8 6 8H8.17248C8.53346 8 8.82609 7.70737 8.82609 7.34639C8.82609 6.91829 9.23079 6.60577 9.64497 6.71403L9.84883 6.76731C10.435 6.92051 11.0479 6.9413 11.6431 6.82816L15.6728 6.06219C15.8427 6.0299 16 6.16013 16 6.33303C16 6.43566 15.943 6.5298 15.852 6.57735L12.9843 8.07638C12.5564 8.30006 12.4255 8.85069 12.7069 9.24302C13.0839 9.76844 12.7084 10.5 12.0617 10.5H11.5051C11.3171 10.5 11.1329 10.553 10.9737 10.6529L9.8009 11.3885C9.16394 11.7881 8.42727 12 7.67537 12H7C5.89543 12 5 11.1046 5 10Z" fill="#D97706"/>
<path d="M6 14C6.8676 14.5075 7.84581 14.8548 8.89122 15M14 14C13.1324 14.5075 12.1542 14.8548 11.1088 15" stroke="#15803D" stroke-linecap="round"/>
</g>
<defs>
<clipPath id="clip0_1_13919">
<rect x="2.00488" y="1.995" width="16" height="16" rx="8" fill="white"/>
</clipPath>
</defs>
</svg>
