<svg width="20" height="20" viewBox="0 0 20 20" fill="none" xmlns="http://www.w3.org/2000/svg">
<g clip-path="url(#clip0_71_141)">
<rect x="2" y="2" width="16" height="16" rx="8" fill="#1E40AF"/>
<rect x="2" y="2" width="16" height="2" fill="#F5F5F5"/>
<rect x="2" y="4" width="16" height="2" fill="#C2410C"/>
<rect x="2" y="14" width="16" height="2" fill="#F5F5F5"/>
<rect x="2" y="16" width="16" height="2" fill="#C2410C"/>
<rect x="2" y="8" width="16" height="2" fill="#F5F5F5"/>
<rect x="2" y="10" width="16" height="2" fill="#C2410C"/>
<g clip-path="url(#clip1_71_141)">
<rect width="8" height="8" transform="translate(2 2)" fill="#1E40AF"/>
<path d="M10 9.99994L2 2.00001M2 9.99994L10 2.00001" stroke="#F5F5F5" stroke-width="1.5"/>
<path d="M10 9.99994L2 2.00001M2 9.99994L10 2.00001" stroke="#C2410C" stroke-width="0.75"/>
<path d="M6 9.99994V2.00001M10 5.99997H2" stroke="#F5F5F5" stroke-width="2"/>
<path d="M6 9.99994V2.00001M10 5.99997H2" stroke="#C2410C"/>
</g>
</g>
<defs>
<clipPath id="clip0_71_141">
<rect x="2" y="2" width="16" height="16" rx="8" fill="white"/>
</clipPath>
<clipPath id="clip1_71_141">
<rect width="8" height="8" fill="white" transform="translate(2 2)"/>
</clipPath>
</defs>
</svg>
