<svg width="20" height="20" viewBox="0 0 20 20" fill="none" xmlns="http://www.w3.org/2000/svg">
<g clip-path="url(#clip0_1_15240)">
<rect x="2" y="2.00003" width="16" height="16" fill="#F5F5F5"/>
<line x1="2" y1="5" x2="18" y2="5" stroke="#2563EB" stroke-width="2"/>
<line x1="2" y1="15" x2="18" y2="15" stroke="#2563EB" stroke-width="2"/>
<path d="M9.89175 6.9375C9.93986 6.85417 10.0601 6.85417 10.1083 6.9375L12.7063 11.4375C12.7544 11.5208 12.6943 11.625 12.5981 11.625H7.40192C7.3057 11.625 7.24556 11.5208 7.29367 11.4375L9.89175 6.9375Z" stroke="#2563EB" stroke-width="0.75"/>
<path d="M10.1083 13.0625C10.0601 13.1458 9.93986 13.1458 9.89175 13.0625L7.29367 8.5625C7.24556 8.47917 7.3057 8.375 7.40192 8.375L12.5981 8.375C12.6943 8.375 12.7544 8.47917 12.7063 8.5625L10.1083 13.0625Z" stroke="#2563EB" stroke-width="0.75"/>
</g>
<defs>
<clipPath id="clip0_1_15240">
<rect x="2" y="2" width="16" height="16" rx="8" fill="white"/>
</clipPath>
</defs>
</svg>
