<svg width="20" height="20" viewBox="0 0 20 20" fill="none" xmlns="http://www.w3.org/2000/svg">
<g clip-path="url(#clip0_1_13869)">
<rect x="2" y="2" width="16" height="16" fill="#F5F5F5"/>
<rect x="2.00494" y="9.99994" width="16" height="8" fill="#7DD3FC"/>
<path d="M11.097 7.495H8.90296C8.64928 7.495 8.4104 7.61444 8.25819 7.81738C7.53624 8.77999 7.63198 10.127 8.4828 10.9778L9.29289 11.7879C9.68342 12.1784 10.3166 12.1784 10.7071 11.7879L11.5172 10.9778C12.368 10.127 12.4637 8.77999 11.7418 7.81738C11.5896 7.61443 11.3507 7.495 11.097 7.495Z" fill="#7DD3FC"/>
<path d="M10.7071 11.7879L11.4879 11.0071C11.6769 10.8181 11.543 10.495 11.2757 10.495H8.72426C8.45699 10.495 8.32314 10.8181 8.51213 11.0071L9.29289 11.7879C9.68342 12.1784 10.3166 12.1784 10.7071 11.7879Z" fill="#16A34A"/>
<path d="M11.097 7.495H8.90296C8.64928 7.495 8.4104 7.61444 8.25819 7.81738C7.53624 8.77999 7.63198 10.127 8.4828 10.9778L9.29289 11.7879C9.68342 12.1784 10.3166 12.1784 10.7071 11.7879L11.5172 10.9778C12.368 10.127 12.4637 8.77999 11.7418 7.81738C11.5896 7.61443 11.3507 7.495 11.097 7.495Z" stroke="#EAB308" stroke-width="0.75" stroke-linecap="round" stroke-linejoin="round"/>
<path d="M6.28451 7.495C6.10026 7.96416 6 8.46904 6 8.99499C6 10.4672 6.78555 11.674 8 12.495" stroke="#16A34A" stroke-linecap="round"/>
<path d="M13.7155 7.495C13.8997 7.95493 14 8.44988 14 8.96549C14 10.4088 13.2144 11.6902 12 12.495" stroke="#16A34A" stroke-linecap="round"/>
<path d="M6.5 14.99H8.5L8 13.99H12L11.5 14.99H13.5" stroke="#F5F5F5" stroke-linecap="round" stroke-linejoin="round"/>
<path d="M11.1382 6.2186C11.0535 6.38799 10.8804 6.495 10.691 6.495L9.30902 6.49499C9.11963 6.49499 8.9465 6.38799 8.8618 6.2186L8.3618 5.2186C8.19558 4.88615 8.43733 4.495 8.80902 4.495L11.191 4.495C11.5627 4.495 11.8044 4.88615 11.6382 5.2186L11.1382 6.2186Z" fill="#EAB308"/>
</g>
<defs>
<clipPath id="clip0_1_13869">
<rect x="2.00488" y="1.995" width="16" height="16" rx="8" fill="white"/>
</clipPath>
</defs>
</svg>
