<svg width="20" height="20" viewBox="0 0 20 20" fill="none" xmlns="http://www.w3.org/2000/svg">
<g clip-path="url(#clip0_1_14543)">
<rect x="2.00977" y="1.99002" width="16" height="16" fill="#06B6D4"/>
<path d="M10.2244 7.87311C10.3143 7.59672 10.7053 7.59672 10.7951 7.87311L11.0037 8.51516C11.0439 8.63876 11.159 8.72245 11.289 8.72245H11.9641C12.2547 8.72245 12.3756 9.09434 12.1404 9.26516L11.5943 9.66196C11.4891 9.73836 11.4451 9.87377 11.4853 9.99738L11.6939 10.6394C11.7837 10.9158 11.4674 11.1457 11.2323 10.9748L10.6861 10.578C10.581 10.5016 10.4386 10.5016 10.3334 10.578L9.78727 10.9748C9.55216 11.1457 9.23581 10.9158 9.32562 10.6394L9.53423 9.99737C9.5744 9.87377 9.5304 9.73836 9.42525 9.66196L8.87909 9.26516C8.64398 9.09434 8.76481 8.72245 9.05543 8.72245H9.73052C9.86049 8.72245 9.97567 8.63876 10.0158 8.51516L10.2244 7.87311Z" fill="#FDE047"/>
<path d="M10.7951 11.1169C10.7053 11.3933 10.3143 11.3933 10.2244 11.1169L10.0158 10.4748C9.97567 10.3512 9.86049 10.2675 9.73052 10.2675L9.05543 10.2675C8.76481 10.2675 8.64398 9.89565 8.87909 9.72483L9.42525 9.32803C9.5304 9.25163 9.5744 9.11622 9.53423 8.99261L9.32562 8.35057C9.23581 8.07417 9.55216 7.84434 9.78727 8.01516L10.3334 8.41196C10.4386 8.48836 10.581 8.48836 10.6861 8.41196L11.2323 8.01516C11.4674 7.84434 11.7837 8.07417 11.6939 8.35057L11.4853 8.99262C11.4451 9.11622 11.4891 9.25163 11.5943 9.32803L12.1404 9.72483C12.3756 9.89565 12.2547 10.2675 11.9641 10.2675L11.289 10.2675C11.159 10.2675 11.0439 10.3512 11.0037 10.4748L10.7951 11.1169Z" fill="#FDE047"/>
<path d="M13.5049 9.5C13.5049 11.1569 12.1617 12.5 10.5049 12.5C8.84803 12.5 7.50488 11.1569 7.50488 9.5" stroke="#FDE047" stroke-width="0.75" stroke-linecap="round"/>
<rect x="3" y="3" width="1" height="14" fill="#FDE047"/>
</g>
<defs>
<clipPath id="clip0_1_14543">
<rect x="18.0049" y="1.995" width="16" height="16" rx="8" transform="rotate(90 18.0049 1.995)" fill="white"/>
</clipPath>
</defs>
</svg>
