<svg width="20" height="20" viewBox="0 0 20 20" fill="none" xmlns="http://www.w3.org/2000/svg">
<g clip-path="url(#clip0_1_14785)">
<rect x="18" y="18" width="16" height="16" transform="rotate(180 18 18)" fill="#C2410C"/>
<rect x="2" y="14" width="16" height="4" fill="#1E40AF"/>
<rect x="2" y="2" width="16" height="4" fill="#1E40AF"/>
<path d="M5.35355 12.1464L4.35355 13.1464C4.03857 13.4614 4.26165 14 4.70711 14H15.2929C15.7383 14 15.9614 13.4614 15.6464 13.1464L14.6464 12.1464C14.5527 12.0527 14.5 11.9255 14.5 11.7929V10.1514C14.5 10.0527 14.4708 9.95617 14.416 9.87404L13.916 9.12404C13.7181 8.82717 13.2819 8.82717 13.084 9.12404L12.6484 9.77735C12.5557 9.91645 12.3996 10 12.2324 10H12C11.7239 10 11.5 9.77614 11.5 9.5V9.13849C11.5 9.04787 11.4754 8.95895 11.4287 8.88124L10.4287 7.21458C10.2345 6.89091 9.76545 6.89091 9.57125 7.21458L8.57125 8.88124C8.52463 8.95895 8.5 9.04787 8.5 9.13849V9.5C8.5 9.77614 8.27614 10 8 10H7.76759C7.60042 10 7.4443 9.91645 7.35157 9.77735L6.91602 9.12404C6.71811 8.82717 6.28188 8.82717 6.08397 9.12404L5.58397 9.87404C5.52922 9.95617 5.5 10.0527 5.5 10.1514V11.7929C5.5 11.9255 5.44732 12.0527 5.35355 12.1464Z" fill="#F5F5F5"/>
</g>
<defs>
<clipPath id="clip0_1_14785">
<rect x="2.00488" y="17.995" width="16" height="16" rx="8" transform="rotate(-90 2.00488 17.995)" fill="white"/>
</clipPath>
</defs>
</svg>
