<svg width="20" height="20" viewBox="0 0 20 20" fill="none" xmlns="http://www.w3.org/2000/svg">
<g clip-path="url(#clip0_1_14854)">
<rect x="18" y="18" width="16" height="16" transform="rotate(180 18 18)" fill="#F5F5F5"/>
<rect x="2" y="15.495" width="16" height="2.5" fill="#0369A1"/>
<rect x="2" y="1.995" width="16" height="2.5" fill="#0369A1"/>
<rect x="18" y="14" width="16" height="8" transform="rotate(180 18 14)" fill="#EA580C"/>
<circle cx="7" cy="10" r="3" fill="#F5F5F5"/>
<path d="M6.71468 7.87812C6.80449 7.60172 7.19551 7.60172 7.28532 7.87812L7.60619 8.86565C7.64635 8.98926 7.76154 9.07295 7.8915 9.07295H8.92986C9.22048 9.07295 9.34131 9.44483 9.1062 9.61565L8.26615 10.226C8.161 10.3024 8.11701 10.4378 8.15717 10.5614L8.47804 11.5489C8.56784 11.8253 8.2515 12.0552 8.01639 11.8843L7.17634 11.274C7.07119 11.1976 6.92881 11.1976 6.82366 11.274L5.98361 11.8843C5.7485 12.0552 5.43216 11.8253 5.52196 11.5489L5.84283 10.5614C5.88299 10.4378 5.839 10.3024 5.73385 10.226L4.8938 9.61565C4.65869 9.44483 4.77952 9.07295 5.07014 9.07295H6.1085C6.23846 9.07295 6.35365 8.98926 6.39381 8.86565L6.71468 7.87812Z" fill="#EA580C"/>
</g>
<defs>
<clipPath id="clip0_1_14854">
<rect x="2.00488" y="17.995" width="16" height="16" rx="8" transform="rotate(-90 2.00488 17.995)" fill="white"/>
</clipPath>
</defs>
</svg>
