<svg width="20" height="20" viewBox="0 0 20 20" fill="none" xmlns="http://www.w3.org/2000/svg">
<g clip-path="url(#clip0_1_14551)">
<rect x="2.00977" y="1.99002" width="16" height="16" fill="#EA580C"/>
<path d="M9.70604 6.4425C9.77128 6.12237 10.2287 6.12237 10.294 6.4425L10.5555 7.72599C10.6002 7.94541 10.8609 8.04027 11.0362 7.90093L12.0615 7.08584C12.3173 6.88254 12.6677 7.17658 12.5119 7.46375L11.8873 8.61509C11.7805 8.81191 11.9191 9.05211 12.143 9.05805L13.4524 9.09275C13.779 9.10141 13.8584 9.5519 13.5545 9.67174L12.3359 10.1522C12.1276 10.2343 12.0794 10.5075 12.2471 10.6559L13.2279 11.5242C13.4725 11.7407 13.2438 12.1369 12.9339 12.0333L11.6916 11.6181C11.4792 11.5471 11.2667 11.7254 11.2998 11.9469L11.493 13.2424C11.5412 13.5656 11.1113 13.722 10.9405 13.4435L10.2557 12.3269C10.1387 12.136 9.86132 12.136 9.74426 12.3269L9.05949 13.4435C8.8887 13.722 8.45884 13.5656 8.50703 13.2424L8.70023 11.9469C8.73326 11.7254 8.52079 11.5471 8.30841 11.6181L7.06609 12.0333C6.75623 12.1369 6.52751 11.7407 6.77213 11.5242L7.75289 10.6559C7.92056 10.5075 7.8724 10.2343 7.66408 10.1522L6.4455 9.67174C6.14156 9.5519 6.22099 9.10141 6.54759 9.09275L7.857 9.05805C8.08085 9.05211 8.21953 8.81191 8.11275 8.61509L7.48809 7.46375C7.33229 7.17658 7.68272 6.88254 7.93846 7.08584L8.96385 7.90093C9.13914 8.04027 9.39977 7.94541 9.44448 7.72599L9.70604 6.4425Z" fill="#FACC15"/>
<path d="M10.294 13.5575C10.2287 13.8776 9.77128 13.8776 9.70604 13.5575L9.44449 12.274C9.39977 12.0546 9.13914 11.9597 8.96385 12.0991L7.93847 12.9142C7.68272 13.1175 7.3323 12.8234 7.4881 12.5363L8.11275 11.3849C8.21953 11.1881 8.08086 10.9479 7.85701 10.942L6.54759 10.9072C6.221 10.8986 6.14156 10.4481 6.4455 10.3283L7.66408 9.8478C7.8724 9.76567 7.92056 9.49252 7.7529 9.34409L6.77213 8.47582C6.52751 8.25926 6.75623 7.86311 7.06609 7.96667L8.30841 8.38191C8.52079 8.45289 8.73326 8.27461 8.70023 8.05313L8.50703 6.75758C8.45885 6.43445 8.8887 6.27799 9.05949 6.5565L9.74426 7.67314C9.86132 7.86403 10.1387 7.86403 10.2557 7.67314L10.9405 6.5565C11.1113 6.27799 11.5412 6.43445 11.493 6.75758L11.2998 8.05313C11.2667 8.27461 11.4792 8.45289 11.6916 8.38191L12.9339 7.96667C13.2438 7.86311 13.4725 8.25926 13.2279 8.47582L12.2471 9.34409C12.0794 9.49252 12.1276 9.76567 12.3359 9.8478L13.5545 10.3283C13.8584 10.4481 13.779 10.8986 13.4524 10.9072L12.143 10.942C11.9191 10.9479 11.7805 11.1881 11.8873 11.3849L12.5119 12.5363C12.6677 12.8234 12.3173 13.1175 12.0615 12.9142L11.0362 12.0991C10.8609 11.9597 10.6002 12.0546 10.5555 12.274L10.294 13.5575Z" fill="#FACC15"/>
<circle cx="10" cy="10" r="2" stroke="#EA580C" stroke-width="0.75"/>
<path fill-rule="evenodd" clip-rule="evenodd" d="M11.9866 10.2324C11.9955 10.1562 12 10.0786 12 10C12 9.70653 11.9368 9.42782 11.8232 9.17675C11.5722 9.06321 11.2935 9 11 9C9.89543 9 9 9.89543 9 11C9 11.2935 9.06321 11.5722 9.17675 11.8232C9.42782 11.9368 9.70653 12 10 12C10.0786 12 10.1562 11.9955 10.2324 11.9866C9.93883 11.7579 9.75 11.401 9.75 11C9.75 10.3096 10.3096 9.75 11 9.75C11.401 9.75 11.7579 9.93883 11.9866 10.2324Z" fill="#EA580C"/>
<path fill-rule="evenodd" clip-rule="evenodd" d="M10.8232 11.8232C10.9368 11.5722 11 11.2935 11 11C11 9.89543 10.1046 9 9 9C8.70653 9 8.42782 9.06321 8.17675 9.17675C8.06321 9.42782 8 9.70653 8 10C8 10.0786 8.00454 10.1562 8.01336 10.2324C8.24209 9.93883 8.599 9.75 9 9.75C9.69036 9.75 10.25 10.3096 10.25 11C10.25 11.401 10.0612 11.7579 9.76758 11.9866C9.84383 11.9955 9.92139 12 10 12C10.2935 12 10.5722 11.9368 10.8232 11.8232Z" fill="#EA580C"/>
</g>
<defs>
<clipPath id="clip0_1_14551">
<rect x="18.0049" y="1.995" width="16" height="16" rx="8" transform="rotate(90 18.0049 1.995)" fill="white"/>
</clipPath>
</defs>
</svg>
