<svg width="20" height="20" viewBox="0 0 20 20" fill="none" xmlns="http://www.w3.org/2000/svg">
<g clip-path="url(#clip0_1_14910)">
<rect x="18.0098" y="17.99" width="16" height="16" transform="rotate(180 18.0098 17.99)" fill="#1E40AF"/>
<path d="M3.20711 17.5L17.5 3.20711V17.5H3.20711Z" fill="#D97706" stroke="#D97706"/>
<path d="M18 6V18H2L18 6Z" fill="#F5F5F5"/>
<path d="M18 9V18H2L18 9Z" fill="#1E40AF"/>
<path d="M6.21468 5.87812C6.30449 5.60172 6.69551 5.60172 6.78532 5.87812L6.99393 6.52016C7.03409 6.64377 7.14928 6.72746 7.27925 6.72746H7.95434C8.24495 6.72746 8.36579 7.09934 8.13067 7.27016L7.58451 7.66697C7.47937 7.74336 7.43537 7.87877 7.47553 8.00238L7.68415 8.64443C7.77395 8.92082 7.45761 9.15066 7.22249 8.97984L6.67634 8.58303C6.57119 8.50664 6.42881 8.50664 6.32366 8.58303L5.77751 8.97984C5.54239 9.15066 5.22605 8.92082 5.31585 8.64443L5.52447 8.00238C5.56463 7.87877 5.52063 7.74336 5.41549 7.66697L4.86933 7.27016C4.63421 7.09934 4.75505 6.72746 5.04566 6.72746H5.72075C5.85072 6.72746 5.96591 6.64377 6.00607 6.52016L6.21468 5.87812Z" fill="#F5F5F5"/>
<path d="M6.78532 9.12188C6.69551 9.39828 6.30449 9.39828 6.21468 9.12188L6.00607 8.47984C5.96591 8.35623 5.85072 8.27254 5.72075 8.27254L5.04566 8.27254C4.75505 8.27254 4.63421 7.90066 4.86933 7.72984L5.41549 7.33303C5.52063 7.25664 5.56463 7.12123 5.52447 6.99762L5.31585 6.35557C5.22605 6.07918 5.54239 5.84934 5.77751 6.02016L6.32366 6.41697C6.42881 6.49336 6.57119 6.49336 6.67634 6.41697L7.22249 6.02016C7.45761 5.84934 7.77395 6.07918 7.68415 6.35557L7.47553 6.99762C7.43537 7.12123 7.47937 7.25664 7.58451 7.33303L8.13067 7.72984C8.36579 7.90066 8.24495 8.27254 7.95434 8.27254L7.27925 8.27254C7.14928 8.27254 7.03409 8.35623 6.99393 8.47984L6.78532 9.12188Z" fill="#F5F5F5"/>
</g>
<defs>
<clipPath id="clip0_1_14910">
<rect x="2.00488" y="1.995" width="16" height="16" rx="8" fill="white"/>
</clipPath>
</defs>
</svg>
