<svg width="20" height="20" viewBox="0 0 20 20" fill="none" xmlns="http://www.w3.org/2000/svg">
<g clip-path="url(#clip0_1_13902)">
<rect x="2.00977" y="1.98999" width="16" height="16" fill="#C2410C"/>
<path fill-rule="evenodd" clip-rule="evenodd" d="M9.41553 8.08675C9.359 8.104 9.3264 8.16255 9.33716 8.22067C9.36037 8.34599 9.1985 8.42 9.12338 8.31704C9.08824 8.26887 9.0228 8.25356 8.97169 8.28426C8.69561 8.45007 8.46286 8.68063 8.29442 8.95494C8.26158 9.00844 8.27749 9.07748 8.32821 9.11448C8.43604 9.19315 8.35727 9.36246 8.22601 9.33815C8.16497 9.32685 8.10322 9.36103 8.08526 9.42046C8.02981 9.6039 8 9.79847 8 10C8 10.2028 8.03017 10.3985 8.08628 10.5829C8.10375 10.6404 8.1633 10.6735 8.22234 10.6625C8.34953 10.639 8.42502 10.8032 8.32053 10.8794C8.27157 10.9152 8.25607 10.9817 8.28744 11.0336C8.45529 11.3111 8.68867 11.5445 8.96615 11.7124C9.01804 11.7438 9.08466 11.7283 9.12042 11.6793C9.19674 11.5747 9.36106 11.6503 9.33749 11.7776C9.32655 11.8367 9.35967 11.8963 9.41716 11.9137C9.60156 11.9698 9.79726 12 10 12C10.2017 12 10.3965 11.9701 10.58 11.9146C10.6392 11.8967 10.6732 11.8353 10.662 11.7745C10.6378 11.6439 10.8063 11.5656 10.8846 11.6729C10.9215 11.7234 10.9901 11.7392 11.0434 11.7066C11.319 11.5377 11.5505 11.304 11.7167 11.0266C11.7472 10.9758 11.732 10.9107 11.6841 10.8757C11.5816 10.801 11.6551 10.6398 11.7799 10.6629C11.8377 10.6736 11.8959 10.6412 11.9131 10.585C11.9696 10.3999 12 10.2035 12 10C12 9.79772 11.97 9.60245 11.9141 9.41841C11.8965 9.36019 11.836 9.32666 11.7762 9.33774C11.6474 9.36159 11.5706 9.19536 11.6764 9.11816C11.7261 9.08193 11.7418 9.01439 11.7098 8.96188C11.543 8.6877 11.3121 8.45682 11.0379 8.29004C10.9854 8.25812 10.9179 8.27378 10.8817 8.3234C10.8046 8.42914 10.6384 8.35242 10.6623 8.22371C10.6733 8.16393 10.6398 8.10356 10.5817 8.0859C10.3976 8.03004 10.2023 8 10 8C9.79666 8 9.60041 8.03035 9.41553 8.08675ZM9.03302 6.5783C9.08722 6.87101 9.38451 7.04814 9.68055 7.01681C9.78551 7.0057 9.89209 7 10 7C10.1079 7 10.2145 7.0057 10.3195 7.01681C10.6155 7.04814 10.9128 6.87101 10.967 6.5783L11.8905 1.59104C11.9475 1.28366 11.7115 1 11.3989 1L8.60109 1C8.28848 1 8.05253 1.28366 8.10945 1.59104L9.03302 6.5783ZM11.98 7.74615C11.7591 7.55196 11.6876 7.21883 11.8609 6.98123L14.8284 2.91385C15.0093 2.6659 15.3689 2.63796 15.5859 2.855L17.1449 4.41394C17.3619 4.63097 17.334 4.99051 17.086 5.17141L13.0186 8.13891C12.781 8.31225 12.4479 8.24074 12.2537 8.01988C12.1684 7.92288 12.077 7.83144 11.98 7.74615ZM12.9832 9.68055C12.9519 9.38451 13.129 9.08723 13.4217 9.03302L18.409 8.10945C18.7163 8.05253 19 8.28848 19 8.6011L19 11.3989C19 11.7115 18.7163 11.9475 18.409 11.8905L13.4217 10.967C13.129 10.9128 12.9519 10.6155 12.9832 10.3195C12.9943 10.2145 13 10.1079 13 10C13 9.89209 12.9943 9.78551 12.9832 9.68055ZM13.0248 11.8543C12.7867 11.6805 12.4527 11.7527 12.2587 11.9745C12.1728 12.0726 12.0808 12.165 11.983 12.2512C11.7626 12.4455 11.6914 12.7783 11.8647 13.0156L14.8284 17.0763C15.0093 17.3242 15.3688 17.3521 15.5858 17.1351L17.1449 15.576C17.3619 15.359 17.334 14.9995 17.0862 14.8186L13.0248 11.8543ZM10.967 13.4217C10.9128 13.129 10.6155 12.9519 10.3195 12.9832C10.2145 12.9943 10.1079 13 10 13C9.89209 13 9.78551 12.9943 9.68055 12.9832C9.38451 12.9519 9.08723 13.129 9.03302 13.4217L8.10945 18.409C8.05253 18.7163 8.28848 19 8.60109 19L11.3989 19C11.7115 19 11.9475 18.7163 11.8905 18.409L10.967 13.4217ZM8.14126 13.0209C8.3148 12.7831 8.24306 12.4496 8.02183 12.2555C7.92346 12.1691 7.83077 12.0764 7.74443 11.978C7.55025 11.7568 7.21678 11.685 6.97901 11.8586L2.9236 14.8185C2.67571 14.9994 2.64781 15.3589 2.86482 15.5759L4.42392 17.135C4.64093 17.352 5.00041 17.3241 5.18134 17.0763L8.14126 13.0209ZM6.5783 10.967C6.87101 10.9128 7.04814 10.6155 7.01681 10.3195C7.0057 10.2145 7 10.1079 7 10C7 9.89209 7.0057 9.78551 7.01681 9.68055C7.04814 9.38451 6.87101 9.08723 6.5783 9.03302L1.59104 8.10945C1.28365 8.05253 0.999998 8.28848 0.999998 8.60109L0.999998 11.3989C0.999998 11.7115 1.28365 11.9475 1.59104 11.8905L6.5783 10.967ZM6.98516 8.13461C7.22244 8.30773 7.55507 8.23663 7.74936 8.01636C7.83518 7.91906 7.92722 7.82737 8.02484 7.74191C8.24653 7.54784 8.31864 7.21404 8.14499 6.97602L5.18132 2.9139C5.00041 2.66595 4.64088 2.63801 4.42384 2.85505L2.8649 4.41399C2.64787 4.63102 2.6758 4.99056 2.92376 5.17146L6.98516 8.13461Z" fill="#FACC15"/>
<circle cx="10" cy="10" r="2" fill="#FACC15"/>
</g>
<defs>
<clipPath id="clip0_1_13902">
<rect x="18.0049" y="1.995" width="16" height="16" rx="8" transform="rotate(90 18.0049 1.995)" fill="white"/>
</clipPath>
</defs>
</svg>
