<svg width="20" height="20" viewBox="0 0 20 20" fill="none" xmlns="http://www.w3.org/2000/svg">
<g clip-path="url(#clip0_1_14704)">
<path d="M17.9999 17.9999L1.99994 17.9999L1.99994 1.99994L17.9999 1.99994L17.9999 17.9999Z" fill="#FACC15"/>
<path d="M2 3L17 18" stroke="#262626" stroke-width="1.4"/>
<path d="M3 2L18 17" stroke="#F5F5F5" stroke-width="1.4"/>
<path d="M6 13V10.0504C6 9.80336 5.90856 9.56506 5.74329 9.38144L5.60451 9.22724C5.53526 9.15029 5.47837 9.06305 5.43589 8.96864L5 8M8 14V14C9.25903 14.6295 10.741 14.6295 12 14V14" stroke="#EA580C" stroke-width="0.75" stroke-linecap="round"/>
<path d="M14 13V10.0504C14 9.80336 14.0914 9.56506 14.2567 9.38144L14.3955 9.22724C14.4647 9.15029 14.5216 9.06305 14.5641 8.96864L15 8" stroke="#EA580C" stroke-width="0.75" stroke-linecap="round"/>
<path d="M9.34256 7.53149L7.99029 7.80194C7.87185 7.82563 7.88912 8 8.0099 8H8.87574C8.9553 8 9.03161 8.03161 9.08787 8.08787L9.28787 8.28787C9.40503 8.40503 9.59497 8.40503 9.71213 8.28787L9.78787 8.21213C9.90503 8.09497 9.90503 7.90503 9.78787 7.78787L9.61353 7.61353C9.5426 7.5426 9.44092 7.51182 9.34256 7.53149Z" stroke="#EA580C" stroke-width="0.75" stroke-linecap="round"/>
<path d="M10.6574 7.52648L12.0097 7.79694C12.1281 7.82062 12.1109 7.995 11.9901 7.995H11.1243C11.0447 7.995 10.9684 8.0266 10.9121 8.08286L10.7121 8.28286C10.595 8.40002 10.405 8.40002 10.2879 8.28286L10.2121 8.20713C10.095 8.08997 10.095 7.90002 10.2121 7.78286L10.3865 7.60852C10.4574 7.5376 10.5591 7.50681 10.6574 7.52648Z" stroke="#EA580C" stroke-width="0.75" stroke-linecap="round"/>
<circle cx="10.0049" cy="6.5" r="0.5" fill="#EA580C"/>
<path d="M10 12.5C10 10.7426 10 9.75736 10 8" stroke="#EA580C" stroke-width="0.75" stroke-linecap="round"/>
</g>
<path fill-rule="evenodd" clip-rule="evenodd" d="M9.99999 11.9913C11.2745 11.9913 12.3077 10.9581 12.3077 9.6836C12.3077 9.45298 12.6745 9.22671 12.7643 9.43912C12.9161 9.79798 13 10.1925 13 10.6066C13 12.2635 11.6569 13.6066 10 13.6066C8.34315 13.6066 7 12.2635 7 10.6066C7 10.1925 7.08391 9.79799 7.23566 9.43913C7.32548 9.22673 7.6923 9.45298 7.6923 9.6836C7.6923 10.9581 8.72549 11.9913 9.99999 11.9913Z" fill="#EA580C"/>
<defs>
<clipPath id="clip0_1_14704">
<rect x="2.00488" y="1.995" width="16" height="16" rx="8" fill="white"/>
</clipPath>
</defs>
</svg>
