<svg width="20" height="20" viewBox="0 0 20 20" fill="none" xmlns="http://www.w3.org/2000/svg">
<g clip-path="url(#clip0_1_14718)">
<path d="M18 17.9999V2.00002H2V17.9999H18Z" fill="#C2410C"/>
<rect x="2" y="5.00003" width="16" height="1" fill="#F5F5F5"/>
<rect x="2" y="3.00003" width="16" height="1" fill="#F5F5F5"/>
<rect x="2" y="7.00003" width="16" height="1" fill="#F5F5F5"/>
<rect x="2" y="9.00003" width="16" height="1" fill="#F5F5F5"/>
<rect x="2" y="11" width="16" height="1" fill="#F5F5F5"/>
<rect x="2" y="13" width="16" height="1" fill="#F5F5F5"/>
<rect x="2" y="15" width="16" height="1" fill="#F5F5F5"/>
<rect x="2" y="17" width="16" height="1" fill="#F5F5F5"/>
<path d="M12 10V2.00003H2V10H12Z" fill="#1E40AF"/>
<path d="M9.21468 5.37815C9.30449 5.10175 9.69551 5.10175 9.78532 5.37815L9.88167 5.6747C9.92184 5.79831 10.037 5.882 10.167 5.882H10.4788C10.7694 5.882 10.8903 6.25388 10.6551 6.4247L10.4029 6.60798C10.2977 6.68438 10.2537 6.81979 10.2939 6.94339L10.3903 7.23995C10.4801 7.51634 10.1637 7.74618 9.9286 7.57536L9.67634 7.39208C9.57119 7.31568 9.42881 7.31568 9.32366 7.39208L9.0714 7.57536C8.83628 7.74618 8.51994 7.51634 8.60975 7.23995L8.7061 6.94339C8.74627 6.81979 8.70227 6.68438 8.59712 6.60798L8.34486 6.4247C8.10974 6.25388 8.23058 5.882 8.52119 5.882H8.83301C8.96298 5.882 9.07816 5.79831 9.11833 5.6747L9.21468 5.37815Z" fill="#FACC15"/>
<path d="M9.78532 7.62191C9.69551 7.89831 9.30449 7.89831 9.21468 7.62192L9.11833 7.32536C9.07816 7.20175 8.96298 7.11806 8.83301 7.11806L8.52119 7.11806C8.23057 7.11806 8.10974 6.74618 8.34486 6.57536L8.59712 6.39208C8.70227 6.31568 8.74627 6.18027 8.7061 6.05667L8.60975 5.76011C8.51994 5.48372 8.83628 5.25388 9.0714 5.4247L9.32366 5.60798C9.42881 5.68438 9.57119 5.68438 9.67634 5.60798L9.9286 5.4247C10.1637 5.25388 10.4801 5.48372 10.3903 5.76011L10.2939 6.05667C10.2537 6.18027 10.2977 6.31568 10.4029 6.39208L10.6551 6.57536C10.8903 6.74618 10.7694 7.11806 10.4788 7.11806L10.167 7.11806C10.037 7.11806 9.92184 7.20175 9.88167 7.32536L9.78532 7.62191Z" fill="#FACC15"/>
<path fill-rule="evenodd" clip-rule="evenodd" d="M6.34611 6.50001C6.34611 7.5621 7.20711 8.42309 8.26919 8.42309C8.46138 8.42309 8.64994 8.72878 8.47293 8.80364C8.17387 8.9301 7.84509 9.00003 7.49997 9.00003C6.11926 9.00003 4.99997 7.88074 4.99997 6.50003C4.99997 5.11932 6.11926 4.00003 7.49997 4.00003C7.84508 4.00003 8.17385 4.06996 8.4729 4.19641C8.6499 4.27126 8.46136 4.57693 8.26919 4.57693C7.20711 4.57693 6.34611 5.43793 6.34611 6.50001Z" fill="#FACC15"/>
</g>
<defs>
<clipPath id="clip0_1_14718">
<rect x="2" y="2" width="16" height="16" rx="8" fill="white"/>
</clipPath>
</defs>
</svg>
