<svg width="20" height="20" viewBox="0 0 20 20" fill="none" xmlns="http://www.w3.org/2000/svg">
<g clip-path="url(#clip0_1_13883)">
<rect x="10.0049" y="1.99994" width="16" height="8" transform="rotate(90 10.0049 1.99994)" fill="#F5F5F5"/>
<rect x="18.0098" y="1.99493" width="16" height="8" transform="rotate(90 18.0098 1.99493)" fill="#C2410C"/>
<mask id="path-4-outside-1_1_13883" maskUnits="userSpaceOnUse" x="4" y="4" width="5" height="5" fill="black">
<rect fill="white" x="4" y="4" width="5" height="5"/>
<path fill-rule="evenodd" clip-rule="evenodd" d="M6 5.7C6 5.86569 5.86569 6 5.7 6L5.3 6C5.13431 6 5 6.13431 5 6.3L5 6.7C5 6.86569 5.13431 7 5.3 7L5.7 7C5.86569 7 6 7.13431 6 7.3L6 7.7C6 7.86569 6.13431 8 6.3 8L6.7 8C6.86569 8 7 7.86569 7 7.7L7 7.3C7 7.13431 7.13431 7 7.3 7L7.7 7C7.86569 7 8 6.86569 8 6.7L8 6.3C8 6.13431 7.86569 6 7.7 6L7.3 6C7.13431 6 7 5.86569 7 5.7L7 5.3C7 5.13431 6.86569 5 6.7 5L6.3 5C6.13431 5 6 5.13431 6 5.3L6 5.7Z"/>
</mask>
<path fill-rule="evenodd" clip-rule="evenodd" d="M6 5.7C6 5.86569 5.86569 6 5.7 6L5.3 6C5.13431 6 5 6.13431 5 6.3L5 6.7C5 6.86569 5.13431 7 5.3 7L5.7 7C5.86569 7 6 7.13431 6 7.3L6 7.7C6 7.86569 6.13431 8 6.3 8L6.7 8C6.86569 8 7 7.86569 7 7.7L7 7.3C7 7.13431 7.13431 7 7.3 7L7.7 7C7.86569 7 8 6.86569 8 6.7L8 6.3C8 6.13431 7.86569 6 7.7 6L7.3 6C7.13431 6 7 5.86569 7 5.7L7 5.3C7 5.13431 6.86569 5 6.7 5L6.3 5C6.13431 5 6 5.13431 6 5.3L6 5.7Z" fill="#E5E5E5"/>
<path d="M6.3 5L6.3 5.5L6.3 5ZM6 5.3L6.5 5.3L6 5.3ZM7.3 6L7.3 6.5L7.3 6ZM7 5.7L7.5 5.7L7 5.7ZM7.7 6L7.7 6.5L7.7 6ZM8 6.7L8.5 6.7L8 6.7ZM7 7.3L7.5 7.3L7 7.3ZM7 7.7L7.5 7.7L7 7.7ZM6 7.7L6.5 7.7L6 7.7ZM5.7 7L5.7 7.5L5.7 7ZM5.7 6L5.7 5.5L5.7 6ZM5.3 6.5L5.7 6.5L5.7 5.5L5.3 5.5L5.3 6.5ZM5.5 6.7L5.5 6.3L4.5 6.3L4.5 6.7L5.5 6.7ZM5.7 6.5L5.3 6.5L5.3 7.5L5.7 7.5L5.7 6.5ZM6.5 7.7L6.5 7.3L5.5 7.3L5.5 7.7L6.5 7.7ZM6.7 7.5L6.3 7.5L6.3 8.5L6.7 8.5L6.7 7.5ZM6.5 7.3L6.5 7.7L7.5 7.7L7.5 7.3L6.5 7.3ZM7.7 6.5L7.3 6.5L7.3 7.5L7.7 7.5L7.7 6.5ZM7.5 6.3L7.5 6.7L8.5 6.7L8.5 6.3L7.5 6.3ZM7.3 6.5L7.7 6.5L7.7 5.5L7.3 5.5L7.3 6.5ZM6.5 5.3L6.5 5.7L7.5 5.7L7.5 5.3L6.5 5.3ZM6.3 5.5L6.7 5.5L6.7 4.5L6.3 4.5L6.3 5.5ZM6.5 5.7L6.5 5.3L5.5 5.3L5.5 5.7L6.5 5.7ZM6.3 4.5C5.85817 4.5 5.5 4.85817 5.5 5.3L6.5 5.3C6.5 5.41046 6.41046 5.5 6.3 5.5L6.3 4.5ZM7.5 5.3C7.5 4.85817 7.14183 4.5 6.7 4.5L6.7 5.5C6.58954 5.5 6.5 5.41046 6.5 5.3L7.5 5.3ZM7.3 5.5C7.41046 5.5 7.5 5.58954 7.5 5.7L6.5 5.7C6.5 6.14183 6.85817 6.5 7.3 6.5L7.3 5.5ZM8.5 6.3C8.5 5.85817 8.14183 5.5 7.7 5.5L7.7 6.5C7.58954 6.5 7.5 6.41046 7.5 6.3L8.5 6.3ZM7.7 7.5C8.14183 7.5 8.5 7.14183 8.5 6.7L7.5 6.7C7.5 6.58954 7.58954 6.5 7.7 6.5L7.7 7.5ZM7.5 7.3C7.5 7.41046 7.41046 7.5 7.3 7.5L7.3 6.5C6.85817 6.5 6.5 6.85817 6.5 7.3L7.5 7.3ZM6.7 8.5C7.14183 8.5 7.5 8.14183 7.5 7.7L6.5 7.7C6.5 7.58954 6.58954 7.5 6.7 7.5L6.7 8.5ZM5.5 7.7C5.5 8.14183 5.85817 8.5 6.3 8.5L6.3 7.5C6.41046 7.5 6.5 7.58954 6.5 7.7L5.5 7.7ZM5.7 7.5C5.58954 7.5 5.5 7.41046 5.5 7.3L6.5 7.3C6.5 6.85817 6.14183 6.5 5.7 6.5L5.7 7.5ZM4.5 6.7C4.5 7.14183 4.85817 7.5 5.3 7.5L5.3 6.5C5.41046 6.5 5.5 6.58954 5.5 6.7L4.5 6.7ZM5.7 6.5C6.14183 6.5 6.5 6.14183 6.5 5.7L5.5 5.7C5.5 5.58954 5.58954 5.5 5.7 5.5L5.7 6.5ZM5.3 5.5C4.85817 5.5 4.5 5.85817 4.5 6.3L5.5 6.3C5.5 6.41046 5.41046 6.5 5.3 6.5L5.3 5.5Z" fill="#C2410C" mask="url(#path-4-outside-1_1_13883)"/>
</g>
<defs>
<clipPath id="clip0_1_13883">
<rect x="2.00488" y="17.995" width="16" height="16" rx="8" transform="rotate(-90 2.00488 17.995)" fill="white"/>
</clipPath>
</defs>
</svg>
