<svg width="20" height="20" viewBox="0 0 20 20" fill="none" xmlns="http://www.w3.org/2000/svg">
<g clip-path="url(#clip0_1_14946)">
<rect x="2.00977" y="1.99002" width="16" height="16" fill="#FACC15"/>
<path fill-rule="evenodd" clip-rule="evenodd" d="M18 18H2V11H18V18Z" fill="#1E40AF"/>
<path fill-rule="evenodd" clip-rule="evenodd" d="M18 9H2V2H18V9Z" fill="#1E40AF"/>
<path d="M6.21468 11.8781C6.30449 11.6017 6.69551 11.6017 6.78532 11.8781L6.99393 12.5202C7.03409 12.6438 7.14928 12.7275 7.27925 12.7275H7.95434C8.24495 12.7275 8.36579 13.0993 8.13067 13.2702L7.58451 13.667C7.47937 13.7434 7.43537 13.8788 7.47553 14.0024L7.68415 14.6444C7.77395 14.9208 7.45761 15.1507 7.22249 14.9798L6.67634 14.583C6.57119 14.5066 6.42881 14.5066 6.32366 14.583L5.77751 14.9798C5.54239 15.1507 5.22605 14.9208 5.31585 14.6444L5.52447 14.0024C5.56463 13.8788 5.52063 13.7434 5.41549 13.667L4.86933 13.2702C4.63421 13.0993 4.75505 12.7275 5.04566 12.7275H5.72075C5.85072 12.7275 5.96591 12.6438 6.00607 12.5202L6.21468 11.8781Z" fill="#F5F5F5"/>
<path d="M6.78532 15.1219C6.69551 15.3983 6.30449 15.3983 6.21468 15.1219L6.00607 14.4798C5.96591 14.3562 5.85072 14.2725 5.72075 14.2725L5.04566 14.2725C4.75505 14.2725 4.63421 13.9007 4.86933 13.7298L5.41549 13.333C5.52063 13.2566 5.56463 13.1212 5.52447 12.9976L5.31585 12.3556C5.22605 12.0792 5.54239 11.8493 5.77751 12.0202L6.32366 12.417C6.42881 12.4934 6.57119 12.4934 6.67634 12.417L7.22249 12.0202C7.45761 11.8493 7.77395 12.0792 7.68415 12.3556L7.47553 12.9976C7.43537 13.1212 7.47937 13.2566 7.58451 13.333L8.13067 13.7298C8.36579 13.9007 8.24495 14.2725 7.95434 14.2725L7.27925 14.2725C7.14928 14.2725 7.03409 14.3562 6.99393 14.4798L6.78532 15.1219Z" fill="#F5F5F5"/>
</g>
<defs>
<clipPath id="clip0_1_14946">
<rect x="18.0049" y="1.995" width="16" height="16" rx="8" transform="rotate(90 18.0049 1.995)" fill="white"/>
</clipPath>
</defs>
</svg>
