<svg width="20" height="20" viewBox="0 0 20 20" fill="none" xmlns="http://www.w3.org/2000/svg">
<g clip-path="url(#clip0_1_14738)">
<rect x="2.00488" y="1.995" width="16" height="16" rx="8" fill="#F5F5F5"/>
<mask id="path-2-inside-1_1_14738" fill="white">
<path fill-rule="evenodd" clip-rule="evenodd" d="M2 9.99689C2.00134 6.48095 4.2708 3.49526 7.42467 2.42355L16 10.9972L11.5 10.9972L15.3724 15.9277C13.957 17.2113 12.0799 17.995 10.0197 18L9.98026 18C5.57209 17.9893 2.00168 14.4134 2 10.0031C2 10.0021 2 10.001 2 10C2 9.99896 2 9.99793 2 9.99689Z"/>
</mask>
<path fill-rule="evenodd" clip-rule="evenodd" d="M2 9.99689C2.00134 6.48095 4.2708 3.49526 7.42467 2.42355L16 10.9972L11.5 10.9972L15.3724 15.9277C13.957 17.2113 12.0799 17.995 10.0197 18L9.98026 18C5.57209 17.9893 2.00168 14.4134 2 10.0031C2 10.0021 2 10.001 2 10C2 9.99896 2 9.99793 2 9.99689Z" fill="#EA580C"/>
<path d="M2 9.99689L1 9.99651L1 9.99689L2 9.99689ZM7.42467 2.42355L8.13171 1.71638L7.69185 1.27661L7.10293 1.47672L7.42467 2.42355ZM16 10.9972L16 11.9972L18.4146 11.9972L16.707 10.29L16 10.9972ZM11.5 10.9972L11.5 9.99716L9.44305 9.99716L10.7136 11.6148L11.5 10.9972ZM15.3724 15.9277L16.0442 16.6685L16.7343 16.0427L16.1589 15.31L15.3724 15.9277ZM10.0197 18L10.0197 19L10.0222 19L10.0197 18ZM9.98026 18L9.97784 19L9.98026 19L9.98026 18ZM2 10.0031L1 10.0031L1 10.0035L2 10.0031ZM3 9.99727C3.00117 6.92238 4.98558 4.30854 7.74641 3.37038L7.10293 1.47672C3.55603 2.68199 1.0015 6.03952 1 9.99651L3 9.99727ZM6.71763 3.13073L15.293 11.7043L16.707 10.29L8.13171 1.71638L6.71763 3.13073ZM16 9.99716L11.5 9.99716L11.5 11.9972L16 11.9972L16 9.99716ZM10.7136 11.6148L14.586 16.5454L16.1589 15.31L12.2864 10.3795L10.7136 11.6148ZM14.7007 15.187C13.4614 16.3108 11.8205 16.9956 10.0173 17L10.0222 19C12.3393 18.9944 14.4526 18.1119 16.0442 16.6685L14.7007 15.187ZM10.0197 17L9.98026 17L9.98026 19L10.0197 19L10.0197 17ZM9.98267 17C6.12558 16.9907 3.00147 13.8617 3 10.0027L1 10.0035C1.00189 14.9651 5.0186 18.988 9.97784 19L9.98267 17ZM3 10.0031C3 10.0023 3 10.0016 3 10.0011C3 10.0005 3 10.0002 3 10L0.999999 10C0.999999 10.0008 0.999999 10.0015 1 10.002C1 10.0026 1 10.0029 1 10.0031L3 10.0031ZM3 10C3 9.99975 3 9.99946 3 9.9989C3 9.99842 3 9.99768 3 9.99689L1 9.99689C1 9.99714 1 9.99743 1 9.99798C0.999999 9.99846 0.999999 9.99921 0.999999 10L3 10Z" fill="#1E40AF" mask="url(#path-2-inside-1_1_14738)"/>
<path fill-rule="evenodd" clip-rule="evenodd" d="M7.28535 11.2023C7.19554 10.9259 6.80452 10.9259 6.71472 11.2023L6.59388 11.5742L6.27754 11.3443C6.04242 11.1735 5.72608 11.4034 5.81589 11.6797L5.93672 12.0516L5.5457 12.0516C5.25508 12.0516 5.13425 12.4235 5.36936 12.5943L5.6857 12.8242L5.36936 13.054C5.13425 13.2248 5.25508 13.5967 5.5457 13.5967L5.93672 13.5967L5.81589 13.9686C5.72608 14.245 6.04242 14.4748 6.27754 14.304L6.59388 14.0742L6.71472 14.4461C6.80452 14.7225 7.19554 14.7225 7.28535 14.4461L7.40618 14.0742L7.72253 14.304C7.95764 14.4748 8.27398 14.245 8.18418 13.9686L8.06335 13.5967L8.45437 13.5967C8.74499 13.5967 8.86582 13.2248 8.6307 13.054L8.31436 12.8242L8.6307 12.5943C8.86582 12.4235 8.74499 12.0516 8.45437 12.0516L8.06335 12.0516L8.18418 11.6797C8.27398 11.4034 7.95764 11.1735 7.72253 11.3443L7.40618 11.5742L7.28535 11.2023Z" fill="#F5F5F5"/>
<path fill-rule="evenodd" clip-rule="evenodd" d="M9 6.99501C9 6.94101 8.91485 6.93252 8.8924 6.98163C8.62294 7.5712 7.87746 7.995 7 7.995C6.12254 7.995 5.37706 7.5712 5.1076 6.98163C5.08515 6.93252 5 6.94101 5 6.99501C5 8.09958 5.89543 8.99501 7 8.99501C8.10457 8.99501 9 8.09958 9 6.99501Z" fill="#F5F5F5"/>
<path d="M6.71468 6.37311C6.80449 6.09672 7.19551 6.09672 7.28532 6.37311L7.38167 6.66967C7.42184 6.79327 7.53702 6.87696 7.66699 6.87696L7.97881 6.87696C8.26943 6.87696 8.39026 7.24885 8.15514 7.41967L7.90288 7.60295C7.79773 7.67934 7.75374 7.81475 7.7939 7.93836L7.89025 8.23491C7.98006 8.51131 7.66372 8.74114 7.4286 8.57032L7.17634 8.38704C7.07119 8.31065 6.92881 8.31065 6.82366 8.38704L6.5714 8.57032C6.33628 8.74115 6.01994 8.51131 6.10975 8.23491L6.2061 7.93836C6.24627 7.81475 6.20227 7.67934 6.09712 7.60295L5.84486 7.41967C5.60974 7.24885 5.73058 6.87696 6.02119 6.87696L6.33301 6.87696C6.46298 6.87696 6.57816 6.79327 6.61833 6.66967L6.71468 6.37311Z" fill="#F5F5F5"/>
<path d="M7.28532 8.61688C7.19551 8.89327 6.80449 8.89327 6.71468 8.61688L6.61833 8.32032C6.57816 8.19672 6.46298 8.11303 6.33301 8.11303L6.02119 8.11303C5.73057 8.11303 5.60974 7.74114 5.84486 7.57032L6.09712 7.38704C6.20227 7.31065 6.24627 7.17524 6.2061 7.05163L6.10975 6.75508C6.01994 6.47868 6.33628 6.24885 6.5714 6.41967L6.82366 6.60295C6.92881 6.67934 7.07119 6.67934 7.17634 6.60295L7.4286 6.41967C7.66372 6.24884 7.98006 6.47868 7.89025 6.75508L7.7939 7.05163C7.75373 7.17524 7.79773 7.31065 7.90288 7.38704L8.15514 7.57032C8.39026 7.74114 8.26942 8.11303 7.97881 8.11303L7.66699 8.11303C7.53702 8.11303 7.42184 8.19672 7.38167 8.32032L7.28532 8.61688Z" fill="#F5F5F5"/>
</g>
<defs>
<clipPath id="clip0_1_14738">
<rect x="2.00488" y="1.995" width="16" height="16" rx="8" fill="white"/>
</clipPath>
</defs>
</svg>
