<svg width="20" height="20" viewBox="0 0 20 20" fill="none" xmlns="http://www.w3.org/2000/svg">
<g clip-path="url(#clip0_1_14183)">
<rect x="2" y="2" width="16" height="16" fill="#0284C7"/>
<path d="M7.83204 6.16796L7.63305 5.63021C7.41559 5.04255 6.58441 5.04254 6.36695 5.63021L6.16796 6.16796L5.63021 6.36695C5.04255 6.58441 5.04254 7.41559 5.63021 7.63305L6.16796 7.83204L6.36695 8.36979C6.58441 8.95745 7.41559 8.95746 7.63305 8.36979L7.83204 7.83204L8.36979 7.63305C8.95745 7.41559 8.95745 6.58441 8.36979 6.36695L7.83204 6.16796ZM6.20031 7.844C6.20027 7.84399 6.20023 7.84398 6.20019 7.84396L6.20031 7.844L6.22634 7.77366L6.20031 7.844Z" fill="#EA580C" stroke="#F5F5F5" stroke-width="0.75" stroke-linejoin="round"/>
<path d="M18 15H2" stroke="#FACC15" stroke-linecap="round" stroke-linejoin="round"/>
<path d="M18 13H2" stroke="#FACC15" stroke-linecap="round" stroke-linejoin="round"/>
</g>
<defs>
<clipPath id="clip0_1_14183">
<rect x="18.0049" y="17.995" width="16" height="16" rx="8" transform="rotate(180 18.0049 17.995)" fill="white"/>
</clipPath>
</defs>
</svg>
