<svg width="20" height="20" viewBox="0 0 20 20" fill="none" xmlns="http://www.w3.org/2000/svg">
<g clip-path="url(#clip0_1_14175)">
<rect x="18" y="18" width="16" height="16" transform="rotate(180 18 18)" fill="#F5F5F5"/>
<rect x="2" y="15.495" width="16" height="2.5" fill="#15803D"/>
<rect x="2" y="1.995" width="16" height="2.5" fill="#15803D"/>
<rect x="18" y="14" width="16" height="8" transform="rotate(180 18 14)" fill="#C2410C"/>
<path d="M9.71468 7.87812C9.80449 7.60172 10.1955 7.60172 10.2853 7.87812L10.6062 8.86565C10.6464 8.98926 10.7615 9.07295 10.8915 9.07295H11.9299C12.2205 9.07295 12.3413 9.44483 12.1062 9.61565L11.2661 10.226C11.161 10.3024 11.117 10.4378 11.1572 10.5614L11.478 11.5489C11.5678 11.8253 11.2515 12.0552 11.0164 11.8843L10.1763 11.274C10.0712 11.1976 9.92881 11.1976 9.82366 11.274L8.98361 11.8843C8.7485 12.0552 8.43216 11.8253 8.52196 11.5489L8.84283 10.5614C8.88299 10.4378 8.839 10.3024 8.73385 10.226L7.8938 9.61565C7.65869 9.44483 7.77952 9.07295 8.07014 9.07295H9.1085C9.23846 9.07295 9.35365 8.98926 9.39381 8.86565L9.71468 7.87812Z" fill="#FACC15"/>
</g>
<defs>
<clipPath id="clip0_1_14175">
<rect x="2.00488" y="17.995" width="16" height="16" rx="8" transform="rotate(-90 2.00488 17.995)" fill="white"/>
</clipPath>
</defs>
</svg>
