<svg width="20" height="20" viewBox="0 0 20 20" fill="none" xmlns="http://www.w3.org/2000/svg">
<g clip-path="url(#clip0_1_15650)">
<rect x="18.0098" y="17.99" width="16" height="16" transform="rotate(180 18.0098 17.99)" fill="#262626"/>
<rect x="2" y="2" width="16" height="8" fill="#EA580C"/>
<path d="M10.2275 7.83352C10.3133 7.56959 10.6867 7.56959 10.7725 7.83352C10.8108 7.95155 10.9208 8.03147 11.0449 8.03147C11.3224 8.03147 11.4378 8.38659 11.2133 8.54971C11.1129 8.62266 11.0709 8.75196 11.1092 8.87C11.195 9.13393 10.8929 9.3534 10.6684 9.19028C10.568 9.11733 10.432 9.11733 10.3316 9.19028C10.1071 9.3534 9.80502 9.13393 9.89078 8.86999C9.92913 8.75196 9.88711 8.62266 9.78671 8.54971C9.56219 8.38659 9.67758 8.03147 9.95509 8.03147C10.0792 8.03147 10.1892 7.95155 10.2275 7.83352Z" fill="#FACC15"/>
<path d="M11.5655 6.995C12.7371 8.16657 12.7371 10.0661 11.5655 11.2376C10.3939 12.4092 8.49445 12.4092 7.32288 11.2376" stroke="#FACC15" stroke-width="0.75" stroke-linecap="round"/>
<rect x="8.1698" y="9.90429" width="0.75" height="6" rx="0.375" transform="rotate(-52.7813 8.1698 9.90429)" fill="#FACC15"/>
</g>
<defs>
<clipPath id="clip0_1_15650">
<rect x="18.0049" y="1.995" width="16" height="16" rx="8" transform="rotate(90 18.0049 1.995)" fill="white"/>
</clipPath>
</defs>
</svg>
