<svg width="20" height="20" viewBox="0 0 20 20" fill="none" xmlns="http://www.w3.org/2000/svg">
<g clip-path="url(#clip0_1_15527)">
<path d="M17.9999 17.9999L1.99994 17.9999L1.99994 1.99992L17.9999 1.99992L17.9999 17.9999Z" fill="#FACC15"/>
<rect x="18" y="18" width="16" height="8" transform="rotate(-180 18 18)" fill="#16A34A"/>
<rect x="2" y="18" width="16" height="6" transform="rotate(-90 2 18)" fill="#EA580C"/>
<path d="M4.71468 8.87811C4.80449 8.60172 5.19551 8.60172 5.28532 8.87812L5.38167 9.17467C5.42184 9.29828 5.53702 9.38197 5.66699 9.38197H5.97881C6.26943 9.38197 6.39026 9.75385 6.15514 9.92467L5.90288 10.108C5.79773 10.1843 5.75373 10.3198 5.7939 10.4434L5.89025 10.7399C5.98006 11.0163 5.66371 11.2461 5.4286 11.0753L5.17634 10.892C5.07119 10.8157 4.92881 10.8157 4.82366 10.892L4.5714 11.0753C4.33628 11.2461 4.01994 11.0163 4.10975 10.7399L4.2061 10.4434C4.24627 10.3198 4.20227 10.1843 4.09712 10.108L3.84486 9.92467C3.60974 9.75385 3.73058 9.38197 4.02119 9.38197H4.33301C4.46298 9.38197 4.57816 9.29828 4.61833 9.17467L4.71468 8.87811Z" fill="#262626"/>
</g>
<defs>
<clipPath id="clip0_1_15527">
<rect x="2.00488" y="1.995" width="16" height="16" rx="8" fill="white"/>
</clipPath>
</defs>
</svg>
