<svg width="20" height="20" viewBox="0 0 20 20" fill="none" xmlns="http://www.w3.org/2000/svg">
<g clip-path="url(#clip0_1_15479)">
<rect x="2" y="1.99999" width="16" height="16" fill="#F5F5F5"/>
<rect x="2.00482" y="12.665" width="16" height="5.33" fill="#FACC15"/>
<rect x="2" y="7.99999" width="16" height="4" fill="#262626"/>
<rect x="2.50983" y="2.49999" width="15" height="4.33" fill="#166534" stroke="#166534"/>
<rect x="3.65686" y="15.6568" width="8" height="8" rx="1" transform="rotate(-135 3.65686 15.6568)" fill="#EA580C"/>
</g>
<path d="M4.71468 8.37812C4.80449 8.10172 5.19551 8.10172 5.28532 8.37812L5.49393 9.02016C5.53409 9.14377 5.64928 9.22746 5.77925 9.22746H6.45434C6.74495 9.22746 6.86579 9.59934 6.63067 9.77016L6.08451 10.167C5.97937 10.2434 5.93537 10.3788 5.97553 10.5024L6.18415 11.1444C6.27395 11.4208 5.95761 11.6507 5.72249 11.4798L5.17634 11.083C5.07119 11.0066 4.92881 11.0066 4.82366 11.083L4.27751 11.4798C4.04239 11.6507 3.72605 11.4208 3.81585 11.1444L4.02447 10.5024C4.06463 10.3788 4.02063 10.2434 3.91549 10.167L3.36933 9.77016C3.13421 9.59934 3.25505 9.22746 3.54566 9.22746H4.22075C4.35072 9.22746 4.46591 9.14377 4.50607 9.02016L4.71468 8.37812Z" fill="#FACC15"/>
<path d="M6 10.5L4.21213 8.71213C4.09497 8.59497 3.90503 8.59497 3.78787 8.71213L3.5 9M6 8.5L4 10.5" stroke="#262626" stroke-width="0.75" stroke-linecap="round"/>
<defs>
<clipPath id="clip0_1_15479">
<rect x="18.0049" y="17.995" width="16" height="16" rx="8" transform="rotate(180 18.0049 17.995)" fill="white"/>
</clipPath>
</defs>
</svg>
