<svg width="20" height="20" viewBox="0 0 20 20" fill="none" xmlns="http://www.w3.org/2000/svg">
<g clip-path="url(#clip0_1_15336)">
<path d="M17.9999 17.9999L1.99994 17.9999L1.99994 1.99992L17.9999 1.99992L17.9999 17.9999Z" fill="#FACC15"/>
<rect x="18" y="18" width="16" height="5" transform="rotate(-180 18 18)" fill="#16A34A"/>
<rect x="18" y="7" width="16" height="5" transform="rotate(-180 18 7)" fill="#16A34A"/>
<rect x="3.65686" y="15.6568" width="8" height="8" rx="1" transform="rotate(-135 3.65686 15.6568)" fill="#EA580C"/>
<path d="M11.2196 8.87811C11.3094 8.60172 11.7004 8.60172 11.7902 8.87812L11.8866 9.17467C11.9267 9.29828 12.0419 9.38197 12.1719 9.38197H12.4837C12.7743 9.38197 12.8951 9.75385 12.66 9.92467L12.4078 10.108C12.3026 10.1843 12.2586 10.3198 12.2988 10.4434L12.3951 10.7399C12.4849 11.0163 12.1686 11.2461 11.9335 11.0753L11.6812 10.892C11.5761 10.8157 11.4337 10.8157 11.3285 10.892L11.0763 11.0753C10.8412 11.2461 10.5248 11.0163 10.6146 10.7399L10.711 10.4434C10.7511 10.3198 10.7072 10.1843 10.602 10.108L10.3497 9.92467C10.1146 9.75385 10.2355 9.38197 10.5261 9.38197H10.8379C10.9679 9.38197 11.083 9.29828 11.1232 9.17467L11.2196 8.87811Z" fill="#262626"/>
<path d="M15.2196 8.87811C15.3094 8.60172 15.7004 8.60172 15.7902 8.87812L15.8866 9.17467C15.9267 9.29828 16.0419 9.38197 16.1719 9.38197H16.4837C16.7743 9.38197 16.8951 9.75385 16.66 9.92467L16.4078 10.108C16.3026 10.1843 16.2586 10.3198 16.2988 10.4434L16.3951 10.7399C16.4849 11.0163 16.1686 11.2461 15.9335 11.0753L15.6812 10.892C15.5761 10.8157 15.4337 10.8157 15.3285 10.892L15.0763 11.0753C14.8412 11.2461 14.5248 11.0163 14.6146 10.7399L14.711 10.4434C14.7511 10.3198 14.7072 10.1843 14.602 10.108L14.3497 9.92467C14.1146 9.75385 14.2355 9.38197 14.5261 9.38197H14.8379C14.9679 9.38197 15.083 9.29828 15.1232 9.17467L15.2196 8.87811Z" fill="#262626"/>
</g>
<defs>
<clipPath id="clip0_1_15336">
<rect x="2.00488" y="1.995" width="16" height="16" rx="8" fill="white"/>
</clipPath>
</defs>
</svg>
