<svg width="20" height="20" viewBox="0 0 20 20" fill="none" xmlns="http://www.w3.org/2000/svg">
<g clip-path="url(#clip0_1_14792)">
<path d="M18 17.9999V2.00002H2V17.9999H18Z" fill="#EA580C"/>
<rect width="11.6745" height="11.6745" rx="1" transform="matrix(-0.800301 -0.599598 0.800302 -0.599598 3.65686 17)" fill="#FACC15"/>
<rect width="8.24621" height="8.24621" rx="1" transform="matrix(-0.685994 -0.727607 0.685994 -0.727607 3.65686 16)" fill="#262626"/>
<path d="M5.28532 11.3719C5.19551 11.6483 4.80449 11.6483 4.71468 11.3719L4.50607 10.7298C4.46591 10.6062 4.35072 10.5225 4.22075 10.5225L3.54566 10.5225C3.25505 10.5225 3.13421 10.1507 3.36933 9.97984L3.91549 9.58303C4.02063 9.50664 4.06463 9.37123 4.02447 9.24762L3.81585 8.60557C3.72605 8.32918 4.04239 8.09934 4.27751 8.27016L4.82366 8.66697C4.92881 8.74336 5.07119 8.74336 5.17634 8.66697L5.72249 8.27016C5.95761 8.09934 6.27395 8.32918 6.18415 8.60557L5.97553 9.24762C5.93537 9.37123 5.97937 9.50664 6.08451 9.58303L6.63067 9.97984C6.86579 10.1507 6.74495 10.5225 6.45434 10.5225L5.77925 10.5225C5.64928 10.5225 5.53409 10.6062 5.49393 10.7298L5.28532 11.3719Z" fill="#F5F5F5"/>
</g>
<defs>
<clipPath id="clip0_1_14792">
<rect x="2" y="2" width="16" height="16" rx="8" fill="white"/>
</clipPath>
</defs>
</svg>
