<svg width="20" height="20" viewBox="0 0 20 20" fill="none" xmlns="http://www.w3.org/2000/svg">
<g clip-path="url(#clip0_1_15719)">
<rect x="17.9999" y="17.9999" width="16" height="16" transform="rotate(-180 17.9999 17.9999)" fill="#C2410C"/>
<rect x="3" y="16" width="8.48526" height="8.48528" transform="rotate(-135 3 16)" fill="#16A34A"/>
<rect x="16" y="16" width="8.48526" height="8.48528" transform="rotate(-135 16 16)" fill="#16A34A"/>
<path d="M15.6569 4.34313L4.34315 15.6568" stroke="#F5F5F5" stroke-width="2" stroke-linecap="round"/>
<path d="M15.6569 15.6568L4.34315 4.34313" stroke="#F5F5F5" stroke-width="2" stroke-linecap="round"/>
<circle cx="10" cy="10" r="4" fill="#F5F5F5"/>
<path d="M9.78991 7.38644C9.88046 7.21989 10.1195 7.21989 10.2101 7.38644C10.253 7.46536 10.3365 7.51358 10.4263 7.51127C10.6158 7.50642 10.7354 7.71347 10.6364 7.87516C10.5895 7.95178 10.5895 8.04822 10.6364 8.12484C10.7354 8.28653 10.6158 8.49358 10.4263 8.48873C10.3365 8.48642 10.253 8.53464 10.2101 8.61356C10.1195 8.78011 9.88046 8.78011 9.78991 8.61356C9.747 8.53464 9.66349 8.48642 9.57369 8.48873C9.38417 8.49358 9.26463 8.28653 9.36359 8.12484C9.41049 8.04822 9.41049 7.95178 9.36359 7.87516C9.26463 7.71347 9.38417 7.50642 9.57369 7.51127C9.66349 7.51358 9.747 7.46536 9.78991 7.38644Z" fill="#C2410C"/>
<path d="M7.78991 10.3864C7.88046 10.2199 8.11954 10.2199 8.21009 10.3864C8.253 10.4654 8.33651 10.5136 8.42631 10.5113C8.61583 10.5064 8.73537 10.7135 8.63641 10.8752C8.58951 10.9518 8.58951 11.0482 8.63641 11.1248C8.73537 11.2865 8.61583 11.4936 8.42631 11.4887C8.33651 11.4864 8.253 11.5346 8.21009 11.6136C8.11954 11.7801 7.88046 11.7801 7.78991 11.6136C7.747 11.5346 7.66349 11.4864 7.57369 11.4887C7.38417 11.4936 7.26463 11.2865 7.36359 11.1248C7.41049 11.0482 7.41049 10.9518 7.36359 10.8752C7.26463 10.7135 7.38417 10.5064 7.57369 10.5113C7.66349 10.5136 7.747 10.4654 7.78991 10.3864Z" fill="#C2410C"/>
<path d="M11.7899 10.3864C11.8805 10.2199 12.1195 10.2199 12.2101 10.3864C12.253 10.4654 12.3365 10.5136 12.4263 10.5113C12.6158 10.5064 12.7354 10.7135 12.6364 10.8752C12.5895 10.9518 12.5895 11.0482 12.6364 11.1248C12.7354 11.2865 12.6158 11.4936 12.4263 11.4887C12.3365 11.4864 12.253 11.5346 12.2101 11.6136C12.1195 11.7801 11.8805 11.7801 11.7899 11.6136C11.747 11.5346 11.6635 11.4864 11.5737 11.4887C11.3842 11.4936 11.2646 11.2865 11.3636 11.1248C11.4105 11.0482 11.4105 10.9518 11.3636 10.8752C11.2646 10.7135 11.3842 10.5064 11.5737 10.5113C11.6635 10.5136 11.747 10.4654 11.7899 10.3864Z" fill="#C2410C"/>
</g>
<defs>
<clipPath id="clip0_1_15719">
<rect x="2.00488" y="1.995" width="16" height="16" rx="8" fill="white"/>
</clipPath>
</defs>
</svg>
