<svg width="20" height="20" viewBox="0 0 20 20" fill="none" xmlns="http://www.w3.org/2000/svg">
<g clip-path="url(#clip0_1_13808)">
<rect x="2" y="2" width="16" height="16" fill="#FACC15"/>
<path d="M10 11.2143L10 12.995" stroke="#CA8A04" stroke-width="0.75" stroke-linecap="round"/>
<path d="M11.25 12.4014V12.4014C11.0033 12.4014 10.7716 12.2829 10.6272 12.0829L10 11.2143" stroke="#CA8A04" stroke-width="0.75" stroke-linecap="round"/>
<path d="M8.75 12.4014V12.4014C8.99671 12.4014 9.22841 12.2829 9.37283 12.0829L9.99999 11.2143" stroke="#CA8A04" stroke-width="0.75" stroke-linecap="round"/>
<path d="M9.5 7.94671V7.94671C9.72123 7.8167 9.99999 7.97622 9.99999 8.23282L9.99999 9.73037" stroke="#CA8A04" stroke-width="0.75" stroke-linecap="round"/>
<path d="M9.59573 9.25791L8.88944 9.09022C8.73835 9.05435 8.60516 8.97853 8.5 8.87557L8.5 11.0317L9.0129 10.4228C9.52858 9.81066 10.4714 9.81066 10.9871 10.4228L11.5 11.0317L11.5 8.87619C11.3951 8.97869 11.2624 9.05417 11.1118 9.08992M9.59573 9.25791L11.1118 9.08992M9.59573 9.25791C9.86154 9.32102 10.1384 9.32102 10.4042 9.25791L11.1118 9.08992M9.59573 9.25791L11.1118 9.08992" fill="#CA8A04" stroke="#CA8A04" stroke-linecap="round"/>
<path d="M9.18244 9.7334C8.94361 9.7334 8.75 9.92701 8.75 10.1658L8.75 10.3821C8.75 11.0725 9.30964 11.6321 10 11.6321C10.6904 11.6321 11.25 11.0725 11.25 10.3821L11.25 10.1658C11.25 9.92701 11.0564 9.7334 10.8176 9.7334L10 9.7334L9.18244 9.7334Z" fill="#CA8A04" stroke="#CA8A04" stroke-width="0.5"/>
<path d="M9 9.28828C9 9.1226 9.13431 8.98828 9.3 8.98828L10.7 8.98828C10.8657 8.98828 11 9.1226 11 9.28828L11 10.2868C11 10.4525 10.8657 10.5868 10.7 10.5868L9.3 10.5868C9.13431 10.5868 9 10.4525 9 10.2868L9 9.28828Z" fill="#EA580C"/>
<path d="M9 10.1658C9 10.0651 9.08168 9.9834 9.18244 9.9834L10 9.9834L10.8176 9.9834C10.9183 9.9834 11 10.0651 11 10.1658L11 10.3821C11 10.9344 10.5523 11.3821 10 11.3821C9.44772 11.3821 9 10.9344 9 10.3821L9 10.1658Z" fill="#1E40AF"/>
<path d="M10 10.5L10 9.7876" stroke="#FACC15" stroke-width="0.75" stroke-linecap="round"/>
<rect x="2" y="2" width="5.33" height="16" fill="#1E40AF"/>
<rect x="12.6749" y="2" width="5.33" height="16" fill="#EA580C"/>
</g>
<defs>
<clipPath id="clip0_1_13808">
<rect x="18.0049" y="17.995" width="16" height="16" rx="8" transform="rotate(180 18.0049 17.995)" fill="white"/>
</clipPath>
</defs>
</svg>
