<svg width="20" height="20" viewBox="0 0 20 20" fill="none" xmlns="http://www.w3.org/2000/svg">
<g clip-path="url(#clip0_1_15600)">
<rect x="2.00977" y="1.99001" width="16" height="16" fill="#0284C7"/>
<path d="M13.2147 4.87812C13.3045 4.60173 13.6955 4.60173 13.7853 4.87812L13.9939 5.52017C14.0341 5.64377 14.1493 5.72746 14.2792 5.72746H14.9543C15.245 5.72746 15.3658 6.09935 15.1307 6.27017L14.5845 6.66697C14.4794 6.74337 14.4354 6.87878 14.4755 7.00238L14.6841 7.64443C14.774 7.92082 14.4576 8.15066 14.2225 7.97984L13.6763 7.58303C13.5712 7.50664 13.4288 7.50664 13.3237 7.58303L12.7775 7.97984C12.5424 8.15066 12.226 7.92082 12.3159 7.64443L12.5245 7.00238C12.5646 6.87878 12.5206 6.74337 12.4155 6.66697L11.8693 6.27017C11.6342 6.09935 11.755 5.72746 12.0457 5.72746H12.7208C12.8507 5.72746 12.9659 5.64377 13.0061 5.52017L13.2147 4.87812Z" fill="#FACC15"/>
<path d="M13.7853 8.12188C13.6955 8.39828 13.3045 8.39828 13.2147 8.12188L13.0061 7.47984C12.9659 7.35623 12.8507 7.27254 12.7208 7.27254L12.0457 7.27254C11.755 7.27254 11.6342 6.90066 11.8693 6.72984L12.4155 6.33303C12.5206 6.25664 12.5646 6.12123 12.5245 5.99762L12.3159 5.35557C12.226 5.07918 12.5424 4.84934 12.7775 5.02016L13.3237 5.41697C13.4288 5.49336 13.5712 5.49336 13.6763 5.41697L14.2225 5.02016C14.4576 4.84934 14.774 5.07918 14.6841 5.35557L14.4755 5.99762C14.4354 6.12123 14.4794 6.25664 14.5845 6.33303L15.1307 6.72984C15.3658 6.90066 15.245 7.27254 14.9543 7.27254L14.2792 7.27254C14.1493 7.27254 14.0341 7.35623 13.9939 7.47984L13.7853 8.12188Z" fill="#FACC15"/>
<path fill-rule="evenodd" clip-rule="evenodd" d="M18 18H2V14H18V18Z" fill="#16A34A"/>
<path fill-rule="evenodd" clip-rule="evenodd" d="M18 14H2V10H18V14Z" fill="#FACC15"/>
</g>
<defs>
<clipPath id="clip0_1_15600">
<rect x="18.0049" y="1.995" width="16" height="16" rx="8" transform="rotate(90 18.0049 1.995)" fill="white"/>
</clipPath>
</defs>
</svg>
