<svg width="20" height="20" viewBox="0 0 20 20" fill="none" xmlns="http://www.w3.org/2000/svg">
<g clip-path="url(#clip0_1_13987)">
<rect x="2" y="2" width="16" height="16" fill="#C2410C"/>
<rect x="2.00482" y="1.99005" width="16" height="5.33" fill="#F5F5F5"/>
<rect x="2.00983" y="7.32501" width="16" height="5.33" fill="#1E40AF"/>
<path d="M5 6.68097C5 6.26969 5.2504 5.89984 5.63226 5.7471C6.83124 5.2675 8.16876 5.2675 9.36774 5.7471C9.7496 5.89984 10 6.26969 10 6.68097V8.5C10 9.88071 8.88071 11 7.5 11C6.11929 11 5 9.88071 5 8.5V6.68097Z" fill="#1E40AF"/>
<path d="M5.67764 9.36903C5.58087 8.87942 5.88585 8.39975 6.37002 8.27871C7.11444 8.09261 7.89428 8.09234 8.6387 8.27845C9.1234 8.39963 9.42719 8.88046 9.32848 9.37023L9.26115 9.70428C9.10925 10.4579 8.44704 11 7.67822 11H7.32562C6.55523 11 5.89234 10.4553 5.74296 9.69954L5.67764 9.36903Z" fill="#F5F5F5"/>
</g>
<defs>
<clipPath id="clip0_1_13987">
<rect x="18.0049" y="17.995" width="16" height="16" rx="8" transform="rotate(180 18.0049 17.995)" fill="white"/>
</clipPath>
</defs>
</svg>
