<svg width="20" height="20" viewBox="0 0 20 20" fill="none" xmlns="http://www.w3.org/2000/svg">
<g clip-path="url(#clip0_1_14400)">
<rect x="2" y="18" width="16" height="16" transform="rotate(-90 2 18)" fill="#1E40AF"/>
<path d="M17.5356 2.65146C17.6128 2.61289 17.7049 2.66218 17.7156 2.74775L18.6201 9.9845C18.6214 9.99479 18.6214 10.0052 18.6201 10.0155L17.7156 17.2522C17.7049 17.3378 17.6128 17.3871 17.5356 17.3485L3.06213 10.1118C2.97 10.0657 2.97 9.93426 3.06213 9.88819L17.5356 2.65146Z" fill="#F5F5F5" stroke="#C2410C" stroke-width="0.75"/>
<path d="M11.9296 7.99028L10.9623 8.71577C10.8287 8.81601 10.75 8.97332 10.75 9.14039C10.75 9.4857 11.0745 9.73907 11.4095 9.65532L12.6476 9.34578C13.0166 9.25354 13.1829 8.82358 12.9719 8.50712L12.7173 8.12519C12.5421 7.86248 12.1822 7.80083 11.9296 7.99028Z" stroke="#D4D4D4" stroke-width="0.5"/>
<path d="M16.0227 7.3445L15.1039 7.68905C14.891 7.76887 14.75 7.97234 14.75 8.19966C14.75 8.50084 14.9942 8.745 15.2953 8.745H16.4394C16.8787 8.745 17.1407 8.25542 16.8971 7.88991L16.6734 7.5544C16.5316 7.34172 16.262 7.25475 16.0227 7.3445Z" stroke="#D4D4D4" stroke-width="0.5"/>
<path d="M13.8385 10.0115C13.9091 9.78777 13.7072 9.57319 13.4796 9.63009L12.5302 9.86745C12.3005 9.92487 12.098 9.70612 12.1728 9.48154L12.4051 8.78461C12.4575 8.62742 12.3726 8.45753 12.2154 8.40513L11.6871 8.22903C11.4335 8.14451 11.4087 7.79563 11.6478 7.6761L15.4211 5.78946C15.6496 5.67521 15.9072 5.88063 15.8467 6.12884L15.4613 7.7101C15.4363 7.81241 15.4668 7.92031 15.5417 7.99439L15.7487 8.19924C15.8965 8.34553 15.8543 8.59422 15.6664 8.68346L15.2591 8.87694C15.1141 8.94578 15.049 9.11647 15.1113 9.26434L15.3273 9.7773C15.382 9.9073 15.3388 10.0579 15.2234 10.1391L14.073 10.9487C14.0255 10.9821 13.9688 11 13.9108 11C13.7203 11 13.5847 10.815 13.6421 10.6334L13.8385 10.0115Z" fill="#A16207"/>
<path d="M11.5 9.5L11 10" stroke="#EAB308" stroke-width="0.75" stroke-linecap="round"/>
<path d="M10 11H15.5C15.7761 11 16 11.2239 16 11.5V11.5C16 11.7761 15.7761 12 15.5 12H11.75C11.4739 12 11.25 12.2239 11.25 12.5V12.5C11.25 12.7761 11.4739 13 11.75 13H15" stroke="#EAB308" stroke-width="0.75" stroke-linecap="round"/>
</g>
<defs>
<clipPath id="clip0_1_14400">
<rect x="2.00488" y="1.995" width="16" height="16" rx="8" fill="white"/>
</clipPath>
</defs>
</svg>
