<svg width="20" height="20" viewBox="0 0 20 20" fill="none" xmlns="http://www.w3.org/2000/svg">
<g clip-path="url(#clip0_1_15731)">
<rect x="2" y="5" width="16" height="3" fill="#FACC15"/>
<rect x="2" y="12" width="16" height="3" fill="#FACC15"/>
<path d="M2 2L18 2L18 5L2 5L2 2Z" fill="#16A34A"/>
<rect x="2" y="8" width="16" height="4" fill="#262626"/>
<rect x="2" y="15" width="16" height="3" fill="#16A34A"/>
<rect x="3.65686" y="15.6569" width="8" height="8" rx="1" transform="rotate(-135 3.65686 15.6569)" fill="#F5F5F5"/>
<path d="M4.71468 7.87811C4.80449 7.60172 5.19551 7.60172 5.28532 7.87811L5.60619 8.86565C5.64635 8.98926 5.76154 9.07295 5.8915 9.07295H6.92986C7.22048 9.07295 7.34131 9.44483 7.1062 9.61565L6.26615 10.226C6.161 10.3024 6.11701 10.4378 6.15717 10.5614L6.47804 11.5489C6.56784 11.8253 6.2515 12.0552 6.01639 11.8843L5.17634 11.274C5.07119 11.1976 4.92881 11.1976 4.82366 11.274L3.98361 11.8843C3.7485 12.0552 3.43216 11.8253 3.52196 11.5489L3.84283 10.5614C3.88299 10.4378 3.839 10.3024 3.73385 10.226L2.8938 9.61565C2.65869 9.44483 2.77952 9.07295 3.07014 9.07295H4.1085C4.23846 9.07295 4.35365 8.98926 4.39381 8.86565L4.71468 7.87811Z" fill="#EA580C"/>
<path d="M4.34375 9.3731C4.29615 9.18367 4.43938 9 4.6347 9H5.2C5.36569 9 5.5 9.13431 5.5 9.3V10.8712C5.5 10.9505 5.5314 11.0266 5.58734 11.0828L5.99095 11.4884C6.17921 11.6776 6.0452 12 5.77829 12H4.3C4.13431 12 4 11.8657 4 11.7V11.0705C4 11.0241 4.01075 10.9784 4.0314 10.9369L4.45063 10.0942C4.48249 10.0302 4.49042 9.95687 4.47299 9.8875L4.34375 9.3731Z" fill="#FACC15"/>
<path d="M4.5 9.99499H4" stroke="#FACC15" stroke-width="0.75" stroke-linecap="round"/>
</g>
<defs>
<clipPath id="clip0_1_15731">
<rect x="18.0049" y="17.995" width="16" height="16" rx="8" transform="rotate(180 18.0049 17.995)" fill="white"/>
</clipPath>
</defs>
</svg>
