<svg width="20" height="20" viewBox="0 0 20 20" fill="none" xmlns="http://www.w3.org/2000/svg">
<g clip-path="url(#clip0_1_15354)">
<rect x="2" y="2.00003" width="16" height="16" fill="#0284C7"/>
<path d="M9.71468 6.87811C9.80449 6.60172 10.1955 6.60172 10.2853 6.87812L10.8307 8.55664C10.8709 8.68024 10.9861 8.76393 11.116 8.76393H12.8809C13.1715 8.76393 13.2924 9.13582 13.0573 9.30664L11.6294 10.344C11.5243 10.4204 11.4803 10.5558 11.5204 10.6794L12.0658 12.358C12.1556 12.6343 11.8393 12.8642 11.6042 12.6934L10.1763 11.656C10.0712 11.5796 9.92881 11.5796 9.82366 11.656L8.39583 12.6934C8.16071 12.8642 7.84437 12.6343 7.93418 12.358L8.47956 10.6794C8.51972 10.5558 8.47573 10.4204 8.37058 10.344L6.94274 9.30664C6.70763 9.13582 6.82846 8.76393 7.11908 8.76393H8.88398C9.01395 8.76393 9.12914 8.68024 9.1693 8.55664L9.71468 6.87811Z" fill="#F5F5F5"/>
</g>
<defs>
<clipPath id="clip0_1_15354">
<rect x="2" y="2" width="16" height="16" rx="8" fill="white"/>
</clipPath>
</defs>
</svg>
