<svg width="20" height="20" viewBox="0 0 20 20" fill="none" xmlns="http://www.w3.org/2000/svg">
<g clip-path="url(#clip0_1_13974)">
<rect x="2" y="2" width="16" height="16" fill="#F5F5F5"/>
<rect x="2.00476" y="1.99005" width="16" height="5.33" fill="#C2410C"/>
<rect x="2.00977" y="7.32501" width="16" height="5.33" fill="#1E40AF"/>
<path d="M4.99988 7H9.99988V11.5C9.99988 12.8807 8.88059 14 7.49988 14C6.11917 14 4.99988 12.8807 4.99988 11.5V7Z" fill="#C2410C"/>
<path d="M7.49988 9.5V9C7.49988 8.44772 7.94759 8 8.49988 8H8.99988" stroke="#F5F5F5" stroke-width="0.75" stroke-linecap="round"/>
<path d="M7.50476 9.5V9C7.50476 8.44772 7.05705 8 6.50476 8H6.00476" stroke="#F5F5F5" stroke-width="0.75" stroke-linecap="round"/>
<path d="M7.78377 11.495H7.21623C7.0871 11.495 6.97246 11.5776 6.93162 11.7001L6.63162 12.6001C6.56687 12.7944 6.71146 12.995 6.91623 12.995H8.08377C8.28854 12.995 8.43313 12.7944 8.36838 12.6001L8.06838 11.7001C8.02754 11.5776 7.9129 11.495 7.78377 11.495Z" fill="#F5F5F5"/>
<path d="M8 9.93041L8 11.0596C8 11.1732 8.0642 11.2771 8.16584 11.3279L9.06584 11.7779C9.26531 11.8776 9.5 11.7326 9.5 11.5096L9.5 9.48041C9.5 9.25739 9.26531 9.11234 9.06584 9.21208L8.16584 9.66208C8.0642 9.71289 8 9.81677 8 9.93041Z" fill="#F5F5F5"/>
<path d="M7 9.93041L7 11.0596C7 11.1732 6.9358 11.2771 6.83416 11.3279L5.93416 11.7779C5.73469 11.8776 5.5 11.7326 5.5 11.5096L5.5 9.48041C5.5 9.25739 5.73469 9.11234 5.93416 9.21208L6.83416 9.66208C6.9358 9.71289 7 9.81677 7 9.93041Z" fill="#F5F5F5"/>
<path d="M8.838 6.859C8.78318 6.94671 8.68704 7 8.5836 7L6.41615 7C6.31272 7 6.21658 6.94671 6.16175 6.859L5.478 5.765C5.26986 5.43198 5.50928 5 5.902 5L9.09775 5C9.49047 5 9.72989 5.43198 9.52175 5.765L8.838 6.859Z" fill="#EAB308"/>
</g>
<defs>
<clipPath id="clip0_1_13974">
<rect x="18.0049" y="17.995" width="16" height="16" rx="8" transform="rotate(180 18.0049 17.995)" fill="white"/>
</clipPath>
</defs>
</svg>
