<svg width="20" height="20" viewBox="0 0 20 20" fill="none" xmlns="http://www.w3.org/2000/svg">
<g clip-path="url(#clip0_5_105)">
<path d="M18 17.9999V2.00002H2V17.9999H18Z" fill="#1E40AF"/>
<path d="M6.21864 4.76035C6.31529 4.49917 6.68471 4.49917 6.78136 4.76035L6.85726 4.96549C6.88765 5.04761 6.95239 5.11235 7.03451 5.14274L7.23965 5.21864C7.50083 5.31529 7.50083 5.68471 7.23965 5.78136L7.03451 5.85726C6.95239 5.88765 6.88765 5.95239 6.85726 6.03451L6.78136 6.23965C6.68471 6.50083 6.31529 6.50083 6.21864 6.23965L6.14274 6.03451C6.11235 5.95239 6.04761 5.88765 5.96549 5.85726L5.76035 5.78136C5.49917 5.68471 5.49917 5.31529 5.76035 5.21864L5.96549 5.14274C6.04761 5.11235 6.11235 5.04761 6.14274 4.96549L6.21864 4.76035Z" fill="#F5F5F5"/>
<path d="M4.21864 7.76035C4.31529 7.49917 4.68471 7.49917 4.78136 7.76035L4.85726 7.96549C4.88765 8.04761 4.95239 8.11235 5.03451 8.14274L5.23965 8.21864C5.50083 8.31529 5.50083 8.68471 5.23965 8.78136L5.03451 8.85726C4.95239 8.88765 4.88765 8.95239 4.85726 9.03451L4.78136 9.23965C4.68471 9.50083 4.31529 9.50083 4.21864 9.23965L4.14274 9.03451C4.11235 8.95239 4.04761 8.88765 3.96549 8.85726L3.76035 8.78136C3.49917 8.68471 3.49917 8.31529 3.76035 8.21864L3.96549 8.14274C4.04761 8.11235 4.11235 8.04761 4.14274 7.96549L4.21864 7.76035Z" fill="#F5F5F5"/>
<path d="M8.21864 6.76035C8.31529 6.49917 8.68471 6.49917 8.78136 6.76035L8.85726 6.96549C8.88765 7.04761 8.95239 7.11235 9.03451 7.14274L9.23965 7.21864C9.50083 7.31529 9.50083 7.68471 9.23965 7.78136L9.03451 7.85726C8.95239 7.88765 8.88765 7.95239 8.85726 8.03451L8.78136 8.23965C8.68471 8.50083 8.31529 8.50083 8.21864 8.23965L8.14274 8.03451C8.11235 7.95239 8.04761 7.88765 7.96549 7.85726L7.76035 7.78136C7.49917 7.68471 7.49917 7.31529 7.76035 7.21864L7.96549 7.14274C8.04761 7.11235 8.11235 7.04761 8.14274 6.96549L8.21864 6.76035Z" fill="#F5F5F5"/>
<path d="M6.21864 12.7604C6.31529 12.4992 6.68471 12.4992 6.78136 12.7604L6.85726 12.9655C6.88765 13.0476 6.95239 13.1124 7.03451 13.1427L7.23965 13.2186C7.50083 13.3153 7.50083 13.6847 7.23965 13.7814L7.03451 13.8573C6.95239 13.8876 6.88765 13.9524 6.85726 14.0345L6.78136 14.2396C6.68471 14.5008 6.31529 14.5008 6.21864 14.2396L6.14274 14.0345C6.11235 13.9524 6.04761 13.8876 5.96549 13.8573L5.76035 13.7814C5.49917 13.6847 5.49917 13.3153 5.76035 13.2186L5.96549 13.1427C6.04761 13.1124 6.11235 13.0476 6.14274 12.9655L6.21864 12.7604Z" fill="#F5F5F5"/>
<path d="M14.2289 7.55146L7.90268 11.4445C7.64506 11.603 7.75742 12 8.05991 12H16.1448C16.4283 12 16.5536 11.6429 16.3322 11.4657L15.1375 10.51C14.4011 9.92089 14.1763 8.89737 14.5981 8.05386L14.6544 7.94112C14.7895 7.6711 14.486 7.39323 14.2289 7.55146Z" fill="#FACC15"/>
</g>
<defs>
<clipPath id="clip0_5_105">
<rect x="2" y="2" width="16" height="16" rx="8" fill="white"/>
</clipPath>
</defs>
</svg>
