<svg width="20" height="20" viewBox="0 0 20 20" fill="none" xmlns="http://www.w3.org/2000/svg">
<g clip-path="url(#clip0_1_18528)">
<rect x="2" y="2.00003" width="16" height="16" fill="#EA580C"/>
<path fill-rule="evenodd" clip-rule="evenodd" d="M7 10C7 11.3807 8.11929 12.5 9.5 12.5C9.74984 12.5 9.99495 12.8974 9.76484 12.9947C9.37608 13.1591 8.94867 13.25 8.50002 13.25C6.7051 13.25 5.25002 11.7949 5.25002 10C5.25002 8.20507 6.7051 6.75 8.50002 6.75C8.94867 6.75 9.37608 6.84091 9.76484 7.0053C9.99495 7.10261 9.74984 7.5 9.5 7.5C8.11929 7.5 7 8.61929 7 10Z" fill="#F5F5F5"/>
<path d="M9.87811 10.2853C9.60172 10.1955 9.60172 9.80449 9.87812 9.71468L10.1747 9.61833C10.2983 9.57816 10.382 9.46298 10.382 9.33301L10.382 9.02119C10.382 8.73057 10.7539 8.60974 10.9247 8.84486L11.108 9.09712C11.1843 9.20227 11.3198 9.24627 11.4434 9.2061L11.7399 9.10975C12.0163 9.01994 12.2461 9.33628 12.0753 9.5714L11.892 9.82366C11.8157 9.92881 11.8157 10.0712 11.892 10.1763L12.0753 10.4286C12.2461 10.6637 12.0163 10.9801 11.7399 10.8903L11.4434 10.7939C11.3198 10.7537 11.1843 10.7977 11.108 10.9029L10.9247 11.1551C10.7539 11.3903 10.382 11.2694 10.382 10.9788L10.382 10.667C10.382 10.537 10.2983 10.4218 10.1747 10.3817L9.87811 10.2853Z" fill="#F5F5F5"/>
</g>
<defs>
<clipPath id="clip0_1_18528">
<rect x="2" y="2" width="16" height="16" rx="8" fill="white"/>
</clipPath>
</defs>
</svg>
