<svg width="20" height="20" viewBox="0 0 20 20" fill="none" xmlns="http://www.w3.org/2000/svg">
<rect x="2" y="2" width="16" height="16" rx="8" fill="#0EA5E9"/>
<path d="M12.9952 6C14.2124 6.91198 15 8.36598 15 10.0039C15 12.7654 12.7614 15.0039 10 15.0039C7.23858 15.0039 5 12.7654 5 10.0039C5 8.36598 5.78761 6.91198 7.00476 6" stroke="#F5F5F5" stroke-linecap="round"/>
<path d="M11.3109 7.46641C11.178 7.26704 11.3209 7 11.5606 7H11.8394C11.9398 7 12.0334 7.05013 12.0891 7.13359L12.9563 8.43442C12.9848 8.47718 13 8.52742 13 8.57881V8.57881C13 8.77232 12.7964 8.89818 12.6233 8.81164L12.0713 8.53563C12.0246 8.51228 11.9848 8.47715 11.9558 8.43371L11.3109 7.46641Z" fill="#F1F5F9"/>
<path d="M10.4121 9.91213C10.4684 9.96839 10.5 10.0447 10.5 10.1243V10.3146C10.5 10.4282 10.4358 10.5321 10.3342 10.5829L9.63782 10.9311C9.55335 10.9733 9.5 11.0597 9.5 11.1541V11.1541C9.5 11.3243 9.66672 11.4444 9.82816 11.3906L10.7243 11.0919C10.86 11.0467 11 11.1476 11 11.2906V11.2906C11 11.4062 10.9062 11.5 10.7906 11.5H10.1243C10.0447 11.5 9.96839 11.5316 9.91213 11.5879L9.58787 11.9121C9.53161 11.9684 9.5 12.0447 9.5 12.1243V12.2C9.5 12.3657 9.63431 12.5 9.8 12.5H10.3146C10.4282 12.5 10.5321 12.5642 10.5829 12.6658L10.9171 13.3342C10.9679 13.4358 11.0718 13.5 11.1854 13.5H11.2838C11.4129 13.5 11.5275 13.4174 11.5684 13.2949L11.9414 12.1759C11.9773 12.0681 11.9492 11.9492 11.8689 11.8689L11.5879 11.5879C11.5316 11.5316 11.5 11.4553 11.5 11.3757V11.1854C11.5 11.0718 11.5642 10.9679 11.6658 10.9171L12 10.75C12.206 10.647 12.206 10.353 12 10.25V10.25C11.794 10.147 11.794 9.85301 12 9.75L12.0376 9.73119C12.2437 9.62817 12.2615 9.34102 12.0699 9.21325L11.2046 8.63642C11.0856 8.5571 10.9272 8.57279 10.8261 8.67391L10.5879 8.91213C10.5316 8.96839 10.4553 9 10.3757 9H10.3C10.1343 9 10 9.13431 10 9.3V9.37574C10 9.4553 10.0316 9.53161 10.0879 9.58787L10.4121 9.91213Z" fill="#F1F5F9"/>
<path d="M7.95646 10.7065C7.98519 10.7352 8.00778 10.7695 8.02287 10.8072L8.42653 11.8163C8.4711 11.9278 8.44498 12.055 8.36012 12.1399L8.17391 12.3261C8.07279 12.4272 7.91435 12.4429 7.79536 12.3636L6.63359 11.5891C6.55013 11.5334 6.5 11.4398 6.5 11.3394V11.25C6.5 11.1119 6.61193 11 6.75 11V11C6.88807 11 7 10.8881 7 10.75V10.6854C7 10.5718 7.0642 10.4679 7.16584 10.4171L7.3066 10.3467C7.4221 10.289 7.56159 10.3116 7.6529 10.4029L7.95646 10.7065Z" fill="#F1F5F9"/>
<path d="M10 10.2C10 10.3657 9.86569 10.5 9.7 10.5H9.12426C9.0447 10.5 8.96839 10.4684 8.91213 10.4121L8.71213 10.2121C8.59497 10.095 8.40503 10.095 8.28787 10.2121L8.21213 10.2879C8.09497 10.405 7.90503 10.405 7.78787 10.2879L7.6529 10.1529C7.56159 10.0616 7.53895 9.9221 7.5967 9.8066L7.91708 9.16584C7.9679 9.0642 8.07178 9 8.18541 9H9H9.31459C9.42822 9 9.5321 9.0642 9.58292 9.16584L9.96833 9.93666C9.98916 9.97831 10 10.0242 10 10.0708V10.2Z" fill="#F1F5F9"/>
</svg>
