<svg width="20" height="20" viewBox="0 0 20 20" fill="none" xmlns="http://www.w3.org/2000/svg">
<g clip-path="url(#clip0_1_18534)">
<rect x="2.5" y="2.50003" width="15" height="15" fill="#166534" stroke="#166534"/>
<path fill-rule="evenodd" clip-rule="evenodd" d="M10.5356 10.8181C11.5119 11.7944 13.0948 11.7944 14.0711 10.8181C14.2478 10.6414 14.7021 10.7491 14.6082 10.9806C14.4495 11.3718 14.2116 11.7383 13.8943 12.0555C12.6251 13.3247 10.5673 13.3247 9.29814 12.0555C8.02894 10.7863 8.02894 8.72851 9.29814 7.45931C9.61538 7.14207 9.98188 6.90412 10.373 6.74547C10.6045 6.65157 10.7122 7.10589 10.5356 7.28255C9.55925 8.25886 9.55925 9.84177 10.5356 10.8181Z" fill="#F5F5F5"/>
<path d="M13.5915 7.50495C13.8505 7.37302 14.127 7.64951 13.995 7.90845L13.8535 8.18629C13.7945 8.30209 13.8167 8.44271 13.9086 8.53461L14.1291 8.7551C14.3346 8.9606 14.1571 9.309 13.8701 9.26354L13.5621 9.21476C13.4337 9.19443 13.3069 9.25907 13.2479 9.37487L13.1063 9.6527C12.9744 9.91164 12.5882 9.85047 12.5427 9.56344L12.4939 9.25546C12.4736 9.12709 12.3729 9.02641 12.2445 9.00608L11.9366 8.9573C11.6495 8.91184 11.5884 8.52563 11.8473 8.39369L12.1251 8.25213C12.2409 8.19313 12.3056 8.06627 12.2852 7.9379L12.2365 7.62992C12.191 7.34288 12.5394 7.16536 12.7449 7.37086L12.9654 7.59135C13.0573 7.68325 13.1979 7.70552 13.3137 7.64652L13.5915 7.50495Z" fill="#F5F5F5"/>
<rect x="2" y="2" width="4" height="16" fill="#F5F5F5"/>
</g>
<defs>
<clipPath id="clip0_1_18534">
<rect x="2" y="2" width="16" height="16" rx="8" fill="white"/>
</clipPath>
</defs>
</svg>
