<svg width="20" height="20" viewBox="0 0 20 20" fill="none" xmlns="http://www.w3.org/2000/svg">
<g clip-path="url(#clip0_1_14800)">
<rect x="2" y="2.00003" width="16" height="16" fill="#EA580C"/>
<path d="M9.71468 5.87812C9.80449 5.60172 10.1955 5.60172 10.2853 5.87812L11.0552 8.24762C11.0954 8.37123 11.2106 8.45492 11.3405 8.45492H13.832C14.1226 8.45492 14.2434 8.8268 14.0083 8.99762L11.9927 10.4621C11.8875 10.5384 11.8435 10.6739 11.8837 10.7975L12.6536 13.167C12.7434 13.4434 12.4271 13.6732 12.192 13.5024L10.1763 12.0379C10.0712 11.9616 9.92881 11.9616 9.82366 12.0379L7.80804 13.5024C7.57293 13.6732 7.25659 13.4434 7.34639 13.167L8.11629 10.7975C8.15645 10.6739 8.11245 10.5384 8.00731 10.4621L5.99169 8.99762C5.75657 8.8268 5.87741 8.45492 6.16802 8.45492H8.65947C8.78944 8.45492 8.90462 8.37123 8.94478 8.24762L9.71468 5.87812Z" fill="#FACC15"/>
</g>
<defs>
<clipPath id="clip0_1_14800">
<rect x="2" y="2" width="16" height="16" rx="8" fill="white"/>
</clipPath>
</defs>
</svg>
