<svg width="20" height="20" viewBox="0 0 20 20" fill="none" xmlns="http://www.w3.org/2000/svg">
<g clip-path="url(#clip0_1_18531)">
<rect x="2" y="2.00003" width="16" height="16" fill="#EA580C"/>
<path d="M10.408 4.79054C10.5592 4.55779 10.9198 4.65444 10.9344 4.93157C10.9409 5.05551 11.0264 5.16117 11.1463 5.19329C11.4144 5.26512 11.4339 5.638 11.1748 5.73745C11.059 5.78193 10.9849 5.89595 10.9914 6.01989C11.0059 6.29702 10.6573 6.43084 10.4827 6.21517C10.4046 6.11872 10.2733 6.08353 10.1574 6.12801C9.89831 6.22746 9.66332 5.93728 9.81447 5.70453C9.88206 5.60045 9.87495 5.46467 9.79684 5.36822C9.6222 5.15255 9.82556 4.8394 10.0936 4.91123C10.2135 4.94335 10.3404 4.89462 10.408 4.79054Z" fill="#FACC15"/>
<path d="M10.408 10.7905C10.5592 10.5578 10.9198 10.6544 10.9344 10.9315C10.9409 11.0555 11.0264 11.1611 11.1463 11.1933C11.4144 11.2651 11.4339 11.638 11.1748 11.7374C11.059 11.7819 10.9849 11.8959 10.9914 12.0199C11.0059 12.297 10.6573 12.4308 10.4827 12.2151C10.4046 12.1187 10.2733 12.0835 10.1574 12.128C9.89831 12.2274 9.66332 11.9372 9.81447 11.7045C9.88206 11.6004 9.87495 11.4646 9.79684 11.3682C9.6222 11.1525 9.82556 10.8394 10.0936 10.9112C10.2135 10.9433 10.3404 10.8946 10.408 10.7905Z" fill="#FACC15"/>
<path d="M11.0656 8.93154C11.0801 8.65441 11.4408 8.55777 11.5919 8.79051C11.6595 8.8946 11.7865 8.94332 11.9063 8.9112C12.1744 8.83937 12.3778 9.15253 12.2031 9.36819C12.125 9.46464 12.1179 9.60042 12.1855 9.7045C12.3366 9.93725 12.1016 10.2274 11.8426 10.128C11.7267 10.0835 11.5954 10.1187 11.5173 10.2151C11.3426 10.4308 10.994 10.297 11.0086 10.0199C11.015 9.89592 10.941 9.7819 10.8251 9.73742C10.566 9.63797 10.5856 9.26509 10.8537 9.19326C10.9735 9.16114 11.0591 9.05548 11.0656 8.93154Z" fill="#FACC15"/>
<path d="M10.9333 7.06337C10.8756 6.79192 11.1989 6.60522 11.4052 6.79092C11.4974 6.87396 11.6326 6.88817 11.7401 6.82612C11.9804 6.68736 12.2579 6.93721 12.1451 7.19073C12.0946 7.30411 12.1228 7.4371 12.2151 7.52014C12.4213 7.70584 12.2694 8.04695 11.9934 8.01794C11.87 8.00497 11.7523 8.07295 11.7018 8.18633C11.5889 8.43985 11.2176 8.40082 11.1599 8.12937C11.1341 8.00797 11.033 7.917 10.9096 7.90402C10.6336 7.87502 10.556 7.50978 10.7963 7.37102C10.9038 7.30897 10.9591 7.18477 10.9333 7.06337Z" fill="#FACC15"/>
<path d="M6.21468 5.87811C6.30449 5.60172 6.69551 5.60172 6.78532 5.87812L7.21844 7.21115C7.25861 7.33475 7.37379 7.41844 7.50376 7.41844H8.90539C9.19601 7.41844 9.31684 7.79032 9.08173 7.96115L7.94778 8.785C7.84264 8.8614 7.79864 8.99681 7.8388 9.12041L8.27193 10.4534C8.36174 10.7298 8.04539 10.9597 7.81028 10.7889L6.67634 9.965C6.57119 9.8886 6.42881 9.8886 6.32366 9.965L5.18972 10.7889C4.95461 10.9597 4.63826 10.7298 4.72807 10.4534L5.1612 9.12041C5.20136 8.99681 5.15736 8.8614 5.05221 8.785L3.91827 7.96115C3.68316 7.79032 3.80399 7.41844 4.09461 7.41844H5.49624C5.62621 7.41844 5.74139 7.33475 5.78156 7.21115L6.21468 5.87811Z" fill="#FACC15"/>
</g>
<defs>
<clipPath id="clip0_1_18531">
<rect x="2" y="2" width="16" height="16" rx="8" fill="white"/>
</clipPath>
</defs>
</svg>
