<svg width="20" height="20" viewBox="0 0 20 20" fill="none" xmlns="http://www.w3.org/2000/svg">
<g clip-path="url(#clip0_1_14678)">
<rect x="2" y="2.00003" width="16" height="16" fill="#EA580C"/>
<path d="M12.869 9.27724C12.7192 8.78724 12.2005 8.51145 11.7105 8.66126C11.3201 8.7806 10.7072 8.968 10.3868 9.55635C10.2624 9.78486 10.5132 10.0058 10.7663 10.0661C11.2642 10.1848 11.583 10.6406 12.253 10.4357C12.743 10.2859 13.0188 9.76725 12.869 9.27724Z" fill="#F5F5F5"/>
<path d="M10.0381 7.144C9.52574 7.13505 9.10318 7.54312 9.09423 8.05544C9.08711 8.46355 9.07592 9.10442 9.53648 9.59089C9.71536 9.77983 10.003 9.60964 10.1385 9.38756C10.4053 8.95061 10.9373 8.78833 10.9495 8.08782C10.9584 7.5755 10.5504 7.15294 10.0381 7.144Z" fill="#F5F5F5"/>
<path d="M7.13444 9.17718C6.96762 9.66166 7.22513 10.1896 7.70961 10.3565C8.09555 10.4894 8.7016 10.698 9.30658 10.4103C9.54155 10.2986 9.46856 9.97249 9.29925 9.77493C8.96611 9.38621 8.97617 8.83011 8.31372 8.60201C7.82924 8.43519 7.30126 8.6927 7.13444 9.17718Z" fill="#F5F5F5"/>
<path d="M8.17083 12.5669C8.58005 12.8753 9.16176 12.7935 9.47013 12.3843C9.71577 12.0583 10.1015 11.5464 10.0149 10.8821C9.9812 10.6241 9.64849 10.5928 9.40828 10.6927C8.93564 10.8895 8.40987 10.708 7.98822 11.2676C7.67986 11.6768 7.76161 12.2585 8.17083 12.5669Z" fill="#F5F5F5"/>
<path d="M11.715 12.6288C12.1347 12.3349 12.2367 11.7564 11.9428 11.3366C11.7087 11.0023 11.341 10.4772 10.6825 10.3544C10.4267 10.3067 10.2941 10.6134 10.3149 10.8727C10.356 11.383 10.021 11.827 10.4228 12.4009C10.7167 12.8207 11.2952 12.9227 11.715 12.6288Z" fill="#F5F5F5"/>
</g>
<defs>
<clipPath id="clip0_1_14678">
<rect x="2" y="2" width="16" height="16" rx="8" fill="white"/>
</clipPath>
</defs>
</svg>
