<svg width="20" height="20" viewBox="0 0 20 20" fill="none" xmlns="http://www.w3.org/2000/svg">
<g clip-path="url(#clip0_1_14665)">
<path d="M18 17.9999V2.00002H2V17.9999H18Z" fill="#1E40AF"/>
<path d="M18 17.9999L2 2.00002M2 17.9999L18 2.00002" stroke="#F5F5F5" stroke-width="3"/>
<path d="M18 17.9999L2 2.00002M2 17.9999L18 2.00002" stroke="#C2410C" stroke-width="1.5"/>
<path d="M10 17.9999V2.00002M18 9.99995H2" stroke="#F5F5F5" stroke-width="3.5"/>
<path d="M10 17.9999V2.00002M18 9.99995H2" stroke="#C2410C" stroke-width="2"/>
<path d="M18 17.9999V2.00002H2V17.9999H18Z" fill="#EA580C"/>
<path d="M10 10V2.00003H2V10H10Z" fill="#1E40AF"/>
<path d="M6.21468 4.87812C6.30449 4.60172 6.69551 4.60172 6.78532 4.87812L6.99393 5.52016C7.03409 5.64377 7.14928 5.72746 7.27925 5.72746H7.95434C8.24495 5.72746 8.36579 6.09934 8.13067 6.27016L7.58451 6.66697C7.47937 6.74336 7.43537 6.87877 7.47553 7.00238L7.68415 7.64443C7.77395 7.92082 7.45761 8.15066 7.22249 7.97984L6.67634 7.58303C6.57119 7.50664 6.42881 7.50664 6.32366 7.58303L5.77751 7.97984C5.54239 8.15066 5.22605 7.92082 5.31585 7.64443L5.52447 7.00238C5.56463 6.87877 5.52063 6.74336 5.41549 6.66697L4.86933 6.27016C4.63421 6.09934 4.75505 5.72746 5.04566 5.72746H5.72075C5.85072 5.72746 5.96591 5.64377 6.00607 5.52016L6.21468 4.87812Z" fill="#F5F5F5"/>
<path d="M6.78532 8.12188C6.69551 8.39828 6.30449 8.39828 6.21468 8.12188L6.00607 7.47984C5.96591 7.35623 5.85072 7.27254 5.72075 7.27254L5.04566 7.27254C4.75505 7.27254 4.63421 6.90066 4.86933 6.72984L5.41549 6.33303C5.52063 6.25664 5.56463 6.12123 5.52447 5.99762L5.31585 5.35557C5.22605 5.07918 5.54239 4.84934 5.77751 5.02016L6.32366 5.41697C6.42881 5.49336 6.57119 5.49336 6.67634 5.41697L7.22249 5.02016C7.45761 4.84934 7.77395 5.07918 7.68415 5.35557L7.47553 5.99762C7.43537 6.12123 7.47937 6.25664 7.58451 6.33303L8.13067 6.72984C8.36579 6.90066 8.24495 7.27254 7.95434 7.27254L7.27925 7.27254C7.14928 7.27254 7.03409 7.35623 6.99393 7.47984L6.78532 8.12188Z" fill="#F5F5F5"/>
</g>
<defs>
<clipPath id="clip0_1_14665">
<rect x="2" y="2" width="16" height="16" rx="8" fill="white"/>
</clipPath>
</defs>
</svg>
